<svg xmlns="http://www.w3.org/2000/svg" xmlns:xlink="http://www.w3.org/1999/xlink" width="60" zoomAndPan="magnify" viewBox="0 0 45 44.999999" height="60" preserveAspectRatio="xMidYMid meet" version="1.0"><defs><clipPath id="f103a8846d"><path d="M 22.5 0 C 10.074219 0 0 10.074219 0 22.5 C 0 34.925781 10.074219 45 22.5 45 C 34.925781 45 45 34.925781 45 22.5 C 45 10.074219 34.925781 0 22.5 0 Z M 22.5 0 " clip-rule="nonzero"/></clipPath><clipPath id="3dfff61b01"><path d="M 0 0 L 45 0 L 45 45 L 0 45 Z M 0 0 " clip-rule="nonzero"/></clipPath><clipPath id="16738095d2"><path d="M 22.5 0 C 10.074219 0 0 10.074219 0 22.5 C 0 34.925781 10.074219 45 22.5 45 C 34.925781 45 45 34.925781 45 22.5 C 45 10.074219 34.925781 0 22.5 0 Z M 22.5 0 " clip-rule="nonzero"/></clipPath><clipPath id="ad77e702cf"><rect x="0" width="45" y="0" height="45"/></clipPath><clipPath id="c1fab73d30"><path d="M 10 6.273438 L 35 6.273438 L 35 38.523438 L 10 38.523438 Z M 10 6.273438 " clip-rule="nonzero"/></clipPath></defs><rect x="-4.5" width="54" fill="#ffffff" y="-4.5" height="53.999999" fill-opacity="1"/><rect x="-4.5" width="54" fill="#ffffff" y="-4.5" height="53.999999" fill-opacity="1"/><g clip-path="url(#f103a8846d)"><g transform="matrix(1, 0, 0, 1, 0, 0)"><g clip-path="url(#ad77e702cf)"><g clip-path="url(#3dfff61b01)"><g clip-path="url(#16738095d2)"><rect x="-9.9" width="64.8" fill="#ec2228" height="64.799999" y="-9.9" fill-opacity="1"/></g></g></g></g></g><g clip-path="url(#c1fab73d30)"><path fill="#ffffff" d="M 32.449219 14.808594 C 32.277344 14.808594 32.105469 14.710938 32.011719 14.558594 C 31.878906 14.3125 31.953125 14.007812 32.199219 13.855469 L 33.96875 12.847656 C 34.214844 12.695312 34.519531 12.792969 34.652344 13.019531 C 34.804688 13.265625 34.710938 13.570312 34.480469 13.722656 L 32.695312 14.75 C 32.617188 14.789062 32.542969 14.808594 32.449219 14.808594 Z M 17.867188 38.722656 C 13.628906 38.722656 10.207031 35.28125 10.207031 31.058594 C 10.207031 28.476562 11.460938 26.117188 13.589844 24.691406 L 13.589844 10.53125 C 13.589844 8.191406 15.511719 6.273438 17.867188 6.273438 C 20.207031 6.273438 22.125 8.191406 22.125 10.53125 L 22.125 24.691406 C 24.253906 26.117188 25.507812 28.476562 25.507812 31.058594 C 25.507812 35.28125 22.085938 38.722656 17.867188 38.722656 Z M 17.867188 7.277344 C 16.0625 7.277344 14.597656 8.742188 14.597656 10.53125 L 14.597656 11.328125 L 15.074219 11.328125 C 15.339844 11.328125 15.566406 11.554688 15.566406 11.839844 C 15.566406 12.125 15.339844 12.355469 15.074219 12.355469 L 14.597656 12.355469 L 14.597656 13.609375 L 16.023438 13.609375 C 16.308594 13.609375 16.535156 13.835938 16.535156 14.121094 C 16.535156 14.390625 16.308594 14.617188 16.023438 14.617188 L 14.597656 14.617188 L 14.597656 15.890625 L 15.074219 15.890625 C 15.339844 15.890625 15.566406 16.117188 15.566406 16.382812 C 15.566406 16.667969 15.339844 16.898438 15.074219 16.898438 L 14.597656 16.898438 L 14.597656 18.152344 L 16.023438 18.152344 C 16.308594 18.152344 16.535156 18.378906 16.535156 18.664062 C 16.535156 18.949219 16.308594 19.179688 16.023438 19.179688 L 14.597656 19.179688 L 14.597656 20.433594 L 15.074219 20.433594 C 15.339844 20.433594 15.566406 20.660156 15.566406 20.945312 C 15.566406 21.214844 15.339844 21.441406 15.074219 21.441406 L 14.597656 21.441406 L 14.597656 22.714844 L 16.023438 22.714844 C 16.308594 22.714844 16.535156 22.941406 16.535156 23.210938 C 16.535156 23.496094 16.308594 23.722656 16.023438 23.722656 L 14.597656 23.722656 L 14.597656 24.976562 C 14.597656 25.148438 14.523438 25.300781 14.371094 25.394531 C 12.394531 26.632812 11.214844 28.742188 11.214844 31.058594 C 11.214844 34.730469 14.199219 37.695312 17.867188 37.695312 C 21.515625 37.695312 24.5 34.730469 24.5 31.058594 C 24.5 28.742188 23.324219 26.632812 21.347656 25.394531 C 21.195312 25.300781 21.117188 25.148438 21.117188 24.976562 L 21.117188 10.53125 C 21.117188 8.742188 19.65625 7.277344 17.867188 7.277344 Z M 17.867188 34.425781 C 16.003906 34.425781 14.484375 32.921875 14.484375 31.058594 C 14.484375 29.367188 15.71875 27.960938 17.355469 27.714844 L 17.355469 14.121094 C 17.355469 13.835938 17.582031 13.609375 17.867188 13.609375 C 18.132812 13.609375 18.363281 13.835938 18.363281 14.121094 L 18.363281 27.714844 C 19.996094 27.960938 21.230469 29.367188 21.230469 31.058594 C 21.230469 32.921875 19.730469 34.425781 17.867188 34.425781 Z M 17.867188 28.683594 C 16.554688 28.683594 15.492188 29.75 15.492188 31.058594 C 15.492188 32.351562 16.554688 33.417969 17.867188 33.417969 C 19.160156 33.417969 20.226562 32.351562 20.226562 31.058594 C 20.226562 29.75 19.160156 28.683594 17.867188 28.683594 Z M 29.082031 19.179688 C 27.46875 19.179688 26.15625 17.867188 26.15625 16.25 C 26.15625 14.617188 27.46875 13.304688 29.082031 13.304688 C 30.699219 13.304688 32.03125 14.617188 32.03125 16.25 C 32.03125 17.867188 30.699219 19.179688 29.082031 19.179688 Z M 29.082031 14.3125 C 28.019531 14.3125 27.164062 15.1875 27.164062 16.25 C 27.164062 17.296875 28.019531 18.171875 29.082031 18.171875 C 30.148438 18.171875 31.003906 17.296875 31.003906 16.25 C 31.003906 15.1875 30.148438 14.3125 29.082031 14.3125 Z M 29.082031 12.867188 C 28.796875 12.867188 28.589844 12.640625 28.589844 12.355469 L 28.589844 10.320312 C 28.589844 10.035156 28.796875 9.808594 29.082031 9.808594 C 29.367188 9.808594 29.597656 10.035156 29.597656 10.320312 L 29.597656 12.355469 C 29.597656 12.640625 29.367188 12.867188 29.082031 12.867188 Z M 27.144531 13.382812 C 26.972656 13.382812 26.800781 13.304688 26.707031 13.132812 L 26.042969 11.992188 C 25.910156 11.765625 26.003906 11.441406 26.230469 11.308594 C 26.480469 11.175781 26.78125 11.253906 26.933594 11.5 L 27.582031 12.621094 C 27.734375 12.867188 27.636719 13.171875 27.390625 13.324219 C 27.316406 13.363281 27.238281 13.382812 27.144531 13.382812 Z M 25.207031 16.746094 L 23.894531 16.746094 C 23.609375 16.746094 23.378906 16.519531 23.378906 16.25 C 23.378906 15.964844 23.609375 15.738281 23.894531 15.738281 L 25.207031 15.738281 C 25.492188 15.738281 25.71875 15.964844 25.71875 16.25 C 25.71875 16.519531 25.492188 16.746094 25.207031 16.746094 Z M 26.496094 21.25 C 26.402344 21.25 26.308594 21.230469 26.230469 21.175781 C 26.003906 21.042969 25.910156 20.738281 26.042969 20.492188 L 26.707031 19.351562 C 26.839844 19.101562 27.164062 19.027344 27.390625 19.160156 C 27.636719 19.3125 27.734375 19.617188 27.582031 19.863281 L 26.933594 20.984375 C 26.839844 21.15625 26.667969 21.25 26.496094 21.25 Z M 31.6875 21.25 C 31.515625 21.25 31.34375 21.15625 31.25 20.984375 L 30.585938 19.863281 C 30.453125 19.617188 30.527344 19.3125 30.773438 19.160156 C 31.023438 19.027344 31.328125 19.101562 31.460938 19.351562 L 32.125 20.492188 C 32.257812 20.738281 32.179688 21.042969 31.933594 21.175781 C 31.859375 21.230469 31.761719 21.25 31.6875 21.25 Z M 34.273438 16.746094 L 32.960938 16.746094 C 32.695312 16.746094 32.464844 16.519531 32.464844 16.25 C 32.464844 15.964844 32.695312 15.738281 32.960938 15.738281 L 34.273438 15.738281 C 34.558594 15.738281 34.785156 15.964844 34.785156 16.25 C 34.785156 16.519531 34.558594 16.746094 34.273438 16.746094 Z M 31.023438 13.382812 C 30.945312 13.382812 30.851562 13.363281 30.773438 13.324219 C 30.527344 13.171875 30.453125 12.867188 30.585938 12.621094 L 31.25 11.5 C 31.382812 11.253906 31.6875 11.175781 31.933594 11.308594 C 32.179688 11.441406 32.257812 11.765625 32.125 11.992188 L 31.460938 13.132812 C 31.363281 13.304688 31.191406 13.382812 31.023438 13.382812 Z M 25.71875 14.808594 C 25.640625 14.808594 25.546875 14.789062 25.472656 14.75 L 23.703125 13.722656 C 23.457031 13.570312 23.378906 13.265625 23.511719 13.019531 C 23.644531 12.792969 23.96875 12.695312 24.199219 12.847656 L 25.984375 13.855469 C 26.210938 14.007812 26.308594 14.3125 26.15625 14.558594 C 26.078125 14.710938 25.910156 14.808594 25.71875 14.808594 Z M 23.949219 19.710938 C 23.78125 19.710938 23.609375 19.617188 23.511719 19.464844 C 23.378906 19.21875 23.457031 18.914062 23.703125 18.761719 L 25.472656 17.753906 C 25.71875 17.601562 26.023438 17.695312 26.15625 17.925781 C 26.308594 18.171875 26.210938 18.476562 25.984375 18.628906 L 24.199219 19.65625 C 24.121094 19.691406 24.046875 19.710938 23.949219 19.710938 Z M 29.082031 22.675781 C 28.796875 22.675781 28.589844 22.449219 28.589844 22.164062 L 28.589844 20.128906 C 28.589844 19.84375 28.796875 19.617188 29.082031 19.617188 C 29.367188 19.617188 29.597656 19.84375 29.597656 20.128906 L 29.597656 22.164062 C 29.597656 22.449219 29.367188 22.675781 29.082031 22.675781 Z M 34.214844 19.710938 C 34.140625 19.710938 34.042969 19.691406 33.96875 19.65625 L 32.199219 18.628906 C 31.953125 18.476562 31.878906 18.171875 32.011719 17.925781 C 32.144531 17.695312 32.464844 17.601562 32.695312 17.753906 L 34.480469 18.761719 C 34.710938 18.914062 34.804688 19.21875 34.652344 19.464844 C 34.558594 19.617188 34.386719 19.710938 34.214844 19.710938 Z M 34.214844 19.710938 " fill-opacity="1" fill-rule="evenodd"/></g></svg>