<svg xmlns="http://www.w3.org/2000/svg" xmlns:xlink="http://www.w3.org/1999/xlink" width="60" zoomAndPan="magnify" viewBox="0 0 45 44.999999" height="60" preserveAspectRatio="xMidYMid meet" version="1.0"><defs><clipPath id="44416f1d7e"><path d="M 22.5 0 C 10.074219 0 0 10.074219 0 22.5 C 0 34.925781 10.074219 45 22.5 45 C 34.925781 45 45 34.925781 45 22.5 C 45 10.074219 34.925781 0 22.5 0 Z M 22.5 0 " clip-rule="nonzero"/></clipPath><clipPath id="9f2116cacc"><path d="M 0 0 L 45 0 L 45 45 L 0 45 Z M 0 0 " clip-rule="nonzero"/></clipPath><clipPath id="812a2a82fc"><path d="M 22.5 0 C 10.074219 0 0 10.074219 0 22.5 C 0 34.925781 10.074219 45 22.5 45 C 34.925781 45 45 34.925781 45 22.5 C 45 10.074219 34.925781 0 22.5 0 Z M 22.5 0 " clip-rule="nonzero"/></clipPath><clipPath id="01f338a045"><rect x="0" width="45" y="0" height="45"/></clipPath><clipPath id="7c4eb66b3a"><path d="M 8.671875 30 L 11 30 L 11 35.867188 L 8.671875 35.867188 Z M 8.671875 30 " clip-rule="nonzero"/></clipPath><clipPath id="3bd17f5d20"><path d="M 12.621094 26.050781 L 15 26.050781 L 15 35.867188 L 12.621094 35.867188 Z M 12.621094 26.050781 " clip-rule="nonzero"/></clipPath><clipPath id="f898371354"><path d="M 17 22.101562 L 19.863281 22.101562 L 19.863281 35.867188 L 17 35.867188 Z M 17 22.101562 " clip-rule="nonzero"/></clipPath><clipPath id="25dd52abc9"><path d="M 21.179688 22.101562 L 23.8125 22.101562 L 23.8125 35.867188 L 21.179688 35.867188 Z M 21.179688 22.101562 " clip-rule="nonzero"/></clipPath><clipPath id="afeadc35ea"><path d="M 25.132812 23 L 27.765625 23 L 27.765625 35.867188 L 25.132812 35.867188 Z M 25.132812 23 " clip-rule="nonzero"/></clipPath><clipPath id="e1f48b0ae8"><path d="M 29.738281 19 L 32 19 L 32 35.867188 L 29.738281 35.867188 Z M 29.738281 19 " clip-rule="nonzero"/></clipPath><clipPath id="280c05aa2b"><path d="M 34 19 L 36.324219 19 L 36.324219 35.867188 L 34 35.867188 Z M 34 19 " clip-rule="nonzero"/></clipPath><clipPath id="f1995840db"><path d="M 8 8.867188 L 37 8.867188 L 37 30 L 8 30 Z M 8 8.867188 " clip-rule="nonzero"/></clipPath></defs><rect x="-4.5" width="54" fill="#ffffff" y="-4.5" height="53.999999" fill-opacity="1"/><rect x="-4.5" width="54" fill="#ffffff" y="-4.5" height="53.999999" fill-opacity="1"/><g clip-path="url(#44416f1d7e)"><g transform="matrix(1, 0, 0, 1, 0, 0)"><g clip-path="url(#01f338a045)"><g clip-path="url(#9f2116cacc)"><g clip-path="url(#812a2a82fc)"><rect x="-9.9" width="64.8" fill="#ec2228" height="64.799999" y="-9.9" fill-opacity="1"/></g></g></g></g></g><g clip-path="url(#7c4eb66b3a)"><path fill="#ffffff" d="M 8.746094 31.15625 L 8.714844 35.671875 C 8.714844 35.949219 8.929688 36.128906 9.171875 36.128906 L 10.300781 36.128906 C 10.578125 36.128906 10.757812 35.917969 10.757812 35.671875 L 10.757812 30.210938 L 10.515625 30.484375 C 10.027344 30.914062 9.386719 31.15625 8.746094 31.15625 " fill-opacity="1" fill-rule="nonzero"/></g><g clip-path="url(#3bd17f5d20)"><path fill="#ffffff" d="M 12.957031 35.671875 C 12.957031 35.949219 13.167969 36.128906 13.414062 36.128906 L 14.542969 36.128906 C 14.816406 36.128906 15 35.917969 15 35.671875 L 15 26.425781 L 12.925781 28.289062 L 12.925781 35.671875 L 12.957031 35.671875 " fill-opacity="1" fill-rule="nonzero"/></g><g clip-path="url(#f898371354)"><path fill="#ffffff" d="M 17.164062 35.671875 C 17.164062 35.949219 17.378906 36.128906 17.625 36.128906 L 18.753906 36.128906 C 19.027344 36.128906 19.210938 35.917969 19.210938 35.671875 L 19.210938 22.644531 L 17.136719 24.503906 L 17.136719 35.671875 L 17.164062 35.671875 " fill-opacity="1" fill-rule="nonzero"/></g><g clip-path="url(#25dd52abc9)"><path fill="#ffffff" d="M 21.40625 22.492188 L 21.40625 35.671875 C 21.40625 35.949219 21.621094 36.128906 21.863281 36.128906 L 22.992188 36.128906 C 23.269531 36.128906 23.453125 35.917969 23.453125 35.671875 L 23.453125 24.230469 C 23.054688 24.046875 22.722656 23.804688 22.382812 23.496094 L 21.40625 22.492188 " fill-opacity="1" fill-rule="nonzero"/></g><g clip-path="url(#afeadc35ea)"><path fill="#ffffff" d="M 25.679688 24.476562 L 25.679688 35.671875 C 25.679688 35.949219 25.890625 36.128906 26.136719 36.128906 L 27.265625 36.128906 C 27.539062 36.128906 27.722656 35.917969 27.722656 35.671875 L 27.726562 23.253906 L 27.417969 23.558594 C 26.929688 24.015625 26.320312 24.355469 25.679688 24.476562 " fill-opacity="1" fill-rule="nonzero"/></g><g clip-path="url(#e1f48b0ae8)"><path fill="#ffffff" d="M 29.890625 35.671875 C 29.890625 35.949219 30.105469 36.128906 30.347656 36.128906 L 31.476562 36.128906 C 31.75 36.128906 31.9375 35.917969 31.9375 35.671875 L 31.9375 19.105469 L 29.859375 21.117188 L 29.859375 35.671875 L 29.890625 35.671875 " fill-opacity="1" fill-rule="nonzero"/></g><g clip-path="url(#280c05aa2b)"><path fill="#ffffff" d="M 34.132812 19.410156 L 34.132812 35.671875 C 34.132812 35.949219 34.347656 36.128906 34.589844 36.128906 L 35.71875 36.128906 C 35.992188 36.128906 36.175781 35.917969 36.175781 35.671875 L 36.175781 19.257812 C 35.808594 19.4375 35.414062 19.5625 34.988281 19.5625 C 34.710938 19.5625 34.40625 19.5 34.132812 19.410156 " fill-opacity="1" fill-rule="nonzero"/></g><g clip-path="url(#f1995840db)"><path fill="#ffffff" d="M 35.71875 17.058594 L 36.96875 9.796875 C 37.0625 9.308594 36.632812 8.851562 36.117188 8.941406 L 28.882812 10.222656 C 28.179688 10.347656 28.058594 11.261719 28.671875 11.597656 L 30.746094 12.667969 L 24.949219 18.648438 L 21.683594 15.378906 C 21.042969 14.800781 20.035156 14.863281 19.453125 15.503906 L 8.195312 28.074219 C 7.949219 28.351562 7.949219 28.746094 8.195312 29.054688 C 8.46875 29.355469 8.929688 29.386719 9.203125 29.113281 L 20.554688 18.984375 L 23.789062 22.21875 C 24.429688 22.855469 25.46875 22.855469 26.140625 22.21875 L 33.277344 15.261719 L 34.347656 17.335938 C 34.683594 17.882812 35.597656 17.761719 35.71875 17.058594 " fill-opacity="1" fill-rule="nonzero"/></g></svg>