<svg xmlns="http://www.w3.org/2000/svg" xmlns:xlink="http://www.w3.org/1999/xlink" width="60" zoomAndPan="magnify" viewBox="0 0 45 44.999999" height="60" preserveAspectRatio="xMidYMid meet" version="1.0"><defs><clipPath id="a31bd0bb7b"><path d="M 22.5 0 C 10.074219 0 0 10.074219 0 22.5 C 0 34.925781 10.074219 45 22.5 45 C 34.925781 45 45 34.925781 45 22.5 C 45 10.074219 34.925781 0 22.5 0 Z M 22.5 0 " clip-rule="nonzero"/></clipPath><clipPath id="86670c1ec2"><path d="M 0 0 L 45 0 L 45 45 L 0 45 Z M 0 0 " clip-rule="nonzero"/></clipPath><clipPath id="4d21a82804"><path d="M 22.5 0 C 10.074219 0 0 10.074219 0 22.5 C 0 34.925781 10.074219 45 22.5 45 C 34.925781 45 45 34.925781 45 22.5 C 45 10.074219 34.925781 0 22.5 0 Z M 22.5 0 " clip-rule="nonzero"/></clipPath><clipPath id="2f96c4c888"><rect x="0" width="45" y="0" height="45"/></clipPath><clipPath id="7c05855883"><path d="M 7.273438 7.714844 L 38 7.714844 L 38 36.964844 L 7.273438 36.964844 Z M 7.273438 7.714844 " clip-rule="nonzero"/></clipPath></defs><rect x="-4.5" width="54" fill="#ffffff" y="-4.5" height="53.999999" fill-opacity="1"/><rect x="-4.5" width="54" fill="#ffffff" y="-4.5" height="53.999999" fill-opacity="1"/><g clip-path="url(#a31bd0bb7b)"><g transform="matrix(1, 0, 0, 1, 0, 0)"><g clip-path="url(#2f96c4c888)"><g clip-path="url(#86670c1ec2)"><g clip-path="url(#4d21a82804)"><rect x="-9.9" width="64.8" fill="#ec2228" height="64.799999" y="-9.9" fill-opacity="1"/></g></g></g></g></g><g clip-path="url(#7c05855883)"><path fill="#ffffff" d="M 21.941406 27.894531 C 21.875 27.882812 21.828125 27.875 21.78125 27.875 C 19.300781 27.871094 16.816406 27.871094 14.332031 27.878906 C 14.234375 27.878906 14.101562 27.96875 14.046875 28.054688 C 13.832031 28.386719 13.636719 28.734375 13.445312 29.082031 C 12.925781 30.027344 13.042969 31.199219 13.738281 31.949219 C 14.304688 32.558594 15.042969 32.824219 15.851562 32.835938 C 17.828125 32.859375 19.804688 32.847656 21.785156 32.847656 C 21.832031 32.847656 21.878906 32.835938 21.941406 32.828125 Z M 15.898438 22.617188 C 16.269531 22.828125 16.609375 23.019531 16.949219 23.210938 C 16.941406 23.089844 16.90625 23.007812 16.859375 22.925781 C 16.230469 21.839844 15.59375 20.753906 14.972656 19.660156 C 14.871094 19.480469 14.757812 19.425781 14.5625 19.429688 C 13.292969 19.4375 12.019531 19.429688 10.75 19.433594 C 10.671875 19.433594 10.589844 19.445312 10.425781 19.453125 C 10.84375 19.699219 11.183594 19.902344 11.542969 20.109375 C 11.476562 20.230469 11.429688 20.324219 11.375 20.414062 C 10.90625 21.226562 10.429688 22.035156 9.96875 22.851562 C 9.46875 23.730469 9.460938 24.609375 9.976562 25.492188 C 10.589844 26.542969 11.1875 27.605469 11.792969 28.664062 C 11.90625 28.859375 12.023438 29.058594 12.121094 29.226562 C 13.324219 26.972656 14.65625 24.824219 15.898438 22.617188 Z M 23.039062 33.949219 L 22.667969 33.949219 C 20.476562 33.949219 18.285156 33.953125 16.09375 33.949219 C 14.449219 33.941406 13.195312 33.277344 12.378906 31.804688 C 11.285156 29.839844 10.136719 27.902344 9.03125 25.941406 C 8.34375 24.714844 8.339844 23.472656 9.039062 22.242188 C 9.414062 21.585938 9.792969 20.9375 10.183594 20.261719 C 9.230469 19.714844 8.285156 19.171875 7.273438 18.585938 C 7.425781 18.578125 7.503906 18.566406 7.578125 18.566406 C 10.082031 18.566406 12.582031 18.566406 15.082031 18.5625 C 15.28125 18.5625 15.386719 18.621094 15.488281 18.796875 C 16.738281 20.96875 17.992188 23.132812 19.246094 25.300781 C 19.28125 25.355469 19.3125 25.417969 19.390625 25.558594 C 18.371094 24.976562 17.425781 24.433594 16.457031 23.878906 C 15.902344 24.835938 15.359375 25.777344 14.78125 26.773438 L 23.039062 26.773438 Z M 31.558594 12.25 C 31.21875 12.445312 30.878906 12.640625 30.507812 12.851562 C 29.960938 11.910156 29.4375 10.996094 28.902344 10.09375 C 28.4375 9.308594 27.746094 8.828125 26.824219 8.808594 C 25.363281 8.773438 23.898438 8.792969 22.433594 8.789062 C 22.386719 8.789062 22.335938 8.8125 22.351562 8.808594 C 23.617188 10.988281 24.882812 13.160156 26.15625 15.355469 C 25.785156 15.574219 25.445312 15.769531 25.066406 15.992188 C 25.152344 16.015625 25.1875 16.03125 25.222656 16.03125 C 26.570312 16.03125 27.917969 16.035156 29.265625 16.023438 C 29.367188 16.019531 29.503906 15.910156 29.558594 15.8125 C 30.085938 14.925781 30.601562 14.027344 31.117188 13.132812 C 31.28125 12.851562 31.441406 12.570312 31.601562 12.292969 C 31.585938 12.277344 31.570312 12.265625 31.558594 12.253906 Z M 18.066406 9.378906 C 17.710938 9.679688 17.398438 10.0625 17.160156 10.460938 C 16.203125 12.0625 15.285156 13.683594 14.351562 15.296875 C 14.320312 15.351562 14.296875 15.414062 14.265625 15.484375 C 15.707031 16.3125 17.128906 17.132812 18.539062 17.945312 C 18.578125 17.910156 18.597656 17.902344 18.609375 17.886719 C 19.871094 15.703125 21.136719 13.523438 22.394531 11.335938 C 22.429688 11.269531 22.421875 11.148438 22.386719 11.078125 C 22.183594 10.707031 21.976562 10.332031 21.75 9.972656 C 20.914062 8.648438 19.257812 8.367188 18.0625 9.378906 Z M 33.84375 10.183594 C 32.589844 12.347656 31.332031 14.511719 30.078125 16.679688 C 29.992188 16.828125 29.902344 16.902344 29.71875 16.902344 C 27.21875 16.894531 24.714844 16.898438 22.214844 16.894531 C 22.148438 16.894531 22.082031 16.886719 21.988281 16.824219 C 22.910156 16.296875 23.832031 15.761719 24.785156 15.210938 C 24.230469 14.25 23.683594 13.304688 23.113281 12.316406 C 21.726562 14.710938 20.359375 17.074219 18.96875 19.46875 C 16.890625 18.273438 14.824219 17.085938 12.734375 15.882812 C 13.011719 15.394531 13.285156 14.921875 13.558594 14.445312 C 14.429688 12.941406 15.300781 11.433594 16.171875 9.929688 C 16.8125 8.824219 17.691406 8.003906 18.988281 7.796875 C 19.632812 7.695312 20.304688 7.730469 20.960938 7.730469 C 22.859375 7.730469 24.761719 7.746094 26.660156 7.753906 C 27.820312 7.761719 28.808594 8.167969 29.539062 9.074219 C 29.859375 9.472656 30.09375 9.9375 30.355469 10.375 C 30.59375 10.769531 30.820312 11.171875 31.0625 11.589844 C 32.023438 11.039062 32.960938 10.503906 33.957031 9.933594 C 33.902344 10.050781 33.878906 10.121094 33.84375 10.179688 Z M 36.082031 22.511719 C 35.164062 20.925781 34.242188 19.335938 33.324219 17.75 C 33.28125 17.679688 33.230469 17.613281 33.175781 17.535156 C 31.734375 18.367188 30.316406 19.1875 28.90625 20 C 28.914062 20.054688 28.914062 20.074219 28.921875 20.089844 C 30.179688 22.261719 31.4375 24.4375 32.703125 26.605469 C 32.75 26.691406 32.894531 26.761719 32.996094 26.765625 C 33.375 26.785156 33.753906 26.78125 34.128906 26.773438 C 35.453125 26.742188 36.453125 25.894531 36.625 24.632812 C 36.726562 23.863281 36.460938 23.167969 36.082031 22.511719 Z M 27.324219 27.832031 L 27.324219 26.566406 C 26.582031 27.847656 25.886719 29.050781 25.199219 30.257812 C 25.15625 30.332031 25.183594 30.480469 25.230469 30.5625 C 25.878906 31.695312 26.535156 32.824219 27.191406 33.953125 C 27.222656 34.011719 27.269531 34.0625 27.363281 34.183594 L 27.363281 32.902344 L 27.703125 32.902344 C 28.644531 32.902344 29.585938 32.910156 30.523438 32.898438 C 31.496094 32.882812 32.257812 32.472656 32.761719 31.628906 C 32.949219 31.3125 33.132812 30.996094 33.316406 30.679688 C 33.871094 29.730469 34.425781 28.78125 34.980469 27.832031 Z M 37.050781 26.382812 C 36.710938 26.921875 36.402344 27.480469 36.078125 28.03125 C 35.265625 29.414062 34.460938 30.800781 33.640625 32.179688 C 32.933594 33.367188 31.878906 33.96875 30.5 33.996094 C 29.824219 34.011719 29.144531 34 28.464844 34 L 28.152344 34 L 28.152344 37.253906 C 28.132812 37.261719 28.113281 37.265625 28.09375 37.269531 C 27.820312 36.800781 27.546875 36.328125 27.273438 35.855469 C 26.269531 34.125 25.269531 32.390625 24.257812 30.664062 C 24.144531 30.46875 24.128906 30.324219 24.25 30.113281 C 25.503906 27.96875 26.742188 25.816406 27.988281 23.664062 C 28.023438 23.601562 28.0625 23.542969 28.144531 23.417969 L 28.144531 26.75 L 31.496094 26.75 C 30.113281 24.359375 28.75 22 27.367188 19.609375 C 29.445312 18.410156 31.515625 17.222656 33.605469 16.015625 C 33.957031 16.617188 34.300781 17.207031 34.644531 17.800781 C 35.449219 19.1875 36.257812 20.574219 37.054688 21.96875 C 37.890625 23.433594 37.984375 24.90625 37.050781 26.382812 Z M 37.050781 26.382812 " fill-opacity="1" fill-rule="nonzero"/></g></svg>