<svg xmlns="http://www.w3.org/2000/svg" xmlns:xlink="http://www.w3.org/1999/xlink" width="60" zoomAndPan="magnify" viewBox="0 0 45 44.999999" height="60" preserveAspectRatio="xMidYMid meet" version="1.0"><defs><clipPath id="6e53daef4f"><path d="M 22.5 0 C 10.074219 0 0 10.074219 0 22.5 C 0 34.925781 10.074219 45 22.5 45 C 34.925781 45 45 34.925781 45 22.5 C 45 10.074219 34.925781 0 22.5 0 Z M 22.5 0 " clip-rule="nonzero"/></clipPath><clipPath id="cec5bda9c4"><path d="M 0 0 L 45 0 L 45 45 L 0 45 Z M 0 0 " clip-rule="nonzero"/></clipPath><clipPath id="2845bf9159"><path d="M 22.5 0 C 10.074219 0 0 10.074219 0 22.5 C 0 34.925781 10.074219 45 22.5 45 C 34.925781 45 45 34.925781 45 22.5 C 45 10.074219 34.925781 0 22.5 0 Z M 22.5 0 " clip-rule="nonzero"/></clipPath><clipPath id="e29642dcef"><rect x="0" width="45" y="0" height="45"/></clipPath><clipPath id="0d22ebb0b9"><path d="M 9.332031 7.492188 L 35.582031 7.492188 L 35.582031 37.492188 L 9.332031 37.492188 Z M 9.332031 7.492188 " clip-rule="nonzero"/></clipPath></defs><rect x="-4.5" width="54" fill="#ffffff" y="-4.5" height="53.999999" fill-opacity="1"/><rect x="-4.5" width="54" fill="#ffffff" y="-4.5" height="53.999999" fill-opacity="1"/><g clip-path="url(#6e53daef4f)"><g transform="matrix(1, 0, 0, 1, 0, 0)"><g clip-path="url(#e29642dcef)"><g clip-path="url(#cec5bda9c4)"><g clip-path="url(#2845bf9159)"><rect x="-9.9" width="64.8" fill="#ec2228" height="64.799999" y="-9.9" fill-opacity="1"/></g></g></g></g></g><g clip-path="url(#0d22ebb0b9)"><path fill="#ffffff" d="M 17.808594 20.058594 C 17.808594 19.730469 17.921875 18.964844 18.625 17.386719 C 18.769531 17.066406 19.144531 16.929688 19.460938 17.078125 C 19.761719 17.222656 19.894531 17.585938 19.761719 17.890625 C 19.058594 19.464844 19.050781 20.035156 19.050781 20.058594 C 19.050781 21.71875 20.269531 23.101562 21.859375 23.351562 C 22.164062 23.398438 22.382812 23.660156 22.382812 23.964844 C 22.382812 24.347656 22.039062 24.636719 21.660156 24.578125 C 19.480469 24.230469 17.808594 22.335938 17.808594 20.058594 Z M 35.429688 36.050781 L 31.867188 34.503906 C 30.648438 33.976562 29.253906 34.074219 28.132812 34.769531 L 27.628906 35.078125 C 26.714844 35.644531 25.542969 35.632812 24.640625 35.046875 L 24.367188 34.871094 C 23.214844 34.117188 21.71875 34.015625 20.460938 34.601562 L 18.890625 35.332031 C 17.980469 35.753906 16.875 35.652344 16.074219 35.070312 C 14.871094 34.199219 13.230469 34.070312 11.894531 34.742188 L 9.332031 36.03125 L 9.332031 37.421875 L 12.453125 35.851562 C 13.378906 35.386719 14.511719 35.472656 15.34375 36.074219 C 16.523438 36.929688 18.082031 37.078125 19.414062 36.457031 L 20.984375 35.726562 C 21.855469 35.320312 22.890625 35.390625 23.691406 35.910156 L 23.964844 36.085938 C 25.265625 36.933594 26.960938 36.953125 28.28125 36.136719 L 28.785156 35.824219 C 29.546875 35.351562 30.539062 35.28125 31.371094 35.644531 L 35.660156 37.503906 Z M 13.046875 30.882812 L 9.332031 32.863281 L 10.503906 17.625 L 13.269531 16.011719 C 14.472656 15.308594 15.949219 15.441406 17.027344 16.347656 C 17.035156 16.351562 17.039062 16.355469 17.042969 16.359375 C 17.523438 15.320312 18.15625 14.132812 18.941406 12.796875 C 20.390625 10.332031 21.859375 8.234375 21.875 8.214844 L 22.382812 7.492188 L 22.890625 8.214844 C 22.90625 8.234375 24.375 10.332031 25.828125 12.796875 C 26.496094 13.933594 27.054688 14.964844 27.5 15.886719 C 28.453125 15.316406 29.625 15.265625 30.625 15.769531 L 34.261719 17.597656 L 35.429688 32.789062 L 30.832031 30.675781 C 30.058594 30.316406 29.167969 30.382812 28.453125 30.851562 L 27.976562 31.164062 C 26.710938 31.996094 25.089844 31.976562 23.839844 31.117188 L 23.582031 30.9375 C 22.847656 30.429688 21.894531 30.359375 21.09375 30.757812 L 19.609375 31.488281 C 18.988281 31.796875 18.296875 31.921875 17.605469 31.851562 C 16.914062 31.785156 16.261719 31.527344 15.710938 31.101562 C 14.945312 30.515625 13.898438 30.425781 13.046875 30.882812 Z M 17.1875 20.058594 C 17.1875 22.925781 19.519531 25.253906 22.382812 25.253906 C 25.25 25.253906 27.578125 22.925781 27.578125 20.058594 C 27.578125 19.464844 27.339844 18.640625 26.957031 17.703125 C 26.804688 17.339844 26.636719 16.960938 26.449219 16.570312 C 25.300781 14.167969 23.53125 11.363281 22.382812 9.667969 C 21.195312 11.425781 19.335938 14.378906 18.191406 16.835938 C 18.003906 17.246094 17.832031 17.640625 17.6875 18.011719 C 17.375 18.820312 17.1875 19.53125 17.1875 20.058594 Z M 12.460938 29.785156 C 13.746094 29.101562 15.316406 29.234375 16.46875 30.117188 C 17.207031 30.6875 18.226562 30.789062 19.0625 30.375 L 20.542969 29.644531 C 21.746094 29.046875 23.183594 29.152344 24.289062 29.914062 L 24.546875 30.09375 C 25.375 30.664062 26.457031 30.679688 27.296875 30.125 L 27.769531 29.816406 C 28.386719 29.410156 29.09375 29.207031 29.800781 29.207031 C 30.328125 29.207031 30.855469 29.316406 31.351562 29.546875 L 34.03125 30.777344 L 33.078125 18.390625 L 30.066406 16.878906 C 29.398438 16.542969 28.636719 16.597656 28.015625 17.027344 C 28.550781 18.300781 28.820312 19.3125 28.820312 20.058594 C 28.820312 23.609375 25.933594 26.496094 22.382812 26.496094 C 18.835938 26.496094 15.945312 23.609375 15.945312 20.058594 C 15.945312 19.414062 16.148438 18.570312 16.546875 17.535156 C 16.4375 17.464844 16.332031 17.382812 16.230469 17.296875 C 15.558594 16.730469 14.640625 16.648438 13.894531 17.082031 L 11.691406 18.367188 L 10.742188 30.703125 Z M 15.34375 33.625 C 16.523438 34.480469 18.082031 34.628906 19.414062 34.007812 L 20.984375 33.277344 C 21.855469 32.871094 22.894531 32.941406 23.691406 33.460938 L 23.964844 33.636719 C 25.265625 34.484375 26.960938 34.503906 28.28125 33.6875 L 28.785156 33.375 C 29.550781 32.902344 30.539062 32.832031 31.371094 33.191406 L 35.546875 35.003906 L 35.429688 33.597656 L 31.867188 32.054688 C 30.648438 31.527344 29.253906 31.625 28.132812 32.320312 L 27.628906 32.628906 C 26.714844 33.195312 25.542969 33.183594 24.644531 32.597656 L 24.367188 32.417969 C 23.214844 31.667969 21.71875 31.566406 20.460938 32.148438 L 18.890625 32.882812 C 17.980469 33.304688 16.875 33.203125 16.074219 32.621094 C 14.871094 31.75 13.230469 31.621094 11.894531 32.292969 L 9.332031 33.578125 L 9.332031 35.003906 L 12.453125 33.402344 C 13.378906 32.933594 14.515625 33.023438 15.34375 33.625 Z M 15.34375 33.625 " fill-opacity="1" fill-rule="nonzero"/></g></svg>