<svg xmlns="http://www.w3.org/2000/svg" xmlns:xlink="http://www.w3.org/1999/xlink" width="60" zoomAndPan="magnify" viewBox="0 0 45 44.999999" height="60" preserveAspectRatio="xMidYMid meet" version="1.0"><defs><clipPath id="f3e4c53619"><path d="M 22.5 0 C 10.074219 0 0 10.074219 0 22.5 C 0 34.925781 10.074219 45 22.5 45 C 34.925781 45 45 34.925781 45 22.5 C 45 10.074219 34.925781 0 22.5 0 Z M 22.5 0 " clip-rule="nonzero"/></clipPath><clipPath id="baf30e2be1"><path d="M 0 0 L 45 0 L 45 45 L 0 45 Z M 0 0 " clip-rule="nonzero"/></clipPath><clipPath id="462f2f658b"><path d="M 22.5 0 C 10.074219 0 0 10.074219 0 22.5 C 0 34.925781 10.074219 45 22.5 45 C 34.925781 45 45 34.925781 45 22.5 C 45 10.074219 34.925781 0 22.5 0 Z M 22.5 0 " clip-rule="nonzero"/></clipPath><clipPath id="e4a11192e5"><rect x="0" width="45" y="0" height="45"/></clipPath><clipPath id="702e29c8f6"><path d="M 12 10 L 33 10 L 33 40.714844 L 12 40.714844 Z M 12 10 " clip-rule="nonzero"/></clipPath><clipPath id="259b3affcf"><path d="M 34 19 L 38.191406 19 L 38.191406 21 L 34 21 Z M 34 19 " clip-rule="nonzero"/></clipPath><clipPath id="b55d9df587"><path d="M 6.691406 19 L 11 19 L 11 21 L 6.691406 21 Z M 6.691406 19 " clip-rule="nonzero"/></clipPath><clipPath id="968c0b770b"><path d="M 21 3.964844 L 24 3.964844 L 24 9 L 21 9 Z M 21 3.964844 " clip-rule="nonzero"/></clipPath></defs><rect x="-4.5" width="54" fill="#ffffff" y="-4.5" height="53.999999" fill-opacity="1"/><rect x="-4.5" width="54" fill="#ffffff" y="-4.5" height="53.999999" fill-opacity="1"/><g clip-path="url(#f3e4c53619)"><g transform="matrix(1, 0, 0, 1, 0, 0)"><g clip-path="url(#e4a11192e5)"><g clip-path="url(#baf30e2be1)"><g clip-path="url(#462f2f658b)"><rect x="-9.9" width="64.8" fill="#ec2228" height="64.799999" y="-9.9" fill-opacity="1"/></g></g></g></g></g><g clip-path="url(#702e29c8f6)"><path fill="#ffffff" d="M 32.546875 20.109375 C 32.546875 18.773438 32.289062 17.476562 31.78125 16.25 C 31.289062 15.070312 30.582031 14.003906 29.683594 13.085938 C 28.785156 12.167969 27.738281 11.4375 26.570312 10.917969 C 25.359375 10.382812 24.074219 10.09375 22.742188 10.0625 C 21.355469 10.03125 20.007812 10.269531 18.738281 10.777344 C 17.511719 11.265625 16.410156 11.980469 15.464844 12.902344 C 14.519531 13.824219 13.777344 14.90625 13.261719 16.117188 C 12.722656 17.375 12.449219 18.714844 12.449219 20.101562 C 12.449219 21.304688 12.65625 22.484375 13.074219 23.601562 C 13.472656 24.683594 14.054688 25.683594 14.800781 26.570312 C 16.019531 28.023438 16.691406 29.851562 16.691406 31.722656 L 16.691406 31.746094 C 16.691406 32.335938 16.976562 32.863281 17.414062 33.195312 L 17.414062 36.9375 C 17.414062 37.984375 18.15625 38.859375 19.140625 39.066406 C 19.417969 40.191406 20.429688 41.027344 21.640625 41.027344 L 23.359375 41.027344 C 24.566406 41.027344 25.582031 40.191406 25.855469 39.066406 C 26.839844 38.859375 27.582031 37.984375 27.582031 36.9375 L 27.582031 33.195312 C 28.019531 32.863281 28.304688 32.335938 28.304688 31.746094 C 28.304688 29.863281 28.980469 28.023438 30.203125 26.5625 C 30.945312 25.675781 31.523438 24.679688 31.925781 23.601562 C 32.339844 22.484375 32.546875 21.3125 32.546875 20.109375 Z M 26.273438 33.558594 L 26.273438 35.027344 L 18.722656 35.027344 L 18.722656 33.558594 Z M 23.359375 39.722656 L 21.640625 39.722656 C 21.183594 39.722656 20.78125 39.476562 20.558594 39.113281 L 24.4375 39.113281 C 24.214844 39.476562 23.816406 39.722656 23.359375 39.722656 Z M 26.273438 36.9375 C 26.273438 37.417969 25.886719 37.804688 25.40625 37.804688 L 19.589844 37.804688 C 19.113281 37.804688 18.722656 37.417969 18.722656 36.9375 L 18.722656 36.335938 L 26.273438 36.335938 Z M 30.699219 23.148438 C 30.351562 24.085938 29.847656 24.953125 29.203125 25.722656 C 27.78125 27.417969 27 29.558594 27 31.746094 C 27 32.023438 26.773438 32.25 26.492188 32.25 L 22.589844 32.25 C 22.800781 30.992188 22.925781 29.726562 22.976562 28.460938 C 23.019531 27.308594 23 26.152344 22.921875 25 C 22.996094 24.929688 23.132812 24.792969 23.132812 24.792969 C 24.175781 23.785156 25.46875 23.039062 26.867188 22.640625 C 27.019531 22.59375 27.207031 22.546875 27.367188 22.507812 C 27.398438 22.503906 27.425781 22.5 27.457031 22.496094 C 27.558594 22.480469 27.757812 22.457031 27.859375 22.445312 L 27.664062 22.507812 C 27.570312 22.539062 27.375 22.609375 27.28125 22.640625 C 27.167969 22.6875 27.015625 22.746094 26.902344 22.792969 C 25.988281 23.1875 25.132812 23.753906 24.371094 24.464844 C 24.9375 25.160156 25.863281 25.523438 26.804688 25.332031 C 28.152344 25.058594 29.960938 22.144531 29.960938 22.144531 C 29.960938 22.144531 27.15625 20.167969 25.808594 20.445312 C 24.566406 20.695312 23.730469 21.828125 23.816406 23.054688 C 23.464844 23.195312 23.121094 23.355469 22.789062 23.535156 C 22.652344 22.339844 22.445312 21.15625 22.167969 19.992188 C 22.183594 19.984375 22.199219 19.976562 22.210938 19.96875 C 23.421875 19.34375 23.898438 17.859375 23.273438 16.648438 C 22.648438 15.441406 19.394531 14.503906 19.394531 14.503906 C 19.394531 14.503906 18.269531 17.699219 18.894531 18.90625 C 19.328125 19.75 20.179688 20.238281 21.066406 20.242188 C 21.144531 19.214844 21.050781 18.207031 20.789062 17.261719 C 20.753906 17.144531 20.707031 16.992188 20.671875 16.875 C 20.636719 16.78125 20.570312 16.589844 20.535156 16.496094 L 20.460938 16.308594 C 20.515625 16.394531 20.621094 16.5625 20.671875 16.652344 C 20.773438 16.8125 20.878906 17.015625 20.964844 17.179688 C 21.046875 17.351562 21.144531 17.558594 21.214844 17.734375 C 21.382812 18.148438 21.519531 18.578125 21.621094 19.019531 C 21.917969 20.867188 22.042969 22.746094 21.992188 24.621094 C 21.886719 24.5625 21.777344 24.503906 21.675781 24.453125 C 21.488281 24.359375 21.300781 24.273438 21.109375 24.195312 C 21.1875 23.011719 20.40625 21.90625 19.214844 21.613281 C 17.878906 21.285156 14.996094 23.144531 14.996094 23.144531 C 14.996094 23.144531 16.6875 26.128906 18.027344 26.457031 C 18.957031 26.6875 19.898438 26.359375 20.492188 25.6875 C 19.757812 24.945312 18.925781 24.347656 18.027344 23.917969 C 17.917969 23.867188 17.769531 23.800781 17.65625 23.75 C 17.5625 23.714844 17.371094 23.636719 17.277344 23.601562 L 17.085938 23.53125 C 17.183594 23.546875 17.371094 23.578125 17.472656 23.597656 C 17.550781 23.617188 17.628906 23.632812 17.691406 23.652344 C 17.796875 23.679688 17.949219 23.722656 18.050781 23.753906 C 19.5 24.203125 20.816406 25.015625 21.859375 26.105469 C 21.859375 26.105469 21.886719 26.078125 21.925781 26.027344 C 21.773438 28.117188 21.40625 30.191406 20.828125 32.199219 C 20.824219 32.214844 20.820312 32.234375 20.816406 32.25 L 18.503906 32.25 C 18.226562 32.25 18 32.023438 18 31.746094 L 18 31.722656 C 18 29.546875 17.21875 27.417969 15.800781 25.730469 C 15.152344 24.957031 14.648438 24.089844 14.296875 23.148438 C 13.9375 22.175781 13.753906 21.148438 13.757812 20.101562 C 13.757812 18.890625 13.996094 17.726562 14.460938 16.632812 C 14.914062 15.578125 15.558594 14.640625 16.378906 13.839844 C 17.199219 13.035156 18.15625 12.414062 19.222656 11.988281 C 20.257812 11.578125 21.359375 11.367188 22.492188 11.367188 C 22.5625 11.367188 22.636719 11.367188 22.710938 11.371094 C 23.867188 11.398438 24.988281 11.648438 26.039062 12.113281 C 27.054688 12.566406 27.96875 13.199219 28.75 14 C 30.355469 15.640625 31.242188 17.8125 31.242188 20.109375 C 31.242188 21.15625 31.058594 22.175781 30.699219 23.148438 Z M 30.699219 23.148438 " fill-opacity="1" fill-rule="nonzero"/></g><g clip-path="url(#259b3affcf)"><path fill="#ffffff" d="M 37.652344 19.121094 L 34.921875 19.121094 C 34.558594 19.121094 34.265625 19.414062 34.265625 19.773438 C 34.265625 20.136719 34.558594 20.429688 34.921875 20.429688 L 37.652344 20.429688 C 38.015625 20.429688 38.308594 20.136719 38.308594 19.773438 C 38.308594 19.414062 38.015625 19.121094 37.652344 19.121094 Z M 37.652344 19.121094 " fill-opacity="1" fill-rule="nonzero"/></g><g clip-path="url(#b55d9df587)"><path fill="#ffffff" d="M 10.078125 19.121094 L 7.34375 19.121094 C 6.984375 19.121094 6.691406 19.414062 6.691406 19.773438 C 6.691406 20.136719 6.984375 20.429688 7.34375 20.429688 L 10.078125 20.429688 C 10.4375 20.429688 10.730469 20.136719 10.730469 19.773438 C 10.730469 19.414062 10.4375 19.121094 10.078125 19.121094 Z M 10.078125 19.121094 " fill-opacity="1" fill-rule="nonzero"/></g><path fill="#ffffff" d="M 32.753906 8.597656 L 30.820312 10.53125 C 30.566406 10.785156 30.566406 11.199219 30.820312 11.453125 C 30.949219 11.582031 31.113281 11.644531 31.28125 11.644531 C 31.449219 11.644531 31.617188 11.582031 31.742188 11.453125 L 33.675781 9.519531 C 33.933594 9.265625 33.933594 8.851562 33.675781 8.597656 C 33.421875 8.339844 33.007812 8.339844 32.753906 8.597656 Z M 32.753906 8.597656 " fill-opacity="1" fill-rule="nonzero"/><path fill="#ffffff" d="M 13.253906 28.097656 L 11.320312 30.027344 C 11.066406 30.285156 11.066406 30.699219 11.320312 30.953125 C 11.449219 31.082031 11.617188 31.144531 11.78125 31.144531 C 11.949219 31.144531 12.117188 31.082031 12.246094 30.953125 L 14.179688 29.019531 C 14.433594 28.765625 14.433594 28.351562 14.179688 28.097656 C 13.921875 27.839844 13.507812 27.839844 13.253906 28.097656 Z M 13.253906 28.097656 " fill-opacity="1" fill-rule="nonzero"/><path fill="#ffffff" d="M 31.742188 28.097656 C 31.488281 27.839844 31.074219 27.839844 30.820312 28.097656 C 30.5625 28.351562 30.566406 28.765625 30.820312 29.019531 L 32.753906 30.953125 C 32.878906 31.082031 33.046875 31.144531 33.214844 31.144531 C 33.382812 31.144531 33.550781 31.082031 33.675781 30.953125 C 33.933594 30.699219 33.933594 30.285156 33.675781 30.027344 Z M 31.742188 28.097656 " fill-opacity="1" fill-rule="nonzero"/><path fill="#ffffff" d="M 13.253906 11.453125 C 13.382812 11.582031 13.546875 11.644531 13.714844 11.644531 C 13.882812 11.644531 14.050781 11.582031 14.179688 11.453125 C 14.433594 11.199219 14.433594 10.785156 14.179688 10.53125 L 12.246094 8.597656 C 11.988281 8.339844 11.574219 8.339844 11.320312 8.597656 C 11.066406 8.851562 11.066406 9.265625 11.320312 9.519531 Z M 13.253906 11.453125 " fill-opacity="1" fill-rule="nonzero"/><g clip-path="url(#968c0b770b)"><path fill="#ffffff" d="M 22.5 8.007812 C 22.859375 8.007812 23.152344 7.714844 23.152344 7.355469 L 23.152344 4.621094 C 23.152344 4.257812 22.859375 3.96875 22.5 3.96875 C 22.136719 3.96875 21.84375 4.257812 21.84375 4.621094 L 21.84375 7.355469 C 21.84375 7.714844 22.136719 8.007812 22.5 8.007812 Z M 22.5 8.007812 " fill-opacity="1" fill-rule="nonzero"/></g></svg>