<svg xmlns="http://www.w3.org/2000/svg" xmlns:xlink="http://www.w3.org/1999/xlink" width="60" zoomAndPan="magnify" viewBox="0 0 45 44.999999" height="60" preserveAspectRatio="xMidYMid meet" version="1.0"><defs><clipPath id="b2d1f0755e"><path d="M 22.5 0 C 10.074219 0 0 10.074219 0 22.5 C 0 34.925781 10.074219 45 22.5 45 C 34.925781 45 45 34.925781 45 22.5 C 45 10.074219 34.925781 0 22.5 0 Z M 22.5 0 " clip-rule="nonzero"/></clipPath><clipPath id="d52ac7df42"><path d="M 0 0 L 45 0 L 45 45 L 0 45 Z M 0 0 " clip-rule="nonzero"/></clipPath><clipPath id="793d824087"><path d="M 22.5 0 C 10.074219 0 0 10.074219 0 22.5 C 0 34.925781 10.074219 45 22.5 45 C 34.925781 45 45 34.925781 45 22.5 C 45 10.074219 34.925781 0 22.5 0 Z M 22.5 0 " clip-rule="nonzero"/></clipPath><clipPath id="098abe8645"><rect x="0" width="45" y="0" height="45"/></clipPath><clipPath id="193f71fdfb"><path d="M 4.078125 9.152344 L 40.828125 9.152344 L 40.828125 36 L 4.078125 36 Z M 4.078125 9.152344 " clip-rule="nonzero"/></clipPath></defs><rect x="-4.5" width="54" fill="#ffffff" y="-4.5" height="53.999999" fill-opacity="1"/><rect x="-4.5" width="54" fill="#ffffff" y="-4.5" height="53.999999" fill-opacity="1"/><g clip-path="url(#b2d1f0755e)"><g transform="matrix(1, 0, 0, 1, 0, 0)"><g clip-path="url(#098abe8645)"><g clip-path="url(#d52ac7df42)"><g clip-path="url(#793d824087)"><rect x="-9.9" width="64.8" fill="#ec2228" height="64.799999" y="-9.9" fill-opacity="1"/></g></g></g></g></g><g clip-path="url(#193f71fdfb)"><path fill="#ffffff" d="M 40.769531 18.613281 L 35.445312 13.289062 C 35.347656 13.191406 35.214844 13.136719 35.074219 13.136719 C 34.9375 13.136719 34.804688 13.191406 34.707031 13.289062 L 30.855469 17.140625 L 32.292969 11.769531 C 32.371094 11.492188 32.203125 11.207031 31.925781 11.132812 L 24.65625 9.183594 C 24.519531 9.144531 24.378906 9.164062 24.257812 9.234375 C 24.140625 9.304688 24.050781 9.417969 24.015625 9.550781 L 22.550781 15.011719 L 21.109375 9.628906 C 21.074219 9.496094 20.984375 9.382812 20.867188 9.3125 C 20.746094 9.242188 20.601562 9.222656 20.46875 9.261719 L 13.199219 11.210938 C 12.921875 11.285156 12.753906 11.570312 12.828125 11.847656 L 14.285156 17.292969 L 10.292969 13.296875 C 10.195312 13.199219 10.0625 13.144531 9.921875 13.144531 C 9.785156 13.144531 9.652344 13.199219 9.554688 13.296875 L 4.230469 18.621094 C 4.027344 18.824219 4.027344 19.15625 4.230469 19.359375 L 7.9375 23.066406 C 7.9375 23.070312 7.9375 23.070312 7.941406 23.070312 L 11.644531 26.773438 L 15.351562 30.484375 C 15.351562 30.484375 15.355469 30.484375 15.355469 30.484375 L 19.453125 34.585938 C 20.289062 35.417969 21.386719 35.835938 22.484375 35.835938 C 22.875 35.835938 23.265625 35.78125 23.644531 35.675781 C 23.644531 35.675781 23.648438 35.675781 23.648438 35.675781 C 23.65625 35.675781 23.660156 35.671875 23.667969 35.671875 C 23.6875 35.664062 23.710938 35.660156 23.734375 35.652344 C 23.765625 35.640625 23.792969 35.632812 23.824219 35.625 C 23.851562 35.617188 23.875 35.605469 23.902344 35.597656 C 23.914062 35.59375 23.921875 35.589844 23.933594 35.585938 C 24.644531 35.34375 25.265625 34.925781 25.757812 34.367188 L 33.34375 26.777344 C 33.347656 26.773438 33.351562 26.773438 33.355469 26.769531 C 33.359375 26.765625 33.359375 26.761719 33.363281 26.757812 L 37.046875 23.074219 C 37.050781 23.070312 37.058594 23.066406 37.0625 23.058594 C 37.066406 23.054688 37.074219 23.046875 37.078125 23.042969 L 40.769531 19.351562 C 40.972656 19.148438 40.972656 18.816406 40.769531 18.613281 Z M 18.675781 21.679688 L 22.949219 20.535156 L 23.902344 24.09375 L 22.496094 25.5 Z M 26.449219 29.558594 L 25.71875 26.832031 L 27.082031 27.199219 Z M 24.214844 25.257812 L 24.933594 27.9375 L 23.234375 26.242188 Z M 27.351562 26.1875 L 25.40625 25.667969 L 24.152344 20.984375 L 28.4375 22.132812 L 28.425781 22.183594 C 28.421875 22.1875 28.421875 22.195312 28.417969 22.199219 Z M 24.890625 10.324219 L 31.152344 12.003906 L 30.066406 16.058594 L 23.800781 14.382812 Z M 23.53125 15.390625 L 29.792969 17.070312 L 28.707031 21.125 L 23.839844 19.820312 L 23.824219 19.765625 C 23.824219 19.761719 23.824219 19.761719 23.824219 19.757812 C 23.824219 19.757812 23.820312 19.753906 23.820312 19.753906 L 23.09375 17.03125 Z M 20.234375 10.40625 L 21.324219 14.460938 L 15.058594 16.136719 L 13.972656 12.082031 Z M 15.328125 17.148438 L 21.59375 15.46875 L 22.679688 19.523438 L 17.820312 20.828125 L 15.761719 18.769531 Z M 5.339844 18.992188 L 9.921875 14.40625 L 12.894531 17.375 L 8.308594 21.960938 Z M 9.046875 22.699219 L 13.632812 18.113281 L 14.902344 19.386719 C 14.921875 19.40625 14.9375 19.421875 14.957031 19.4375 L 16.601562 21.082031 L 12.015625 25.667969 Z M 12.753906 26.40625 L 17.339844 21.820312 L 20.308594 24.789062 L 15.722656 29.375 Z M 20.195312 33.84375 L 16.460938 30.113281 L 21.046875 25.527344 L 22.125 26.609375 C 22.125 26.609375 22.128906 26.609375 22.128906 26.609375 L 24.777344 29.261719 C 25.386719 29.871094 25.722656 30.683594 25.722656 31.554688 C 25.722656 32.421875 25.386719 33.238281 24.777344 33.84375 C 24.417969 34.207031 23.988281 34.464844 23.535156 34.617188 C 23.5 34.628906 23.464844 34.640625 23.425781 34.652344 C 23.410156 34.65625 23.394531 34.660156 23.378906 34.664062 C 23.371094 34.667969 23.367188 34.671875 23.359375 34.671875 C 22.265625 34.976562 21.046875 34.699219 20.195312 33.84375 Z M 26.960938 31.683594 L 27.628906 29.195312 L 28.539062 30.105469 Z M 29.277344 29.367188 L 27.9375 28.027344 L 28.222656 26.964844 C 28.222656 26.964844 28.226562 26.964844 28.226562 26.964844 C 28.226562 26.960938 28.226562 26.960938 28.226562 26.957031 L 29.195312 23.34375 L 32.246094 26.398438 Z M 32.984375 25.660156 L 29.507812 22.179688 L 29.578125 21.910156 C 29.578125 21.90625 29.582031 21.902344 29.582031 21.898438 C 29.585938 21.894531 29.585938 21.886719 29.585938 21.878906 L 30.316406 19.160156 L 31.371094 18.105469 L 35.953125 22.691406 Z M 36.691406 21.953125 L 32.109375 17.367188 L 35.074219 14.398438 L 39.660156 18.984375 Z M 23.835938 32.863281 C 24.1875 32.511719 24.382812 32.042969 24.382812 31.542969 C 24.382812 31.046875 24.1875 30.578125 23.835938 30.226562 C 23.484375 29.875 23.011719 29.679688 22.515625 29.679688 C 22.015625 29.679688 21.546875 29.875 21.195312 30.226562 C 20.46875 30.953125 20.46875 32.136719 21.195312 32.863281 C 21.546875 33.21875 22.015625 33.410156 22.515625 33.410156 C 23.011719 33.410156 23.480469 33.21875 23.835938 32.863281 Z M 21.933594 30.964844 C 22.089844 30.808594 22.296875 30.722656 22.515625 30.722656 C 22.734375 30.722656 22.941406 30.808594 23.097656 30.964844 C 23.25 31.121094 23.335938 31.324219 23.335938 31.542969 C 23.335938 31.765625 23.25 31.96875 23.09375 32.125 C 22.941406 32.28125 22.734375 32.367188 22.515625 32.367188 C 22.292969 32.367188 22.089844 32.28125 21.933594 32.128906 C 21.613281 31.804688 21.613281 31.285156 21.933594 30.964844 Z M 21.933594 30.964844 " fill-opacity="1" fill-rule="nonzero"/></g></svg>