<svg xmlns="http://www.w3.org/2000/svg" xmlns:xlink="http://www.w3.org/1999/xlink" width="60" zoomAndPan="magnify" viewBox="0 0 45 44.999999" height="60" preserveAspectRatio="xMidYMid meet" version="1.0"><defs><clipPath id="c96e993493"><path d="M 22.5 0 C 10.074219 0 0 10.074219 0 22.5 C 0 34.925781 10.074219 45 22.5 45 C 34.925781 45 45 34.925781 45 22.5 C 45 10.074219 34.925781 0 22.5 0 Z M 22.5 0 " clip-rule="nonzero"/></clipPath><clipPath id="5b153447e1"><path d="M 0 0 L 45 0 L 45 45 L 0 45 Z M 0 0 " clip-rule="nonzero"/></clipPath><clipPath id="5c685cfe66"><path d="M 22.5 0 C 10.074219 0 0 10.074219 0 22.5 C 0 34.925781 10.074219 45 22.5 45 C 34.925781 45 45 34.925781 45 22.5 C 45 10.074219 34.925781 0 22.5 0 Z M 22.5 0 " clip-rule="nonzero"/></clipPath><clipPath id="de48bedeb0"><rect x="0" width="45" y="0" height="45"/></clipPath><clipPath id="90559156e3"><path d="M 16.582031 7.425781 L 28.582031 7.425781 L 28.582031 10 L 16.582031 10 Z M 16.582031 7.425781 " clip-rule="nonzero"/></clipPath><clipPath id="f010456db4"><path d="M 16.582031 35 L 28.582031 35 L 28.582031 37.425781 L 16.582031 37.425781 Z M 16.582031 35 " clip-rule="nonzero"/></clipPath></defs><rect x="-4.5" width="54" fill="#ffffff" y="-4.5" height="53.999999" fill-opacity="1"/><rect x="-4.5" width="54" fill="#ffffff" y="-4.5" height="53.999999" fill-opacity="1"/><g clip-path="url(#c96e993493)"><g transform="matrix(1, 0, 0, 1, 0, 0)"><g clip-path="url(#de48bedeb0)"><g clip-path="url(#5b153447e1)"><g clip-path="url(#5c685cfe66)"><rect x="-9.9" width="64.8" fill="#ec2228" height="64.799999" y="-9.9" fill-opacity="1"/></g></g></g></g></g><path fill="#ffffff" d="M 26.75 29.625 C 26.96875 29.40625 27.082031 29.113281 27.082031 28.824219 C 27.082031 28.535156 26.96875 28.242188 26.746094 28.019531 C 26.304688 27.578125 25.585938 27.578125 25.144531 28.019531 L 23.628906 29.535156 L 23.628906 15.453125 L 25.144531 16.96875 C 25.585938 17.410156 26.304688 17.410156 26.746094 16.96875 C 27.191406 16.523438 27.191406 15.808594 26.746094 15.363281 L 23.296875 11.914062 C 22.851562 11.46875 22.132812 11.46875 21.691406 11.914062 L 18.238281 15.363281 C 18.015625 15.585938 17.90625 15.875 17.90625 16.167969 C 17.90625 16.457031 18.015625 16.746094 18.238281 16.96875 C 18.683594 17.414062 19.402344 17.410156 19.84375 16.96875 L 21.359375 15.453125 L 21.359375 29.535156 L 19.84375 28.019531 C 19.398438 27.578125 18.683594 27.578125 18.238281 28.019531 C 17.796875 28.464844 17.796875 29.183594 18.238281 29.625 L 21.691406 33.078125 C 22.132812 33.523438 22.851562 33.523438 23.296875 33.078125 Z M 26.75 29.625 " fill-opacity="1" fill-rule="nonzero"/><g clip-path="url(#90559156e3)"><path fill="#ffffff" d="M 28.582031 9.214844 L 28.582031 7.914062 C 28.582031 7.648438 28.363281 7.429688 28.097656 7.429688 L 16.890625 7.429688 C 16.621094 7.429688 16.40625 7.648438 16.40625 7.914062 L 16.40625 9.214844 C 16.40625 9.484375 16.621094 9.699219 16.890625 9.699219 L 28.097656 9.699219 C 28.363281 9.699219 28.582031 9.484375 28.582031 9.214844 Z M 28.582031 9.214844 " fill-opacity="1" fill-rule="nonzero"/></g><g clip-path="url(#f010456db4)"><path fill="#ffffff" d="M 28.582031 37.078125 L 28.582031 35.773438 C 28.582031 35.507812 28.363281 35.289062 28.097656 35.289062 L 16.890625 35.289062 C 16.621094 35.289062 16.40625 35.507812 16.40625 35.773438 L 16.40625 37.078125 C 16.40625 37.34375 16.621094 37.558594 16.890625 37.558594 L 28.097656 37.558594 C 28.363281 37.558594 28.582031 37.34375 28.582031 37.078125 Z M 28.582031 37.078125 " fill-opacity="1" fill-rule="nonzero"/></g></svg>