<svg xmlns="http://www.w3.org/2000/svg" xmlns:xlink="http://www.w3.org/1999/xlink" width="60" zoomAndPan="magnify" viewBox="0 0 45 44.999999" height="60" preserveAspectRatio="xMidYMid meet" version="1.0"><defs><clipPath id="bcf660a3e4"><path d="M 22.5 0 C 10.074219 0 0 10.074219 0 22.5 C 0 34.925781 10.074219 45 22.5 45 C 34.925781 45 45 34.925781 45 22.5 C 45 10.074219 34.925781 0 22.5 0 Z M 22.5 0 " clip-rule="nonzero"/></clipPath><clipPath id="ab1516fb7b"><path d="M 0 0 L 45 0 L 45 45 L 0 45 Z M 0 0 " clip-rule="nonzero"/></clipPath><clipPath id="7f481bd9fa"><path d="M 22.5 0 C 10.074219 0 0 10.074219 0 22.5 C 0 34.925781 10.074219 45 22.5 45 C 34.925781 45 45 34.925781 45 22.5 C 45 10.074219 34.925781 0 22.5 0 Z M 22.5 0 " clip-rule="nonzero"/></clipPath><clipPath id="c61cab425d"><rect x="0" width="45" y="0" height="45"/></clipPath><clipPath id="f03bb06125"><path d="M 34 14.886719 L 37.710938 14.886719 L 37.710938 20 L 34 20 Z M 34 14.886719 " clip-rule="nonzero"/></clipPath><clipPath id="b460fdc883"><path d="M 6.960938 14.886719 L 11 14.886719 L 11 20 L 6.960938 20 Z M 6.960938 14.886719 " clip-rule="nonzero"/></clipPath><clipPath id="9d5aefcf88"><path d="M 7 21 L 37.710938 21 L 37.710938 29.886719 L 7 29.886719 Z M 7 21 " clip-rule="nonzero"/></clipPath><clipPath id="d9e274cabd"><path d="M 9 25 L 11 25 L 11 29.886719 L 9 29.886719 Z M 9 25 " clip-rule="nonzero"/></clipPath><clipPath id="69218b3201"><path d="M 12 27 L 14 27 L 14 29.886719 L 12 29.886719 Z M 12 27 " clip-rule="nonzero"/></clipPath><clipPath id="371bc2c852"><path d="M 16 25 L 18 25 L 18 29.886719 L 16 29.886719 Z M 16 25 " clip-rule="nonzero"/></clipPath><clipPath id="f0828fbf6b"><path d="M 20 27 L 22 27 L 22 29.886719 L 20 29.886719 Z M 20 27 " clip-rule="nonzero"/></clipPath><clipPath id="3b172adb3d"><path d="M 23 25 L 25 25 L 25 29.886719 L 23 29.886719 Z M 23 25 " clip-rule="nonzero"/></clipPath><clipPath id="130dea761c"><path d="M 27 27 L 29 27 L 29 29.886719 L 27 29.886719 Z M 27 27 " clip-rule="nonzero"/></clipPath><clipPath id="3b5dee1335"><path d="M 31 25 L 33 25 L 33 29.886719 L 31 29.886719 Z M 31 25 " clip-rule="nonzero"/></clipPath><clipPath id="d4bb2026cc"><path d="M 34 25 L 36 25 L 36 29.886719 L 34 29.886719 Z M 34 25 " clip-rule="nonzero"/></clipPath></defs><rect x="-4.5" width="54" fill="#ffffff" y="-4.5" height="53.999999" fill-opacity="1"/><rect x="-4.5" width="54" fill="#ffffff" y="-4.5" height="53.999999" fill-opacity="1"/><g clip-path="url(#bcf660a3e4)"><g transform="matrix(1, 0, 0, 1, 0, 0)"><g clip-path="url(#c61cab425d)"><g clip-path="url(#ab1516fb7b)"><g clip-path="url(#7f481bd9fa)"><rect x="-9.9" width="64.8" fill="#ec2228" height="64.799999" y="-9.9" fill-opacity="1"/></g></g></g></g></g><path fill="#ffffff" d="M 34.667969 17.558594 L 10.324219 17.558594 C 10.179688 17.558594 10.054688 17.507812 9.953125 17.40625 C 9.851562 17.304688 9.800781 17.183594 9.800781 17.039062 C 9.800781 16.894531 9.851562 16.769531 9.953125 16.667969 C 10.054688 16.566406 10.179688 16.515625 10.324219 16.515625 L 34.667969 16.515625 C 34.8125 16.515625 34.933594 16.566406 35.035156 16.667969 C 35.136719 16.769531 35.1875 16.894531 35.1875 17.039062 C 35.1875 17.183594 35.136719 17.304688 35.035156 17.40625 C 34.933594 17.507812 34.8125 17.558594 34.667969 17.558594 Z M 34.667969 17.558594 " fill-opacity="1" fill-rule="nonzero"/><g clip-path="url(#f03bb06125)"><path fill="#ffffff" d="M 34.667969 19.1875 C 34.523438 19.1875 34.398438 19.136719 34.296875 19.035156 C 34.195312 18.933594 34.144531 18.808594 34.144531 18.664062 L 34.144531 15.40625 C 34.144531 15.203125 34.230469 15.054688 34.40625 14.953125 C 34.578125 14.851562 34.753906 14.851562 34.925781 14.953125 L 37.75 16.582031 C 37.925781 16.683594 38.011719 16.835938 38.011719 17.035156 C 38.011719 17.234375 37.925781 17.386719 37.75 17.488281 L 34.925781 19.117188 C 34.847656 19.164062 34.761719 19.1875 34.667969 19.1875 Z M 35.1875 16.308594 L 35.1875 17.761719 L 36.445312 17.035156 Z M 35.1875 16.308594 " fill-opacity="1" fill-rule="nonzero"/></g><g clip-path="url(#b460fdc883)"><path fill="#ffffff" d="M 10.324219 19.1875 C 10.230469 19.1875 10.144531 19.164062 10.0625 19.117188 L 7.238281 17.488281 C 7.066406 17.386719 6.980469 17.234375 6.980469 17.035156 C 6.980469 16.835938 7.066406 16.683594 7.238281 16.582031 L 10.0625 14.953125 C 10.238281 14.851562 10.410156 14.851562 10.585938 14.953125 C 10.757812 15.054688 10.84375 15.203125 10.84375 15.40625 L 10.84375 18.664062 C 10.84375 18.808594 10.792969 18.933594 10.691406 19.035156 C 10.589844 19.136719 10.46875 19.1875 10.324219 19.1875 Z M 8.542969 17.035156 L 9.800781 17.761719 L 9.800781 16.308594 Z M 8.542969 17.035156 " fill-opacity="1" fill-rule="nonzero"/></g><g clip-path="url(#9d5aefcf88)"><path fill="#ffffff" d="M 37.460938 30.105469 L 7.527344 30.105469 C 7.382812 30.105469 7.261719 30.054688 7.160156 29.953125 C 7.058594 29.851562 7.007812 29.726562 7.007812 29.582031 L 7.007812 22.109375 C 7.007812 21.964844 7.058594 21.839844 7.160156 21.738281 C 7.261719 21.636719 7.382812 21.585938 7.527344 21.585938 L 37.460938 21.585938 C 37.605469 21.585938 37.730469 21.636719 37.832031 21.738281 C 37.933594 21.839844 37.984375 21.964844 37.984375 22.109375 L 37.984375 29.582031 C 37.984375 29.726562 37.933594 29.851562 37.832031 29.953125 C 37.730469 30.054688 37.605469 30.105469 37.460938 30.105469 Z M 8.050781 29.0625 L 36.941406 29.0625 L 36.941406 22.628906 L 8.050781 22.628906 Z M 8.050781 29.0625 " fill-opacity="1" fill-rule="nonzero"/></g><g clip-path="url(#d9e274cabd)"><path fill="#ffffff" d="M 9.722656 30.105469 C 9.578125 30.105469 9.457031 30.054688 9.355469 29.953125 C 9.253906 29.851562 9.203125 29.726562 9.203125 29.582031 L 9.203125 26.519531 C 9.203125 26.375 9.253906 26.253906 9.355469 26.152344 C 9.457031 26.050781 9.578125 25.996094 9.722656 25.996094 C 9.867188 25.996094 9.992188 26.050781 10.09375 26.152344 C 10.195312 26.253906 10.246094 26.375 10.246094 26.519531 L 10.246094 29.582031 C 10.246094 29.726562 10.195312 29.851562 10.09375 29.953125 C 9.992188 30.054688 9.867188 30.105469 9.722656 30.105469 Z M 9.722656 30.105469 " fill-opacity="1" fill-rule="nonzero"/></g><g clip-path="url(#69218b3201)"><path fill="#ffffff" d="M 13.371094 30.105469 C 13.230469 30.105469 13.105469 30.054688 13.003906 29.953125 C 12.902344 29.851562 12.851562 29.726562 12.851562 29.582031 L 12.851562 27.839844 C 12.851562 27.695312 12.902344 27.574219 13.003906 27.472656 C 13.105469 27.371094 13.230469 27.320312 13.371094 27.320312 C 13.515625 27.320312 13.640625 27.371094 13.742188 27.472656 C 13.84375 27.574219 13.894531 27.695312 13.894531 27.839844 L 13.894531 29.585938 C 13.894531 29.726562 13.84375 29.851562 13.742188 29.953125 C 13.640625 30.054688 13.515625 30.105469 13.371094 30.105469 Z M 13.371094 30.105469 " fill-opacity="1" fill-rule="nonzero"/></g><g clip-path="url(#371bc2c852)"><path fill="#ffffff" d="M 17.019531 30.105469 C 16.875 30.105469 16.753906 30.054688 16.648438 29.953125 C 16.546875 29.851562 16.496094 29.726562 16.496094 29.582031 L 16.496094 26.519531 C 16.496094 26.375 16.546875 26.253906 16.648438 26.152344 C 16.753906 26.050781 16.875 25.996094 17.019531 25.996094 C 17.164062 25.996094 17.285156 26.050781 17.386719 26.152344 C 17.488281 26.253906 17.539062 26.375 17.539062 26.519531 L 17.539062 29.582031 C 17.539062 29.726562 17.488281 29.851562 17.386719 29.953125 C 17.285156 30.054688 17.164062 30.105469 17.019531 30.105469 Z M 17.019531 30.105469 " fill-opacity="1" fill-rule="nonzero"/></g><g clip-path="url(#f0828fbf6b)"><path fill="#ffffff" d="M 20.667969 30.105469 C 20.527344 30.105469 20.402344 30.054688 20.300781 29.953125 C 20.199219 29.851562 20.148438 29.726562 20.148438 29.582031 L 20.148438 27.839844 C 20.148438 27.695312 20.199219 27.574219 20.300781 27.472656 C 20.402344 27.371094 20.527344 27.320312 20.667969 27.320312 C 20.8125 27.320312 20.9375 27.371094 21.039062 27.472656 C 21.140625 27.574219 21.191406 27.695312 21.191406 27.839844 L 21.191406 29.585938 C 21.191406 29.726562 21.140625 29.851562 21.039062 29.953125 C 20.9375 30.054688 20.8125 30.105469 20.667969 30.105469 Z M 20.667969 30.105469 " fill-opacity="1" fill-rule="nonzero"/></g><g clip-path="url(#3b172adb3d)"><path fill="#ffffff" d="M 24.320312 30.105469 C 24.175781 30.105469 24.054688 30.054688 23.953125 29.953125 C 23.851562 29.851562 23.800781 29.726562 23.800781 29.582031 L 23.800781 26.519531 C 23.800781 26.375 23.851562 26.253906 23.953125 26.152344 C 24.054688 26.050781 24.175781 25.996094 24.320312 25.996094 C 24.464844 25.996094 24.585938 26.050781 24.6875 26.152344 C 24.792969 26.253906 24.84375 26.375 24.84375 26.519531 L 24.84375 29.582031 C 24.84375 29.726562 24.792969 29.851562 24.6875 29.953125 C 24.585938 30.054688 24.464844 30.105469 24.320312 30.105469 Z M 24.320312 30.105469 " fill-opacity="1" fill-rule="nonzero"/></g><g clip-path="url(#130dea761c)"><path fill="#ffffff" d="M 27.972656 30.105469 C 27.828125 30.105469 27.703125 30.054688 27.601562 29.953125 C 27.5 29.851562 27.449219 29.726562 27.449219 29.582031 L 27.449219 27.839844 C 27.449219 27.695312 27.5 27.574219 27.601562 27.472656 C 27.703125 27.371094 27.828125 27.320312 27.972656 27.320312 C 28.117188 27.320312 28.238281 27.371094 28.339844 27.472656 C 28.441406 27.574219 28.492188 27.695312 28.492188 27.839844 L 28.492188 29.585938 C 28.492188 29.726562 28.441406 29.851562 28.339844 29.953125 C 28.238281 30.054688 28.117188 30.105469 27.972656 30.105469 Z M 27.972656 30.105469 " fill-opacity="1" fill-rule="nonzero"/></g><g clip-path="url(#3b5dee1335)"><path fill="#ffffff" d="M 31.617188 30.105469 C 31.472656 30.105469 31.351562 30.054688 31.25 29.953125 C 31.148438 29.851562 31.097656 29.726562 31.097656 29.582031 L 31.097656 26.519531 C 31.097656 26.375 31.148438 26.253906 31.25 26.152344 C 31.351562 26.050781 31.472656 25.996094 31.617188 25.996094 C 31.761719 25.996094 31.882812 26.050781 31.988281 26.152344 C 32.089844 26.253906 32.140625 26.375 32.140625 26.519531 L 32.140625 29.582031 C 32.140625 29.726562 32.089844 29.851562 31.988281 29.953125 C 31.882812 30.054688 31.761719 30.105469 31.617188 30.105469 Z M 31.617188 30.105469 " fill-opacity="1" fill-rule="nonzero"/></g><g clip-path="url(#d4bb2026cc)"><path fill="#ffffff" d="M 35.265625 30.105469 C 35.121094 30.105469 35 30.054688 34.898438 29.953125 C 34.796875 29.851562 34.746094 29.726562 34.746094 29.582031 L 34.746094 26.519531 C 34.746094 26.375 34.796875 26.253906 34.898438 26.152344 C 35 26.050781 35.121094 25.996094 35.265625 25.996094 C 35.410156 25.996094 35.535156 26.050781 35.636719 26.152344 C 35.738281 26.253906 35.789062 26.375 35.789062 26.519531 L 35.789062 29.582031 C 35.789062 29.726562 35.738281 29.851562 35.636719 29.953125 C 35.535156 30.054688 35.410156 30.105469 35.265625 30.105469 Z M 35.265625 30.105469 " fill-opacity="1" fill-rule="nonzero"/></g></svg>