<svg xmlns="http://www.w3.org/2000/svg" xmlns:xlink="http://www.w3.org/1999/xlink" width="60" zoomAndPan="magnify" viewBox="0 0 45 44.999999" height="60" preserveAspectRatio="xMidYMid meet" version="1.0"><defs><clipPath id="8b4da4073f"><path d="M 22.5 0 C 10.074219 0 0 10.074219 0 22.5 C 0 34.925781 10.074219 45 22.5 45 C 34.925781 45 45 34.925781 45 22.5 C 45 10.074219 34.925781 0 22.5 0 Z M 22.5 0 " clip-rule="nonzero"/></clipPath><clipPath id="252e4bff90"><path d="M 0 0 L 45 0 L 45 45 L 0 45 Z M 0 0 " clip-rule="nonzero"/></clipPath><clipPath id="6fdb090112"><path d="M 22.5 0 C 10.074219 0 0 10.074219 0 22.5 C 0 34.925781 10.074219 45 22.5 45 C 34.925781 45 45 34.925781 45 22.5 C 45 10.074219 34.925781 0 22.5 0 Z M 22.5 0 " clip-rule="nonzero"/></clipPath><clipPath id="2177128f76"><rect x="0" width="45" y="0" height="45"/></clipPath><clipPath id="5fd7a0aca1"><path d="M 8.625 25 L 30 25 L 30 29 L 8.625 29 Z M 8.625 25 " clip-rule="nonzero"/></clipPath><clipPath id="468469a23e"><path d="M 8.625 14 L 25 14 L 25 19 L 8.625 19 Z M 8.625 14 " clip-rule="nonzero"/></clipPath><clipPath id="5af1ba96f0"><path d="M 23 10 L 34.125 10 L 34.125 18 L 23 18 Z M 23 10 " clip-rule="nonzero"/></clipPath><clipPath id="dcd6e1b42b"><path d="M 23 28 L 34.125 28 L 34.125 35 L 23 35 Z M 23 28 " clip-rule="nonzero"/></clipPath><clipPath id="36275f8007"><path d="M 26 13 L 34.125 13 L 34.125 32 L 26 32 Z M 26 13 " clip-rule="nonzero"/></clipPath></defs><rect x="-4.5" width="54" fill="#ffffff" y="-4.5" height="53.999999" fill-opacity="1"/><rect x="-4.5" width="54" fill="#ffffff" y="-4.5" height="53.999999" fill-opacity="1"/><g clip-path="url(#8b4da4073f)"><g transform="matrix(1, 0, 0, 1, 0, 0)"><g clip-path="url(#2177128f76)"><g clip-path="url(#252e4bff90)"><g clip-path="url(#6fdb090112)"><rect x="-9.9" width="64.8" fill="#ec2228" height="64.799999" y="-9.9" fill-opacity="1"/></g></g></g></g></g><path fill="#ffffff" d="M 28.265625 20.585938 L 23.082031 20.585938 C 22.929688 20.585938 22.808594 20.464844 22.808594 20.3125 C 22.808594 20.164062 22.929688 20.039062 23.082031 20.039062 L 28.265625 20.039062 C 28.867188 20.039062 29.355469 19.550781 29.355469 18.949219 C 29.355469 18.347656 28.867188 17.859375 28.265625 17.859375 L 19.808594 17.859375 C 19.65625 17.859375 19.535156 17.734375 19.535156 17.585938 C 19.535156 17.433594 19.65625 17.3125 19.808594 17.3125 L 28.265625 17.3125 C 29.167969 17.3125 29.902344 18.046875 29.902344 18.949219 C 29.902344 19.851562 29.167969 20.585938 28.265625 20.585938 Z M 28.265625 20.585938 " fill-opacity="1" fill-rule="nonzero"/><path fill="#ffffff" d="M 28.265625 23.3125 L 23.082031 23.3125 C 22.929688 23.3125 22.808594 23.191406 22.808594 23.039062 C 22.808594 22.890625 22.929688 22.769531 23.082031 22.769531 L 28.265625 22.769531 C 28.867188 22.769531 29.355469 22.277344 29.355469 21.675781 C 29.355469 21.074219 28.867188 20.585938 28.265625 20.585938 C 28.113281 20.585938 27.992188 20.464844 27.992188 20.3125 C 27.992188 20.164062 28.113281 20.039062 28.265625 20.039062 C 29.167969 20.039062 29.902344 20.773438 29.902344 21.675781 C 29.902344 22.578125 29.167969 23.3125 28.265625 23.3125 Z M 28.265625 23.3125 " fill-opacity="1" fill-rule="nonzero"/><path fill="#ffffff" d="M 28.265625 26.042969 L 23.082031 26.042969 C 22.929688 26.042969 22.808594 25.917969 22.808594 25.769531 C 22.808594 25.617188 22.929688 25.496094 23.082031 25.496094 L 28.265625 25.496094 C 28.867188 25.496094 29.355469 25.007812 29.355469 24.40625 C 29.355469 23.804688 28.867188 23.3125 28.265625 23.3125 C 28.113281 23.3125 27.992188 23.191406 27.992188 23.039062 C 27.992188 22.890625 28.113281 22.769531 28.265625 22.769531 C 29.167969 22.769531 29.902344 23.503906 29.902344 24.40625 C 29.902344 25.308594 29.167969 26.042969 28.265625 26.042969 Z M 28.265625 26.042969 " fill-opacity="1" fill-rule="nonzero"/><g clip-path="url(#5fd7a0aca1)"><path fill="#ffffff" d="M 28.1875 28.769531 L 17.625 28.769531 C 16.46875 28.769531 15.328125 28.453125 14.335938 27.859375 L 14.230469 27.792969 C 13.507812 27.359375 12.683594 27.132812 11.84375 27.132812 L 8.898438 27.132812 C 8.746094 27.132812 8.625 27.011719 8.625 26.859375 C 8.625 26.707031 8.746094 26.585938 8.898438 26.585938 L 11.84375 26.585938 C 12.78125 26.585938 13.703125 26.84375 14.511719 27.324219 L 14.617188 27.390625 C 15.523438 27.933594 16.566406 28.222656 17.625 28.222656 L 28.1875 28.222656 C 28.785156 28.222656 29.296875 27.792969 29.351562 27.246094 C 29.382812 26.933594 29.285156 26.632812 29.074219 26.402344 C 28.867188 26.171875 28.574219 26.042969 28.265625 26.042969 C 28.113281 26.042969 27.992188 25.917969 27.992188 25.769531 C 27.992188 25.617188 28.113281 25.496094 28.265625 25.496094 C 28.726562 25.496094 29.167969 25.691406 29.480469 26.035156 C 29.789062 26.375 29.9375 26.839844 29.894531 27.300781 C 29.808594 28.125 29.0625 28.769531 28.1875 28.769531 Z M 28.1875 28.769531 " fill-opacity="1" fill-rule="nonzero"/></g><g clip-path="url(#468469a23e)"><path fill="#ffffff" d="M 10.484375 18.402344 L 8.898438 18.402344 C 8.746094 18.402344 8.625 18.28125 8.625 18.132812 C 8.625 17.980469 8.746094 17.859375 8.898438 17.859375 L 10.484375 17.859375 C 11.132812 17.859375 11.757812 17.652344 12.289062 17.261719 C 13.90625 16.058594 17.109375 14.039062 20.355469 14.039062 L 24.085938 14.039062 C 24.238281 14.039062 24.359375 14.160156 24.359375 14.3125 C 24.359375 14.464844 24.238281 14.585938 24.085938 14.585938 L 20.355469 14.585938 C 17.265625 14.585938 14.175781 16.535156 12.613281 17.699219 C 11.984375 18.160156 11.25 18.402344 10.484375 18.402344 Z M 10.484375 18.402344 " fill-opacity="1" fill-rule="nonzero"/></g><g clip-path="url(#5af1ba96f0)"><path fill="#ffffff" d="M 23.628906 17.859375 C 23.476562 17.859375 23.355469 17.734375 23.355469 17.585938 L 23.355469 16.496094 C 23.355469 15.695312 23.515625 14.921875 23.835938 14.203125 C 24.746094 12.117188 26.804688 10.765625 29.082031 10.765625 L 33.992188 10.765625 C 34.144531 10.765625 34.265625 10.886719 34.265625 11.039062 C 34.265625 11.191406 34.144531 11.3125 33.992188 11.3125 L 29.082031 11.3125 C 27.023438 11.3125 25.160156 12.53125 24.335938 14.421875 C 24.046875 15.074219 23.898438 15.773438 23.898438 16.496094 L 23.898438 17.585938 C 23.898438 17.734375 23.777344 17.859375 23.628906 17.859375 Z M 23.628906 17.859375 " fill-opacity="1" fill-rule="nonzero"/></g><g clip-path="url(#dcd6e1b42b)"><path fill="#ffffff" d="M 33.992188 34.222656 L 29.082031 34.222656 C 25.925781 34.222656 23.355469 31.65625 23.355469 28.496094 C 23.355469 28.34375 23.476562 28.222656 23.628906 28.222656 C 23.777344 28.222656 23.898438 28.34375 23.898438 28.496094 C 23.898438 31.355469 26.226562 33.679688 29.082031 33.679688 L 33.992188 33.679688 C 34.144531 33.679688 34.265625 33.800781 34.265625 33.953125 C 34.265625 34.101562 34.144531 34.222656 33.992188 34.222656 Z M 33.992188 34.222656 " fill-opacity="1" fill-rule="nonzero"/></g><g clip-path="url(#36275f8007)"><path fill="#ffffff" d="M 33.992188 31.496094 L 29.082031 31.496094 C 27.429688 31.496094 26.082031 30.152344 26.082031 28.496094 C 26.082031 28.34375 26.203125 28.222656 26.355469 28.222656 C 26.507812 28.222656 26.628906 28.34375 26.628906 28.496094 C 26.628906 29.851562 27.730469 30.953125 29.082031 30.953125 L 33.71875 30.953125 L 33.71875 14.039062 L 29.082031 14.039062 C 27.730469 14.039062 26.628906 15.140625 26.628906 16.496094 L 26.628906 17.585938 C 26.628906 17.734375 26.507812 17.859375 26.355469 17.859375 C 26.203125 17.859375 26.082031 17.734375 26.082031 17.585938 L 26.082031 16.496094 C 26.082031 14.839844 27.429688 13.492188 29.082031 13.492188 L 33.992188 13.492188 C 34.144531 13.492188 34.265625 13.617188 34.265625 13.765625 L 34.265625 31.222656 C 34.265625 31.375 34.144531 31.496094 33.992188 31.496094 Z M 33.992188 31.496094 " fill-opacity="1" fill-rule="nonzero"/></g></svg>