<svg xmlns="http://www.w3.org/2000/svg" xmlns:xlink="http://www.w3.org/1999/xlink" width="60" zoomAndPan="magnify" viewBox="0 0 45 44.999999" height="60" preserveAspectRatio="xMidYMid meet" version="1.0"><defs><clipPath id="40780391c8"><path d="M 22.5 0 C 10.074219 0 0 10.074219 0 22.5 C 0 34.925781 10.074219 45 22.5 45 C 34.925781 45 45 34.925781 45 22.5 C 45 10.074219 34.925781 0 22.5 0 Z M 22.5 0 " clip-rule="nonzero"/></clipPath><clipPath id="cebcab8336"><path d="M 0 0 L 45 0 L 45 45 L 0 45 Z M 0 0 " clip-rule="nonzero"/></clipPath><clipPath id="40702ee8f8"><path d="M 22.5 0 C 10.074219 0 0 10.074219 0 22.5 C 0 34.925781 10.074219 45 22.5 45 C 34.925781 45 45 34.925781 45 22.5 C 45 10.074219 34.925781 0 22.5 0 Z M 22.5 0 " clip-rule="nonzero"/></clipPath><clipPath id="2a68d12330"><rect x="0" width="45" y="0" height="45"/></clipPath><clipPath id="7cb54a838c"><path d="M 2.402344 7.101562 L 37.652344 7.101562 L 37.652344 37.851562 L 2.402344 37.851562 Z M 2.402344 7.101562 " clip-rule="nonzero"/></clipPath></defs><rect x="-4.5" width="54" fill="#ffffff" y="-4.5" height="53.999999" fill-opacity="1"/><rect x="-4.5" width="54" fill="#ffffff" y="-4.5" height="53.999999" fill-opacity="1"/><g clip-path="url(#40780391c8)"><g transform="matrix(1, 0, 0, 1, 0, 0)"><g clip-path="url(#2a68d12330)"><g clip-path="url(#cebcab8336)"><g clip-path="url(#40702ee8f8)"><rect x="-9.9" width="64.8" fill="#ec2228" height="64.799999" y="-9.9" fill-opacity="1"/></g></g></g></g></g><g clip-path="url(#7cb54a838c)"><path fill="#ffffff" d="M 21.179688 8.867188 C 21.414062 8.867188 21.601562 9.054688 21.601562 9.285156 L 21.601562 11.121094 C 21.851562 11.105469 22.101562 11.097656 22.355469 11.097656 C 22.609375 11.097656 22.859375 11.105469 23.109375 11.121094 L 23.109375 9.285156 C 23.109375 9.054688 23.296875 8.867188 23.527344 8.867188 L 24.390625 8.867188 L 24.390625 7.945312 L 20.320312 7.945312 L 20.320312 8.867188 Z M 20.761719 11.210938 L 20.761719 9.707031 L 19.902344 9.707031 C 19.667969 9.707031 19.480469 9.519531 19.480469 9.285156 L 19.480469 7.523438 C 19.480469 7.292969 19.667969 7.105469 19.902344 7.105469 L 24.808594 7.105469 C 25.039062 7.105469 25.230469 7.292969 25.230469 7.523438 L 25.230469 9.285156 C 25.230469 9.519531 25.039062 9.707031 24.808594 9.707031 L 23.949219 9.707031 L 23.949219 11.210938 C 25.015625 11.359375 26.03125 11.660156 26.980469 12.089844 L 27.652344 10.929688 C 27.765625 10.726562 28.023438 10.660156 28.222656 10.773438 L 29.910156 11.75 C 30.109375 11.863281 30.175781 12.121094 30.0625 12.320312 L 29.355469 13.546875 C 29.679688 13.808594 29.992188 14.085938 30.289062 14.382812 C 32.320312 16.414062 33.578125 19.21875 33.578125 22.320312 C 33.578125 22.792969 33.546875 23.269531 33.484375 23.746094 C 33.441406 24.097656 33.378906 24.441406 33.304688 24.78125 C 33.582031 24.898438 33.855469 25.03125 34.113281 25.183594 L 34.101562 25.125 C 34.066406 24.894531 34.222656 24.683594 34.449219 24.644531 C 34.679688 24.609375 34.894531 24.765625 34.929688 24.992188 L 35.09375 26.003906 C 35.113281 26.121094 35.089844 26.246094 35.007812 26.347656 C 34.9375 26.433594 34.839844 26.488281 34.738281 26.5 L 33.667969 26.648438 C 33.4375 26.679688 33.226562 26.519531 33.195312 26.292969 C 33.164062 26.070312 33.316406 25.863281 33.539062 25.824219 C 33.257812 25.667969 32.960938 25.535156 32.65625 25.429688 C 32.035156 25.210938 31.363281 25.089844 30.664062 25.089844 C 29.015625 25.089844 27.519531 25.757812 26.4375 26.839844 C 25.355469 27.925781 24.683594 29.417969 24.683594 31.070312 C 24.683594 31.769531 24.804688 32.441406 25.023438 33.058594 C 25.25 33.707031 25.585938 34.300781 26.007812 34.824219 C 26.152344 35.003906 26.125 35.269531 25.941406 35.414062 C 25.761719 35.558594 25.5 35.527344 25.355469 35.347656 C 24.882812 34.765625 24.503906 34.101562 24.246094 33.378906 C 23.996094 33.421875 23.746094 33.457031 23.492188 33.480469 C 23.109375 33.519531 22.730469 33.539062 22.355469 33.539062 C 19.253906 33.539062 16.449219 32.285156 14.417969 30.253906 C 14.191406 30.027344 13.972656 29.789062 13.765625 29.542969 L 14.898438 29.542969 C 14.9375 29.582031 14.972656 29.621094 15.011719 29.660156 C 16.890625 31.539062 19.488281 32.699219 22.355469 32.699219 C 22.71875 32.699219 23.070312 32.683594 23.410156 32.648438 C 23.613281 32.628906 23.8125 32.601562 24.011719 32.570312 C 23.929688 32.214844 23.878906 31.847656 23.855469 31.472656 C 23.695312 31.5 23.527344 31.523438 23.363281 31.539062 C 23.023438 31.574219 22.6875 31.59375 22.355469 31.59375 C 19.792969 31.59375 17.472656 30.554688 15.796875 28.878906 C 14.90625 27.988281 14.195312 26.917969 13.722656 25.726562 L 14.632812 25.726562 C 15.058594 26.6875 15.65625 27.550781 16.390625 28.285156 C 17.914062 29.808594 20.023438 30.753906 22.355469 30.753906 C 22.671875 30.753906 22.976562 30.738281 23.273438 30.707031 C 23.46875 30.683594 23.664062 30.65625 23.859375 30.621094 C 23.96875 28.917969 24.707031 27.382812 25.84375 26.246094 C 27.054688 25.035156 28.726562 24.277344 30.570312 24.25 C 30.632812 23.992188 30.679688 23.726562 30.714844 23.453125 C 30.765625 23.089844 30.789062 22.710938 30.789062 22.320312 C 30.789062 19.988281 29.847656 17.878906 28.320312 16.351562 C 26.792969 14.828125 24.683594 13.882812 22.355469 13.882812 C 20.023438 13.882812 17.914062 14.828125 16.390625 16.351562 C 15.421875 17.316406 14.691406 18.515625 14.28125 19.855469 L 14.621094 19.855469 C 14.855469 19.855469 15.042969 20.042969 15.042969 20.277344 C 15.042969 20.507812 14.855469 20.695312 14.621094 20.695312 L 2.824219 20.695312 C 2.589844 20.695312 2.402344 20.507812 2.402344 20.277344 C 2.402344 20.042969 2.589844 19.855469 2.824219 19.855469 L 11.402344 19.855469 C 11.601562 18.96875 11.90625 18.117188 12.304688 17.324219 L 13.25 17.324219 C 12.816406 18.109375 12.484375 18.960938 12.265625 19.855469 L 13.410156 19.855469 C 13.839844 18.285156 14.675781 16.878906 15.796875 15.757812 C 17.472656 14.082031 19.792969 13.042969 22.355469 13.042969 C 24.914062 13.042969 27.234375 14.082031 28.914062 15.757812 C 30.59375 17.4375 31.628906 19.757812 31.628906 22.320312 C 31.628906 22.734375 31.601562 23.152344 31.546875 23.566406 C 31.511719 23.808594 31.472656 24.050781 31.417969 24.292969 C 31.792969 24.332031 32.15625 24.402344 32.507812 24.503906 C 32.570312 24.21875 32.617188 23.929688 32.65625 23.640625 C 32.707031 23.214844 32.738281 22.773438 32.738281 22.320312 C 32.738281 19.453125 31.574219 16.855469 29.695312 14.976562 C 27.816406 13.097656 25.222656 11.9375 22.355469 11.9375 C 19.488281 11.9375 16.890625 13.097656 15.011719 14.976562 C 14.785156 15.207031 14.566406 15.445312 14.359375 15.691406 C 14.492188 15.765625 14.582031 15.902344 14.582031 16.0625 C 14.582031 16.292969 14.394531 16.484375 14.160156 16.484375 L 6.15625 16.484375 C 5.921875 16.484375 5.734375 16.292969 5.734375 16.0625 C 5.734375 15.832031 5.921875 15.644531 6.15625 15.644531 L 13.332031 15.644531 C 13.664062 15.195312 14.027344 14.777344 14.417969 14.382812 C 14.714844 14.085938 15.027344 13.808594 15.355469 13.546875 L 14.660156 12.339844 L 14.648438 12.320312 C 14.53125 12.121094 14.601562 11.863281 14.800781 11.75 L 16.484375 10.773438 C 16.683594 10.660156 16.941406 10.726562 17.058594 10.929688 L 17.730469 12.089844 C 18.675781 11.660156 19.695312 11.359375 20.761719 11.210938 Z M 12.597656 27.863281 L 6.195312 27.863281 C 5.960938 27.863281 5.773438 28.050781 5.773438 28.28125 C 5.773438 28.515625 5.960938 28.703125 6.195312 28.703125 L 14.199219 28.703125 C 14.433594 28.703125 14.621094 28.515625 14.621094 28.28125 C 14.621094 28.050781 14.433594 27.863281 14.199219 27.863281 L 13.574219 27.863281 C 13.15625 27.199219 12.808594 26.480469 12.542969 25.726562 L 11.660156 25.726562 C 11.898438 26.476562 12.214844 27.191406 12.597656 27.863281 Z M 11.265625 24.046875 L 7.878906 24.046875 C 7.648438 24.046875 7.460938 24.234375 7.460938 24.464844 C 7.460938 24.699219 7.648438 24.886719 7.878906 24.886719 L 14.820312 24.886719 C 15.050781 24.886719 15.238281 24.699219 15.238281 24.464844 C 15.238281 24.234375 15.050781 24.046875 14.820312 24.046875 L 14.09375 24.046875 C 13.980469 23.488281 13.917969 22.910156 13.917969 22.320312 C 13.917969 22.054688 13.929688 21.792969 13.953125 21.535156 L 13.109375 21.535156 C 13.089844 21.792969 13.078125 22.054688 13.078125 22.320312 C 13.078125 22.910156 13.132812 23.488281 13.238281 24.046875 L 12.117188 24.046875 C 12.023438 23.484375 11.972656 22.90625 11.972656 22.320312 C 11.972656 22.054688 11.984375 21.792969 12 21.535156 L 11.160156 21.535156 C 11.140625 21.792969 11.132812 22.054688 11.132812 22.320312 C 11.132812 22.90625 11.179688 23.484375 11.265625 24.046875 Z M 16.03125 13.046875 C 16.335938 12.835938 16.652344 12.644531 16.976562 12.464844 L 16.542969 11.710938 L 15.582031 12.265625 Z M 27.730469 12.464844 C 28.054688 12.644531 28.371094 12.835938 28.675781 13.046875 L 29.125 12.265625 L 28.167969 11.710938 Z M 27.390625 31.527344 L 29.121094 33.660156 C 29.320312 33.90625 29.601562 34.046875 29.894531 34.078125 C 30.183594 34.105469 30.480469 34.027344 30.726562 33.835938 C 30.761719 33.808594 30.796875 33.777344 30.832031 33.746094 C 30.863281 33.714844 30.894531 33.679688 30.925781 33.640625 L 32.210938 32.0625 L 32.65625 31.511719 L 33.941406 29.929688 C 34.140625 29.683594 34.222656 29.382812 34.191406 29.089844 C 34.160156 28.796875 34.019531 28.519531 33.777344 28.320312 L 33.773438 28.316406 C 33.53125 28.117188 33.226562 28.035156 32.933594 28.066406 C 32.640625 28.097656 32.363281 28.238281 32.164062 28.480469 L 32.160156 28.484375 L 30.894531 30.042969 L 30.875 30.0625 L 30.429688 30.613281 L 30.015625 31.121094 L 29.191406 30.105469 C 29.179688 30.085938 29.164062 30.066406 29.144531 30.046875 C 28.945312 29.824219 28.675781 29.691406 28.398438 29.664062 C 28.121094 29.636719 27.832031 29.707031 27.589844 29.886719 C 27.566406 29.902344 27.546875 29.921875 27.523438 29.941406 C 27.300781 30.136719 27.167969 30.40625 27.140625 30.6875 C 27.109375 30.980469 27.191406 31.28125 27.390625 31.527344 Z M 27.972656 30.773438 C 27.964844 30.851562 27.984375 30.933594 28.039062 31 L 29.769531 33.132812 C 29.824219 33.195312 29.902344 33.234375 29.980469 33.242188 C 30.058594 33.25 30.136719 33.230469 30.203125 33.183594 C 30.210938 33.175781 30.21875 33.167969 30.226562 33.164062 C 30.234375 33.15625 30.242188 33.148438 30.25 33.140625 C 30.261719 33.132812 30.269531 33.121094 30.277344 33.113281 L 31.558594 31.535156 L 31.5625 31.535156 L 32.007812 30.980469 L 33.292969 29.402344 C 33.34375 29.335938 33.367188 29.253906 33.359375 29.175781 C 33.351562 29.101562 33.320312 29.03125 33.261719 28.980469 C 33.253906 28.972656 33.242188 28.960938 33.230469 28.953125 C 33.167969 28.910156 33.09375 28.890625 33.019531 28.898438 C 32.945312 28.90625 32.875 28.9375 32.824219 28.992188 C 32.8125 29.007812 32.800781 29.023438 32.789062 29.035156 L 31.542969 30.570312 L 31.523438 30.59375 L 31.523438 30.597656 L 31.523438 30.59375 L 31.078125 31.140625 L 30.347656 32.042969 C 30.328125 32.066406 30.304688 32.089844 30.28125 32.109375 C 30.101562 32.253906 29.835938 32.226562 29.691406 32.050781 L 28.523438 30.609375 L 28.519531 30.609375 C 28.46875 30.542969 28.390625 30.503906 28.3125 30.496094 C 28.234375 30.488281 28.152344 30.507812 28.085938 30.5625 C 28.019531 30.617188 27.980469 30.691406 27.972656 30.773438 Z M 30.878906 30.058594 Z M 35.324219 27.316406 C 35.746094 27.839844 36.082031 28.433594 36.308594 29.082031 C 36.527344 29.703125 36.648438 30.371094 36.648438 31.070312 C 36.648438 32.722656 35.976562 34.21875 34.894531 35.300781 C 33.8125 36.382812 32.316406 37.050781 30.664062 37.050781 C 29.964844 37.050781 29.296875 36.933594 28.675781 36.714844 C 28.371094 36.605469 28.074219 36.472656 27.792969 36.320312 C 28.015625 36.28125 28.167969 36.074219 28.136719 35.851562 C 28.105469 35.621094 27.890625 35.460938 27.664062 35.492188 L 26.59375 35.640625 C 26.492188 35.65625 26.394531 35.707031 26.324219 35.792969 C 26.242188 35.894531 26.214844 36.019531 26.238281 36.136719 L 26.402344 37.148438 C 26.4375 37.375 26.652344 37.53125 26.878906 37.496094 C 27.109375 37.460938 27.265625 37.246094 27.230469 37.015625 L 27.21875 36.957031 C 27.589844 37.175781 27.984375 37.359375 28.398438 37.503906 C 29.109375 37.753906 29.871094 37.890625 30.664062 37.890625 C 32.550781 37.890625 34.253906 37.128906 35.488281 35.894531 C 36.722656 34.660156 37.488281 32.953125 37.488281 31.070312 C 37.488281 30.277344 37.351562 29.515625 37.097656 28.800781 C 36.839844 28.066406 36.457031 27.390625 35.976562 26.792969 C 35.832031 26.613281 35.570312 26.585938 35.386719 26.730469 C 35.207031 26.875 35.179688 27.136719 35.324219 27.316406 Z M 23.257812 23.046875 C 23.417969 22.847656 23.515625 22.59375 23.515625 22.320312 C 23.515625 22 23.386719 21.707031 23.175781 21.5 C 23.0625 21.386719 22.925781 21.296875 22.773438 21.238281 L 22.773438 16.746094 C 22.773438 16.515625 22.585938 16.328125 22.355469 16.328125 C 22.121094 16.328125 21.933594 16.515625 21.933594 16.746094 L 21.933594 21.238281 C 21.785156 21.296875 21.648438 21.386719 21.535156 21.5 C 21.324219 21.707031 21.195312 22 21.195312 22.320312 C 21.195312 22.636719 21.324219 22.925781 21.535156 23.136719 L 21.535156 23.140625 C 21.746094 23.347656 22.035156 23.480469 22.355469 23.480469 C 22.414062 23.480469 22.476562 23.472656 22.535156 23.464844 L 24.050781 26.09375 C 24.167969 26.292969 24.421875 26.363281 24.621094 26.25 C 24.824219 26.132812 24.890625 25.878906 24.777344 25.679688 Z M 22.355469 22 L 22.347656 22 C 22.261719 22 22.183594 22.035156 22.128906 22.089844 L 22.128906 22.09375 C 22.070312 22.148438 22.035156 22.230469 22.035156 22.320312 C 22.035156 22.40625 22.070312 22.488281 22.125 22.546875 L 22.128906 22.546875 C 22.1875 22.601562 22.265625 22.640625 22.355469 22.640625 C 22.445312 22.640625 22.523438 22.601562 22.582031 22.546875 C 22.640625 22.488281 22.675781 22.40625 22.675781 22.320312 C 22.675781 22.230469 22.640625 22.148438 22.582031 22.09375 C 22.523438 22.035156 22.449219 22 22.363281 22 Z M 18.863281 29.203125 L 19.207031 28.605469 C 19.324219 28.40625 19.257812 28.148438 19.054688 28.03125 C 18.855469 27.917969 18.601562 27.984375 18.484375 28.183594 L 18.136719 28.785156 C 18.019531 28.984375 18.089844 29.242188 18.289062 29.355469 C 18.488281 29.472656 18.746094 29.40625 18.863281 29.203125 Z M 26.226562 16.449219 L 26.570312 15.851562 C 26.6875 15.652344 26.617188 15.394531 26.417969 15.28125 C 26.21875 15.164062 25.960938 15.234375 25.847656 15.433594 L 25.5 16.035156 C 25.386719 16.234375 25.453125 16.488281 25.65625 16.605469 C 25.855469 16.71875 26.109375 16.652344 26.226562 16.449219 Z M 15.886719 26.535156 L 16.484375 26.1875 C 16.6875 26.074219 16.753906 25.820312 16.640625 25.617188 C 16.527344 25.417969 16.269531 25.347656 16.070312 25.464844 L 15.46875 25.8125 C 15.269531 25.925781 15.199219 26.179688 15.316406 26.382812 C 15.429688 26.582031 15.6875 26.652344 15.886719 26.535156 Z M 28.640625 19.171875 L 29.238281 18.828125 C 29.4375 18.710938 29.507812 18.457031 29.394531 18.253906 C 29.277344 18.054688 29.023438 17.988281 28.824219 18.101562 L 28.222656 18.449219 C 28.023438 18.5625 27.953125 18.816406 28.070312 19.019531 C 28.183594 19.21875 28.4375 19.289062 28.640625 19.171875 Z M 19.207031 16.03125 L 18.863281 15.433594 C 18.746094 15.230469 18.488281 15.164062 18.289062 15.28125 C 18.089844 15.394531 18.023438 15.652344 18.136719 15.851562 L 18.484375 16.453125 C 18.601562 16.652344 18.855469 16.71875 19.054688 16.605469 C 19.257812 16.488281 19.324219 16.230469 19.207031 16.03125 Z M 16.484375 18.449219 L 15.886719 18.101562 C 15.6875 17.988281 15.429688 18.054688 15.316406 18.253906 C 15.199219 18.457031 15.269531 18.710938 15.46875 18.828125 L 16.070312 19.171875 C 16.269531 19.289062 16.527344 19.21875 16.640625 19.019531 C 16.753906 18.816406 16.6875 18.5625 16.484375 18.449219 Z M 30.0625 21.898438 L 29.371094 21.898438 C 29.136719 21.898438 28.949219 22.085938 28.949219 22.320312 C 28.949219 22.550781 29.136719 22.738281 29.371094 22.738281 L 30.0625 22.738281 C 30.292969 22.738281 30.480469 22.550781 30.480469 22.320312 C 30.480469 22.085938 30.292969 21.898438 30.0625 21.898438 Z M 15.339844 21.898438 L 14.648438 21.898438 C 14.414062 21.898438 14.226562 22.085938 14.226562 22.320312 C 14.226562 22.550781 14.414062 22.738281 14.648438 22.738281 L 15.339844 22.738281 C 15.570312 22.738281 15.757812 22.550781 15.757812 22.320312 C 15.757812 22.085938 15.570312 21.898438 15.339844 21.898438 Z M 21.933594 14.609375 L 21.933594 15.304688 C 21.933594 15.535156 22.121094 15.722656 22.355469 15.722656 C 22.585938 15.722656 22.773438 15.535156 22.773438 15.304688 L 22.773438 14.609375 C 22.773438 14.378906 22.585938 14.191406 22.355469 14.191406 C 22.121094 14.191406 21.933594 14.378906 21.933594 14.609375 Z M 21.933594 29.332031 L 21.933594 30.027344 C 21.933594 30.257812 22.121094 30.445312 22.355469 30.445312 C 22.585938 30.445312 22.773438 30.257812 22.773438 30.027344 L 22.773438 29.332031 C 22.773438 29.101562 22.585938 28.914062 22.355469 28.914062 C 22.121094 28.914062 21.933594 29.101562 21.933594 29.332031 Z M 21.933594 29.332031 " fill-opacity="1" fill-rule="evenodd"/></g></svg>