<svg xmlns="http://www.w3.org/2000/svg" xmlns:xlink="http://www.w3.org/1999/xlink" width="45" zoomAndPan="magnify" viewBox="0 0 33.75 33.749998" height="45" preserveAspectRatio="xMidYMid meet" version="1.0"><defs><clipPath id="fa69606aca"><path d="M 0 0 L 33.5 0 L 33.5 33.5 L 0 33.5 Z M 0 0 " clip-rule="nonzero"/></clipPath><clipPath id="9f4df06a60"><path d="M 0 0 L 33.5 0 L 33.5 33.5 L 0 33.5 Z M 0 0 " clip-rule="nonzero"/></clipPath><clipPath id="06f8cf1c09"><path d="M 16.75 0 C 7.5 0 0 7.5 0 16.75 C 0 26 7.5 33.5 16.75 33.5 C 26 33.5 33.5 26 33.5 16.75 C 33.5 7.5 26 0 16.75 0 Z M 16.75 0 " clip-rule="nonzero"/></clipPath><clipPath id="c894b42028"><path d="M 16.75 0 C 7.5 0 0 7.5 0 16.75 C 0 26 7.5 33.5 16.75 33.5 C 26 33.5 33.5 26 33.5 16.75 C 33.5 7.5 26 0 16.75 0 Z M 16.75 0 " clip-rule="nonzero"/></clipPath><clipPath id="20c955d15f"><path d="M 4.523438 4.523438 L 29 4.523438 L 29 29 L 4.523438 29 Z M 4.523438 4.523438 " clip-rule="nonzero"/></clipPath></defs><g clip-path="url(#fa69606aca)"><rect x="-3.375" width="40.5" fill="#ffffff" y="-3.375" height="40.499998" fill-opacity="1"/><rect x="-3.375" width="40.5" fill="#ffffff" y="-3.375" height="40.499998" fill-opacity="1"/></g><g clip-path="url(#9f4df06a60)"><g clip-path="url(#06f8cf1c09)"><g clip-path="url(#c894b42028)"><rect x="-3.375" width="40.5" fill="#ec2228" y="-3.375" height="40.499998" fill-opacity="1"/></g></g></g><g clip-path="url(#20c955d15f)"><path fill="#ffffff" d="M 16.75 4.523438 C 16.246094 4.523438 15.769531 4.71875 15.410156 5.105469 C 15.410156 5.105469 15.40625 5.105469 15.40625 5.109375 C 14.925781 5.625 14.175781 5.773438 13.53125 5.480469 C 13.53125 5.480469 13.527344 5.480469 13.527344 5.480469 C 12.566406 5.039062 11.421875 5.515625 11.054688 6.503906 C 10.808594 7.164062 10.167969 7.597656 9.460938 7.570312 C 8.40625 7.527344 7.527344 8.40625 7.5625 9.464844 C 7.589844 10.167969 7.164062 10.808594 6.5 11.054688 C 5.429688 11.488281 5.082031 12.558594 5.472656 13.53125 C 5.769531 14.175781 5.617188 14.925781 5.101562 15.410156 C 4.707031 15.777344 4.523438 16.246094 4.523438 16.75 C 4.523438 17.25 4.714844 17.722656 5.101562 18.089844 C 5.617188 18.570312 5.769531 19.324219 5.472656 19.96875 C 5.039062 20.9375 5.488281 22.023438 6.5 22.445312 C 7.164062 22.691406 7.589844 23.332031 7.5625 24.035156 C 7.527344 25.089844 8.40625 25.96875 9.460938 25.929688 C 10.167969 25.902344 10.804688 26.332031 11.050781 26.992188 C 11.421875 27.984375 12.566406 28.460938 13.527344 28.015625 C 13.527344 28.015625 13.53125 28.015625 13.53125 28.015625 C 14.175781 27.726562 14.925781 27.875 15.40625 28.390625 C 15.40625 28.390625 15.410156 28.390625 15.410156 28.394531 C 15.769531 28.785156 16.234375 28.976562 16.75 28.976562 C 17.265625 28.976562 17.730469 28.78125 18.089844 28.394531 C 18.089844 28.394531 18.09375 28.394531 18.09375 28.390625 C 18.574219 27.875 19.328125 27.726562 19.96875 28.015625 C 19.96875 28.019531 19.972656 28.019531 19.972656 28.015625 C 20.933594 28.460938 22.082031 27.980469 22.449219 26.992188 C 22.695312 26.332031 23.335938 25.90625 24.042969 25.929688 C 24.042969 25.929688 24.050781 25.929688 24.050781 25.929688 C 25.101562 25.964844 25.976562 25.089844 25.9375 24.039062 C 25.910156 23.332031 26.339844 22.691406 27.003906 22.445312 C 28.203125 21.949219 28.390625 20.742188 28.027344 19.96875 C 27.734375 19.328125 27.882812 18.570312 28.402344 18.089844 C 28.78125 17.71875 28.976562 17.261719 28.976562 16.75 C 28.976562 16.238281 28.789062 15.78125 28.402344 15.410156 C 27.882812 14.925781 27.734375 14.175781 28.027344 13.53125 C 28.480469 12.457031 27.882812 11.371094 27.003906 11.058594 C 26.339844 10.808594 25.910156 10.167969 25.9375 9.464844 C 25.976562 8.40625 25.101562 7.53125 24.042969 7.570312 C 23.335938 7.597656 22.699219 7.167969 22.449219 6.507812 L 22.449219 6.503906 C 22.082031 5.511719 20.9375 5.035156 19.976562 5.476562 C 19.976562 5.480469 19.972656 5.480469 19.972656 5.476562 C 19.332031 5.769531 18.582031 5.621094 18.097656 5.105469 C 18.097656 5.105469 18.09375 5.105469 18.09375 5.101562 C 17.730469 4.714844 17.253906 4.519531 16.75 4.519531 Z M 24.042969 25.933594 C 24.074219 25.933594 24.101562 25.933594 24.128906 25.925781 Z M 16.75 5.390625 C 17.003906 5.390625 17.257812 5.492188 17.449219 5.695312 C 17.449219 5.695312 17.453125 5.695312 17.453125 5.695312 C 18.1875 6.488281 19.355469 6.71875 20.335938 6.269531 C 20.84375 6.039062 21.429688 6.277344 21.625 6.800781 C 22.003906 7.8125 22.988281 8.472656 24.070312 8.433594 C 24.632812 8.414062 25.078125 8.863281 25.058594 9.421875 L 25.058594 9.429688 C 25.023438 10.460938 25.636719 11.394531 26.574219 11.800781 C 26.609375 11.832031 26.648438 11.855469 26.695312 11.867188 C 27.21875 12.066406 27.460938 12.652344 27.230469 13.164062 C 26.726562 14.328125 27.128906 15.425781 27.800781 16.046875 C 28.210938 16.429688 28.210938 17.0625 27.800781 17.441406 C 26.9375 18.257812 26.832031 19.398438 27.230469 20.332031 C 27.460938 20.839844 27.21875 21.425781 26.695312 21.621094 C 25.632812 22.023438 25.046875 22.996094 25.058594 24.0625 L 25.058594 24.066406 C 25.078125 24.628906 24.632812 25.078125 24.070312 25.054688 C 22.863281 25.011719 21.964844 25.796875 21.625 26.6875 C 21.429688 27.214844 20.84375 27.457031 20.335938 27.222656 C 19.355469 26.773438 18.1875 27.003906 17.453125 27.796875 C 17.453125 27.796875 17.449219 27.796875 17.449219 27.796875 C 17.066406 28.203125 16.4375 28.203125 16.054688 27.796875 C 16.054688 27.796875 16.050781 27.796875 16.050781 27.796875 C 15.3125 27.003906 14.148438 26.773438 13.164062 27.222656 C 12.65625 27.457031 12.070312 27.210938 11.875 26.6875 C 11.5 25.675781 10.511719 25.015625 9.429688 25.054688 C 8.871094 25.078125 8.421875 24.628906 8.441406 24.066406 C 8.460938 22.777344 7.628906 21.929688 6.808594 21.625 C 6.28125 21.425781 6.039062 20.84375 6.273438 20.332031 C 6.792969 19.085938 6.335938 18.066406 5.699219 17.445312 C 5.285156 17.066406 5.285156 16.429688 5.699219 16.050781 C 6.652344 15.105469 6.625 14.007812 6.273438 13.164062 C 6.039062 12.652344 6.28125 12.070312 6.808594 11.871094 C 7.925781 11.441406 8.476562 10.386719 8.441406 9.429688 L 8.441406 9.425781 C 8.421875 8.867188 8.871094 8.417969 9.429688 8.4375 C 10.511719 8.476562 11.5 7.816406 11.875 6.804688 C 12.070312 6.277344 12.65625 6.039062 13.167969 6.269531 C 14.152344 6.722656 15.3125 6.488281 16.050781 5.695312 C 16.050781 5.695312 16.054688 5.695312 16.054688 5.695312 C 16.246094 5.492188 16.496094 5.390625 16.75 5.390625 Z M 16.75 5.390625 " fill-opacity="1" fill-rule="nonzero"/></g><path fill="#ffffff" d="M 24.136719 11.511719 C 23.800781 11.523438 23.46875 11.660156 23.222656 11.921875 L 16.726562 18.800781 L 13.3125 15.386719 C 12.800781 14.878906 11.964844 14.878906 11.457031 15.386719 C 10.949219 15.894531 10.949219 16.730469 11.457031 17.238281 L 15.824219 21.605469 C 16.339844 22.121094 17.199219 22.109375 17.703125 21.578125 L 25.125 13.71875 C 25.617188 13.195312 25.59375 12.359375 25.074219 11.867188 C 24.8125 11.621094 24.476562 11.5 24.136719 11.511719 Z M 25.074219 11.867188 C 25.035156 11.832031 24.988281 11.800781 24.933594 11.78125 Z M 24.160156 12.378906 C 24.269531 12.375 24.386719 12.417969 24.472656 12.503906 C 24.652344 12.671875 24.660156 12.941406 24.492188 13.117188 L 17.066406 20.980469 C 16.894531 21.164062 16.621094 21.164062 16.441406 20.988281 L 12.074219 16.621094 C 11.898438 16.449219 11.898438 16.179688 12.074219 16.003906 C 12.25 15.828125 12.515625 15.828125 12.691406 16.003906 L 16.421875 19.734375 C 16.507812 19.820312 16.621094 19.867188 16.738281 19.863281 C 16.855469 19.863281 16.96875 19.8125 17.050781 19.730469 L 23.855469 12.519531 C 23.941406 12.433594 24.050781 12.386719 24.160156 12.378906 Z M 24.160156 12.378906 " fill-opacity="1" fill-rule="nonzero"/><path fill="#ffffff" d="M 16.75 7.578125 C 11.691406 7.578125 7.578125 11.691406 7.578125 16.75 C 7.578125 21.808594 11.691406 25.921875 16.75 25.921875 C 21.808594 25.921875 25.921875 21.808594 25.921875 16.75 C 25.921875 16.15625 25.863281 15.585938 25.757812 15.023438 C 25.738281 14.910156 25.671875 14.8125 25.574219 14.746094 C 25.476562 14.679688 25.363281 14.65625 25.25 14.675781 C 25.132812 14.699219 25.035156 14.765625 24.96875 14.859375 C 24.902344 14.957031 24.878906 15.074219 24.898438 15.1875 C 25 15.699219 25.046875 16.214844 25.046875 16.75 C 25.046875 21.335938 21.335938 25.046875 16.75 25.046875 C 12.160156 25.046875 8.453125 21.335938 8.453125 16.75 C 8.453125 12.160156 12.160156 8.453125 16.75 8.453125 C 19.058594 8.453125 21.140625 9.394531 22.648438 10.914062 C 22.730469 11 22.839844 11.046875 22.957031 11.050781 C 23.074219 11.050781 23.191406 11.007812 23.269531 10.921875 C 23.355469 10.839844 23.402344 10.726562 23.402344 10.613281 C 23.402344 10.492188 23.351562 10.382812 23.269531 10.300781 C 21.609375 8.621094 19.296875 7.578125 16.75 7.578125 Z M 16.75 7.578125 " fill-opacity="1" fill-rule="nonzero"/><path fill="#ffffff" d="M 16.75 9.328125 C 12.652344 9.328125 9.328125 12.65625 9.328125 16.75 C 9.328125 20.84375 12.652344 24.171875 16.75 24.171875 C 20.832031 24.171875 24.15625 20.886719 24.171875 16.804688 C 24.175781 16.691406 24.128906 16.578125 24.046875 16.496094 C 23.964844 16.414062 23.855469 16.367188 23.738281 16.367188 C 23.621094 16.367188 23.511719 16.414062 23.429688 16.496094 C 23.347656 16.578125 23.300781 16.6875 23.300781 16.804688 C 23.28125 20.410156 20.367188 23.300781 16.75 23.300781 C 13.125 23.300781 10.199219 20.371094 10.199219 16.75 C 10.199219 13.128906 13.125 10.199219 16.75 10.199219 C 18.59375 10.199219 20.265625 10.964844 21.453125 12.191406 C 21.535156 12.277344 21.644531 12.332031 21.765625 12.332031 C 21.882812 12.339844 21.996094 12.292969 22.082031 12.210938 C 22.164062 12.128906 22.214844 12.011719 22.214844 11.898438 C 22.210938 11.777344 22.164062 11.664062 22.078125 11.582031 C 20.730469 10.195312 18.835938 9.328125 16.75 9.328125 Z M 16.75 9.328125 " fill-opacity="1" fill-rule="nonzero"/><path fill="#ffffff" d="M 24.042969 25.933594 C 24.074219 25.933594 24.101562 25.933594 24.128906 25.925781 Z M 24.042969 25.933594 " fill-opacity="1" fill-rule="nonzero"/><path fill="#ffffff" d="M 24.042969 25.933594 C 24.074219 25.933594 24.101562 25.933594 24.128906 25.925781 Z M 24.042969 25.933594 " fill-opacity="1" fill-rule="nonzero"/></svg>