<svg xmlns="http://www.w3.org/2000/svg" xmlns:xlink="http://www.w3.org/1999/xlink" width="60" zoomAndPan="magnify" viewBox="0 0 45 44.999999" height="60" preserveAspectRatio="xMidYMid meet" version="1.0"><defs><clipPath id="07a5854cfa"><path d="M 22.5 0 C 10.074219 0 0 10.074219 0 22.5 C 0 34.925781 10.074219 45 22.5 45 C 34.925781 45 45 34.925781 45 22.5 C 45 10.074219 34.925781 0 22.5 0 Z M 22.5 0 " clip-rule="nonzero"/></clipPath><clipPath id="037c92fde0"><path d="M 0 0 L 45 0 L 45 45 L 0 45 Z M 0 0 " clip-rule="nonzero"/></clipPath><clipPath id="f3b148c5eb"><path d="M 22.5 0 C 10.074219 0 0 10.074219 0 22.5 C 0 34.925781 10.074219 45 22.5 45 C 34.925781 45 45 34.925781 45 22.5 C 45 10.074219 34.925781 0 22.5 0 Z M 22.5 0 " clip-rule="nonzero"/></clipPath><clipPath id="6d2bdc03ac"><rect x="0" width="45" y="0" height="45"/></clipPath><clipPath id="3de244b825"><path d="M 6.074219 6.074219 L 39 6.074219 L 39 39 L 6.074219 39 Z M 6.074219 6.074219 " clip-rule="nonzero"/></clipPath></defs><g clip-path="url(#07a5854cfa)"><g transform="matrix(1, 0, 0, 1, 0, 0)"><g clip-path="url(#6d2bdc03ac)"><g clip-path="url(#037c92fde0)"><g clip-path="url(#f3b148c5eb)"><rect x="-9.9" width="64.8" fill="#ec2228" height="64.799999" y="-9.9" fill-opacity="1"/></g></g></g></g></g><g clip-path="url(#3de244b825)"><path fill="#ffffff" d="M 22.5 6.074219 C 21.824219 6.074219 21.183594 6.335938 20.699219 6.855469 C 20.699219 6.855469 20.695312 6.855469 20.695312 6.863281 C 20.046875 7.554688 19.039062 7.753906 18.175781 7.359375 C 18.175781 7.359375 18.171875 7.359375 18.171875 7.359375 C 16.878906 6.769531 15.339844 7.410156 14.847656 8.738281 C 14.515625 9.625 13.65625 10.203125 12.707031 10.167969 C 11.289062 10.113281 10.109375 11.292969 10.160156 12.710938 C 10.195312 13.660156 9.621094 14.519531 8.730469 14.847656 C 7.292969 15.433594 6.824219 16.871094 7.351562 18.175781 C 7.75 19.039062 7.546875 20.050781 6.851562 20.699219 C 6.324219 21.191406 6.074219 21.824219 6.074219 22.5 C 6.074219 23.171875 6.332031 23.804688 6.851562 24.300781 C 7.546875 24.945312 7.75 25.957031 7.351562 26.820312 C 6.769531 28.121094 7.371094 29.582031 8.730469 30.148438 C 9.621094 30.480469 10.195312 31.339844 10.160156 32.285156 C 10.109375 33.703125 11.289062 34.882812 12.707031 34.828125 C 13.65625 34.792969 14.511719 35.371094 14.84375 36.257812 C 15.339844 37.589844 16.878906 38.226562 18.167969 37.632812 C 18.167969 37.632812 18.175781 37.632812 18.175781 37.632812 C 19.039062 37.242188 20.046875 37.441406 20.695312 38.132812 C 20.695312 38.132812 20.699219 38.132812 20.699219 38.140625 C 21.183594 38.664062 21.808594 38.921875 22.5 38.921875 C 23.191406 38.921875 23.816406 38.660156 24.296875 38.140625 C 24.296875 38.140625 24.304688 38.140625 24.304688 38.132812 C 24.949219 37.441406 25.960938 37.242188 26.820312 37.632812 C 26.820312 37.636719 26.828125 37.636719 26.828125 37.632812 C 28.117188 38.226562 29.660156 37.585938 30.152344 36.257812 C 30.484375 35.371094 31.34375 34.796875 32.292969 34.828125 C 32.292969 34.828125 32.296875 34.828125 32.296875 34.828125 C 32.296875 34.828125 32.304688 34.828125 32.304688 34.828125 C 33.71875 34.875 34.890625 33.703125 34.839844 32.289062 C 34.804688 31.339844 35.378906 30.480469 36.269531 30.148438 C 37.882812 29.480469 38.132812 27.863281 37.648438 26.824219 C 37.253906 25.960938 37.453125 24.945312 38.148438 24.300781 C 38.660156 23.800781 38.921875 23.183594 38.921875 22.5 C 38.921875 21.8125 38.671875 21.195312 38.148438 20.699219 C 37.453125 20.050781 37.253906 19.039062 37.648438 18.175781 C 38.253906 16.730469 37.453125 15.273438 36.269531 14.851562 C 35.378906 14.519531 34.804688 13.660156 34.839844 12.710938 C 34.890625 11.292969 33.714844 10.117188 32.296875 10.167969 C 31.347656 10.203125 30.488281 9.628906 30.15625 8.742188 L 30.15625 8.734375 C 29.660156 7.402344 28.121094 6.765625 26.832031 7.355469 C 26.832031 7.359375 26.828125 7.359375 26.828125 7.355469 C 25.964844 7.75 24.957031 7.550781 24.308594 6.859375 C 24.308594 6.859375 24.304688 6.859375 24.304688 6.851562 C 23.816406 6.332031 23.175781 6.070312 22.5 6.070312 Z M 32.296875 34.832031 C 32.335938 34.832031 32.375 34.832031 32.410156 34.824219 Z M 22.5 7.238281 C 22.839844 7.238281 23.179688 7.378906 23.4375 7.652344 C 23.4375 7.652344 23.441406 7.652344 23.441406 7.652344 C 24.429688 8.714844 25.996094 9.023438 27.316406 8.421875 C 28 8.109375 28.785156 8.433594 29.046875 9.136719 C 29.554688 10.496094 30.878906 11.382812 32.332031 11.328125 C 33.085938 11.300781 33.6875 11.90625 33.660156 12.65625 L 33.660156 12.664062 C 33.609375 14.050781 34.433594 15.304688 35.695312 15.851562 C 35.742188 15.890625 35.796875 15.921875 35.855469 15.941406 C 36.5625 16.207031 36.886719 16.992188 36.574219 17.679688 C 35.898438 19.246094 36.4375 20.722656 37.34375 21.554688 C 37.894531 22.066406 37.894531 22.917969 37.34375 23.429688 C 36.183594 24.523438 36.039062 26.054688 36.574219 27.308594 C 36.886719 27.992188 36.5625 28.78125 35.855469 29.042969 C 34.429688 29.582031 33.644531 30.886719 33.660156 32.320312 L 33.660156 32.328125 C 33.6875 33.082031 33.085938 33.683594 32.332031 33.65625 C 30.710938 33.59375 29.503906 34.648438 29.046875 35.847656 C 28.785156 36.554688 28 36.878906 27.316406 36.566406 C 25.996094 35.960938 24.429688 36.273438 23.441406 37.335938 C 23.441406 37.335938 23.4375 37.335938 23.4375 37.335938 C 22.925781 37.882812 22.078125 37.882812 21.5625 37.335938 C 21.5625 37.335938 21.558594 37.335938 21.558594 37.335938 C 20.570312 36.273438 19.003906 35.960938 17.683594 36.566406 C 17 36.878906 16.214844 36.550781 15.953125 35.847656 C 15.445312 34.488281 14.117188 33.601562 12.667969 33.65625 C 11.914062 33.683594 11.3125 33.082031 11.339844 32.328125 C 11.367188 30.59375 10.246094 29.457031 9.144531 29.046875 C 8.4375 28.78125 8.113281 27.996094 8.425781 27.3125 C 9.125 25.636719 8.511719 24.269531 7.65625 23.433594 C 7.101562 22.921875 7.101562 22.070312 7.65625 21.558594 C 8.933594 20.289062 8.898438 18.816406 8.425781 17.679688 C 8.113281 16.996094 8.4375 16.210938 9.144531 15.945312 C 10.648438 15.367188 11.386719 13.953125 11.339844 12.667969 L 11.339844 12.660156 C 11.3125 11.910156 11.914062 11.304688 12.667969 11.332031 C 14.117188 11.386719 15.445312 10.5 15.953125 9.140625 C 16.214844 8.433594 17 8.109375 17.6875 8.421875 C 19.007812 9.027344 20.570312 8.714844 21.558594 7.652344 C 21.558594 7.652344 21.5625 7.652344 21.5625 7.652344 C 21.820312 7.378906 22.160156 7.238281 22.5 7.238281 Z M 22.5 7.238281 " fill-opacity="1" fill-rule="nonzero"/></g><path fill="#ffffff" d="M 32.421875 15.464844 C 31.96875 15.476562 31.523438 15.660156 31.191406 16.011719 L 22.464844 25.253906 L 17.878906 20.667969 C 17.195312 19.984375 16.070312 19.984375 15.390625 20.667969 C 14.707031 21.347656 14.707031 22.472656 15.390625 23.15625 L 21.253906 29.019531 C 21.949219 29.714844 23.101562 29.699219 23.777344 28.984375 L 33.75 18.425781 C 34.410156 17.726562 34.378906 16.601562 33.679688 15.941406 C 33.328125 15.609375 32.875 15.449219 32.421875 15.464844 Z M 33.679688 15.941406 C 33.625 15.890625 33.5625 15.851562 33.492188 15.824219 Z M 32.453125 16.628906 C 32.601562 16.621094 32.753906 16.679688 32.871094 16.792969 C 33.113281 17.019531 33.125 17.382812 32.898438 17.621094 L 22.925781 28.179688 C 22.691406 28.425781 22.324219 28.429688 22.085938 28.191406 L 16.21875 22.328125 C 15.984375 22.09375 15.984375 21.730469 16.21875 21.496094 C 16.453125 21.261719 16.8125 21.261719 17.046875 21.496094 L 22.058594 26.507812 C 22.171875 26.621094 22.324219 26.683594 22.484375 26.679688 C 22.640625 26.679688 22.792969 26.613281 22.902344 26.5 L 32.042969 16.816406 C 32.15625 16.699219 32.304688 16.636719 32.453125 16.628906 Z M 32.453125 16.628906 " fill-opacity="1" fill-rule="nonzero"/><path fill="#ffffff" d="M 22.5 10.179688 C 15.703125 10.179688 10.179688 15.703125 10.179688 22.5 C 10.179688 29.292969 15.703125 34.816406 22.5 34.816406 C 29.292969 34.816406 34.816406 29.292969 34.816406 22.5 C 34.816406 21.703125 34.742188 20.9375 34.597656 20.179688 C 34.570312 20.027344 34.480469 19.894531 34.351562 19.804688 C 34.222656 19.71875 34.066406 19.6875 33.914062 19.714844 C 33.757812 19.746094 33.625 19.832031 33.539062 19.960938 C 33.449219 20.089844 33.417969 20.25 33.445312 20.402344 C 33.578125 21.085938 33.644531 21.777344 33.644531 22.5 C 33.644531 28.660156 28.660156 33.644531 22.5 33.644531 C 16.335938 33.644531 11.355469 28.660156 11.355469 22.5 C 11.355469 16.335938 16.335938 11.355469 22.5 11.355469 C 25.601562 11.355469 28.398438 12.617188 30.421875 14.660156 C 30.53125 14.773438 30.679688 14.839844 30.835938 14.84375 C 30.996094 14.84375 31.148438 14.785156 31.257812 14.671875 C 31.371094 14.5625 31.433594 14.410156 31.433594 14.253906 C 31.433594 14.09375 31.367188 13.945312 31.253906 13.835938 C 29.023438 11.578125 25.921875 10.179688 22.5 10.179688 Z M 22.5 10.179688 " fill-opacity="1" fill-rule="nonzero"/><path fill="#ffffff" d="M 22.5 12.527344 C 16.996094 12.527344 12.527344 17 12.527344 22.5 C 12.527344 28 16.996094 32.46875 22.5 32.46875 C 27.984375 32.46875 32.445312 28.054688 32.46875 22.574219 C 32.472656 22.417969 32.410156 22.269531 32.300781 22.160156 C 32.191406 22.046875 32.042969 21.984375 31.886719 21.984375 C 31.730469 21.984375 31.582031 22.046875 31.472656 22.15625 C 31.359375 22.265625 31.296875 22.414062 31.296875 22.570312 C 31.273438 27.414062 27.355469 31.296875 22.5 31.296875 C 17.628906 31.296875 13.699219 27.363281 13.699219 22.5 C 13.699219 17.632812 17.628906 13.699219 22.5 13.699219 C 24.976562 13.699219 27.21875 14.730469 28.816406 16.375 C 28.925781 16.492188 29.074219 16.5625 29.234375 16.566406 C 29.390625 16.574219 29.546875 16.511719 29.660156 16.402344 C 29.773438 16.289062 29.839844 16.136719 29.839844 15.980469 C 29.835938 15.820312 29.773438 15.667969 29.65625 15.558594 C 27.847656 13.695312 25.300781 12.527344 22.5 12.527344 Z M 22.5 12.527344 " fill-opacity="1" fill-rule="nonzero"/><path fill="#ffffff" d="M 32.296875 34.832031 C 32.335938 34.832031 32.375 34.832031 32.410156 34.824219 Z M 32.296875 34.832031 " fill-opacity="1" fill-rule="nonzero"/><path fill="#ffffff" d="M 32.296875 34.832031 C 32.335938 34.832031 32.375 34.832031 32.410156 34.824219 Z M 32.296875 34.832031 " fill-opacity="1" fill-rule="nonzero"/></svg>