<svg xmlns="http://www.w3.org/2000/svg" xmlns:xlink="http://www.w3.org/1999/xlink" width="45" zoomAndPan="magnify" viewBox="0 0 33.75 33.749998" height="45" preserveAspectRatio="xMidYMid meet" version="1.0"><defs><clipPath id="f3b4a83191"><path d="M 0.800781 0.800781 L 32.8125 0.800781 L 32.8125 32.8125 L 0.800781 32.8125 Z M 0.800781 0.800781 " clip-rule="nonzero"/></clipPath><clipPath id="91104a61e3"><path d="M 0.800781 0.800781 L 32.8125 0.800781 L 32.8125 32.8125 L 0.800781 32.8125 Z M 0.800781 0.800781 " clip-rule="nonzero"/></clipPath><clipPath id="e29414dad9"><path d="M 16.804688 0.800781 C 7.96875 0.800781 0.800781 7.96875 0.800781 16.804688 C 0.800781 25.644531 7.96875 32.8125 16.804688 32.8125 C 25.644531 32.8125 32.8125 25.644531 32.8125 16.804688 C 32.8125 7.96875 25.644531 0.800781 16.804688 0.800781 Z M 16.804688 0.800781 " clip-rule="nonzero"/></clipPath><clipPath id="7ba5efc463"><path d="M 16.804688 0.800781 C 7.96875 0.800781 0.800781 7.96875 0.800781 16.804688 C 0.800781 25.644531 7.96875 32.8125 16.804688 32.8125 C 25.644531 32.8125 32.8125 25.644531 32.8125 16.804688 C 32.8125 7.96875 25.644531 0.800781 16.804688 0.800781 Z M 16.804688 0.800781 " clip-rule="nonzero"/></clipPath><clipPath id="73380aec61"><path d="M 6.40625 24.277344 L 27.214844 24.277344 L 27.214844 27.195312 L 6.40625 27.195312 Z M 6.40625 24.277344 " clip-rule="nonzero"/></clipPath><clipPath id="5d9d6bacd1"><path d="M 6.40625 12 L 27.214844 12 L 27.214844 25.699219 L 6.40625 25.699219 Z M 6.40625 12 " clip-rule="nonzero"/></clipPath><clipPath id="559f939a61"><path d="M 13 6.386719 L 16.449219 6.386719 L 16.449219 8.625 L 13 8.625 Z M 13 6.386719 " clip-rule="nonzero"/></clipPath><clipPath id="37c5385b4b"><path d="M 8 6.386719 L 11.472656 6.386719 L 11.472656 8.625 L 8 8.625 Z M 8 6.386719 " clip-rule="nonzero"/></clipPath></defs><g clip-path="url(#f3b4a83191)"><rect x="-3.375" width="40.5" fill="#ffffff" y="-3.375" height="40.499998" fill-opacity="1"/><rect x="-3.375" width="40.5" fill="#ffffff" y="-3.375" height="40.499998" fill-opacity="1"/></g><g clip-path="url(#91104a61e3)"><g clip-path="url(#e29414dad9)"><g clip-path="url(#7ba5efc463)"><rect x="-3.375" width="40.5" fill="#ec2228" y="-3.375" height="40.499998" fill-opacity="1"/></g></g></g><g clip-path="url(#73380aec61)"><path fill="#ffffff" d="M 26.785156 27.222656 L 6.820312 27.222656 C 6.597656 27.222656 6.417969 27.042969 6.417969 26.816406 L 6.417969 25.183594 C 6.417969 24.960938 6.597656 24.777344 6.820312 24.777344 L 26.785156 24.777344 C 27.011719 24.777344 27.191406 24.960938 27.191406 25.183594 L 27.191406 26.816406 C 27.191406 27.042969 27.011719 27.222656 26.785156 27.222656 Z M 7.230469 26.40625 L 26.378906 26.40625 L 26.378906 25.59375 L 7.230469 25.59375 Z M 7.230469 26.40625 " fill-opacity="1" fill-rule="nonzero"/></g><path fill="#ffffff" d="M 10.40625 17.445312 L 7.6875 17.445312 C 7.457031 17.445312 7.269531 17.25 7.285156 17.019531 L 7.640625 9.683594 C 7.648438 9.46875 7.828125 9.296875 8.042969 9.296875 C 8.050781 9.296875 10.085938 9.296875 10.082031 9.296875 C 10.300781 9.296875 10.480469 9.464844 10.488281 9.683594 L 10.8125 17.019531 C 10.816406 17.132812 10.777344 17.238281 10.703125 17.320312 C 10.625 17.402344 10.519531 17.445312 10.40625 17.445312 Z M 8.117188 16.632812 L 9.980469 16.632812 L 9.691406 10.109375 L 8.433594 10.113281 Z M 8.117188 16.632812 " fill-opacity="1" fill-rule="nonzero"/><path fill="#ffffff" d="M 10.152344 11.738281 L 7.96875 11.738281 C 7.742188 11.738281 7.558594 11.554688 7.558594 11.328125 C 7.558594 11.105469 7.742188 10.921875 7.96875 10.921875 L 10.152344 10.921875 C 10.378906 10.921875 10.5625 11.105469 10.5625 11.328125 C 10.5625 11.554688 10.378906 11.738281 10.152344 11.738281 Z M 10.152344 11.738281 " fill-opacity="1" fill-rule="nonzero"/><path fill="#ffffff" d="M 10.242188 13.769531 L 7.867188 13.769531 C 7.640625 13.769531 7.460938 13.585938 7.460938 13.359375 C 7.460938 13.136719 7.640625 12.953125 7.867188 12.953125 L 10.242188 12.953125 C 10.46875 12.953125 10.652344 13.136719 10.652344 13.359375 C 10.652344 13.585938 10.46875 13.769531 10.242188 13.769531 Z M 10.242188 13.769531 " fill-opacity="1" fill-rule="nonzero"/><path fill="#ffffff" d="M 25.15625 25.59375 L 20.675781 25.59375 C 20.449219 25.59375 20.265625 25.410156 20.265625 25.183594 L 20.265625 18.261719 C 20.265625 18.035156 20.449219 17.855469 20.675781 17.855469 L 25.15625 17.855469 C 25.378906 17.855469 25.5625 18.035156 25.5625 18.261719 L 25.5625 25.183594 C 25.5625 25.410156 25.378906 25.59375 25.15625 25.59375 Z M 21.082031 24.777344 L 24.75 24.777344 L 24.75 18.667969 L 21.082031 18.667969 Z M 21.082031 24.777344 " fill-opacity="1" fill-rule="nonzero"/><path fill="#ffffff" d="M 10.894531 20.707031 L 8.453125 20.707031 C 8.226562 20.707031 8.042969 20.523438 8.042969 20.296875 L 8.042969 18.667969 C 8.042969 18.445312 8.226562 18.261719 8.453125 18.261719 L 10.894531 18.261719 C 11.121094 18.261719 11.304688 18.445312 11.304688 18.667969 L 11.304688 20.296875 C 11.304688 20.523438 11.121094 20.707031 10.894531 20.707031 Z M 8.859375 19.890625 L 10.488281 19.890625 L 10.488281 19.074219 L 8.859375 19.074219 Z M 8.859375 19.890625 " fill-opacity="1" fill-rule="nonzero"/><path fill="#ffffff" d="M 14.96875 20.707031 L 12.527344 20.707031 C 12.300781 20.707031 12.117188 20.523438 12.117188 20.296875 L 12.117188 18.667969 C 12.117188 18.445312 12.300781 18.261719 12.527344 18.261719 L 14.96875 18.261719 C 15.195312 18.261719 15.378906 18.445312 15.378906 18.667969 L 15.378906 20.296875 C 15.378906 20.523438 15.195312 20.707031 14.96875 20.707031 Z M 12.933594 19.890625 L 14.5625 19.890625 L 14.5625 19.074219 L 12.933594 19.074219 Z M 12.933594 19.890625 " fill-opacity="1" fill-rule="nonzero"/><path fill="#ffffff" d="M 19.042969 20.707031 L 16.601562 20.707031 C 16.375 20.707031 16.191406 20.523438 16.191406 20.296875 L 16.191406 18.667969 C 16.191406 18.445312 16.375 18.261719 16.601562 18.261719 L 19.042969 18.261719 C 19.269531 18.261719 19.453125 18.445312 19.453125 18.667969 L 19.453125 20.296875 C 19.453125 20.523438 19.269531 20.707031 19.042969 20.707031 Z M 17.007812 19.890625 L 18.636719 19.890625 L 18.636719 19.074219 L 17.007812 19.074219 Z M 17.007812 19.890625 " fill-opacity="1" fill-rule="nonzero"/><path fill="#ffffff" d="M 10.894531 23.960938 L 8.453125 23.960938 C 8.226562 23.960938 8.042969 23.78125 8.042969 23.554688 L 8.042969 21.929688 C 8.042969 21.703125 8.226562 21.519531 8.453125 21.519531 L 10.894531 21.519531 C 11.121094 21.519531 11.304688 21.703125 11.304688 21.929688 L 11.304688 23.554688 C 11.304688 23.78125 11.121094 23.960938 10.894531 23.960938 Z M 8.859375 23.148438 L 10.488281 23.148438 L 10.488281 22.332031 L 8.859375 22.332031 Z M 8.859375 23.148438 " fill-opacity="1" fill-rule="nonzero"/><path fill="#ffffff" d="M 14.96875 23.960938 L 12.527344 23.960938 C 12.300781 23.960938 12.117188 23.78125 12.117188 23.554688 L 12.117188 21.929688 C 12.117188 21.703125 12.300781 21.519531 12.527344 21.519531 L 14.96875 21.519531 C 15.195312 21.519531 15.378906 21.703125 15.378906 21.929688 L 15.378906 23.554688 C 15.378906 23.78125 15.195312 23.960938 14.96875 23.960938 Z M 12.933594 23.148438 L 14.5625 23.148438 L 14.5625 22.332031 L 12.933594 22.332031 Z M 12.933594 23.148438 " fill-opacity="1" fill-rule="nonzero"/><path fill="#ffffff" d="M 19.042969 23.960938 L 16.601562 23.960938 C 16.375 23.960938 16.191406 23.78125 16.191406 23.554688 L 16.191406 21.929688 C 16.191406 21.703125 16.375 21.519531 16.601562 21.519531 L 19.042969 21.519531 C 19.269531 21.519531 19.453125 21.703125 19.453125 21.929688 L 19.453125 23.554688 C 19.453125 23.78125 19.269531 23.960938 19.042969 23.960938 Z M 17.007812 23.148438 L 18.636719 23.148438 L 18.636719 22.332031 L 17.007812 22.332031 Z M 17.007812 23.148438 " fill-opacity="1" fill-rule="nonzero"/><path fill="#ffffff" d="M 15.292969 17.445312 L 12.578125 17.445312 C 12.347656 17.445312 12.160156 17.25 12.171875 17.019531 L 12.527344 9.683594 C 12.539062 9.46875 12.714844 9.296875 12.933594 9.296875 C 12.9375 9.296875 14.976562 9.296875 14.96875 9.296875 C 15.1875 9.296875 15.367188 9.464844 15.378906 9.683594 L 15.699219 17.019531 C 15.710938 17.25 15.527344 17.445312 15.292969 17.445312 Z M 13.003906 16.632812 L 14.871094 16.632812 L 14.582031 10.109375 L 13.320312 10.113281 Z M 13.003906 16.632812 " fill-opacity="1" fill-rule="nonzero"/><path fill="#ffffff" d="M 15.042969 11.738281 L 12.855469 11.738281 C 12.628906 11.738281 12.445312 11.554688 12.445312 11.328125 C 12.445312 11.105469 12.628906 10.921875 12.855469 10.921875 L 15.042969 10.921875 C 15.265625 10.921875 15.449219 11.105469 15.449219 11.328125 C 15.449219 11.554688 15.265625 11.738281 15.042969 11.738281 Z M 15.042969 11.738281 " fill-opacity="1" fill-rule="nonzero"/><path fill="#ffffff" d="M 15.132812 13.769531 L 12.753906 13.769531 C 12.53125 13.769531 12.347656 13.585938 12.347656 13.359375 C 12.347656 13.136719 12.53125 12.953125 12.753906 12.953125 L 15.132812 12.953125 C 15.359375 12.953125 15.539062 13.136719 15.539062 13.359375 C 15.539062 13.585938 15.355469 13.769531 15.132812 13.769531 Z M 15.132812 13.769531 " fill-opacity="1" fill-rule="nonzero"/><g clip-path="url(#5d9d6bacd1)"><path fill="#ffffff" d="M 26.785156 25.59375 L 6.820312 25.59375 C 6.597656 25.59375 6.417969 25.410156 6.417969 25.183594 L 6.417969 17.039062 C 6.417969 16.8125 6.597656 16.632812 6.820312 16.632812 L 19.042969 16.632812 L 19.042969 15.410156 C 19.042969 15.238281 19.144531 15.089844 19.304688 15.027344 L 26.636719 12.175781 C 26.90625 12.074219 27.191406 12.269531 27.191406 12.558594 L 27.191406 25.183594 C 27.191406 25.410156 27.011719 25.59375 26.785156 25.59375 Z M 7.230469 24.777344 L 26.378906 24.777344 L 26.378906 13.152344 L 19.859375 15.6875 L 19.859375 17.039062 C 19.859375 17.261719 19.675781 17.445312 19.453125 17.445312 L 7.230469 17.445312 Z M 7.230469 24.777344 " fill-opacity="1" fill-rule="nonzero"/></g><path fill="#ffffff" d="M 19.453125 17.445312 L 17.007812 17.445312 C 16.78125 17.445312 16.601562 17.261719 16.601562 17.039062 L 16.601562 14.1875 C 16.601562 14.015625 16.707031 13.863281 16.867188 13.804688 L 24.605469 10.953125 C 24.730469 10.90625 24.871094 10.921875 24.980469 11 C 25.089844 11.078125 25.15625 11.203125 25.15625 11.335938 L 25.15625 13.34375 C 25.15625 13.570312 24.972656 13.753906 24.75 13.753906 C 24.523438 13.753906 24.339844 13.570312 24.339844 13.34375 L 24.339844 11.917969 L 17.414062 14.46875 L 17.414062 16.632812 L 19.453125 16.632812 C 19.675781 16.632812 19.859375 16.8125 19.859375 17.039062 C 19.859375 17.261719 19.675781 17.445312 19.453125 17.445312 Z M 19.453125 17.445312 " fill-opacity="1" fill-rule="nonzero"/><g clip-path="url(#559f939a61)"><path fill="#ffffff" d="M 13.347656 8.113281 C 13.230469 7.917969 13.292969 7.667969 13.484375 7.554688 C 13.742188 7.398438 13.933594 7.386719 14.0625 7.378906 C 14.152344 7.371094 14.1875 7.371094 14.269531 7.320312 C 14.355469 7.269531 14.371094 7.238281 14.417969 7.164062 C 14.488281 7.050781 14.589844 6.890625 14.84375 6.734375 C 15.097656 6.585938 15.292969 6.570312 15.421875 6.5625 C 15.507812 6.558594 15.542969 6.554688 15.628906 6.503906 C 15.820312 6.386719 16.070312 6.453125 16.1875 6.644531 C 16.304688 6.835938 16.238281 7.085938 16.046875 7.203125 C 15.792969 7.355469 15.601562 7.371094 15.472656 7.378906 C 15.382812 7.382812 15.347656 7.382812 15.265625 7.4375 C 15.179688 7.484375 15.160156 7.515625 15.113281 7.589844 C 15.042969 7.699219 14.945312 7.863281 14.6875 8.015625 C 14.4375 8.167969 14.242188 8.183594 14.113281 8.191406 C 14.023438 8.199219 13.992188 8.199219 13.90625 8.25 C 13.710938 8.367188 13.464844 8.304688 13.347656 8.113281 Z M 13.347656 8.113281 " fill-opacity="1" fill-rule="nonzero"/></g><g clip-path="url(#37c5385b4b)"><path fill="#ffffff" d="M 8.40625 8.113281 C 8.289062 7.917969 8.351562 7.667969 8.546875 7.554688 C 8.800781 7.398438 8.992188 7.386719 9.121094 7.378906 C 9.210938 7.371094 9.246094 7.371094 9.328125 7.320312 C 9.414062 7.269531 9.429688 7.238281 9.480469 7.164062 C 9.546875 7.050781 9.648438 6.890625 9.902344 6.734375 C 10.15625 6.585938 10.351562 6.570312 10.480469 6.5625 C 10.566406 6.558594 10.601562 6.554688 10.6875 6.503906 C 10.878906 6.386719 11.128906 6.453125 11.246094 6.644531 C 11.363281 6.835938 11.300781 7.085938 11.105469 7.203125 C 10.851562 7.355469 10.660156 7.371094 10.53125 7.378906 C 10.441406 7.382812 10.40625 7.382812 10.324219 7.4375 C 10.238281 7.484375 10.21875 7.515625 10.171875 7.589844 C 10.105469 7.699219 10.003906 7.863281 9.75 8.015625 C 9.496094 8.167969 9.300781 8.183594 9.171875 8.191406 C 9.085938 8.199219 9.050781 8.199219 8.964844 8.25 C 8.769531 8.367188 8.523438 8.304688 8.40625 8.113281 Z M 8.40625 8.113281 " fill-opacity="1" fill-rule="nonzero"/></g></svg>