<svg xmlns="http://www.w3.org/2000/svg" xmlns:xlink="http://www.w3.org/1999/xlink" width="60" zoomAndPan="magnify" viewBox="0 0 45 44.999999" height="60" preserveAspectRatio="xMidYMid meet" version="1.0"><defs><clipPath id="575431af61"><path d="M 22.5 0 C 10.074219 0 0 10.074219 0 22.5 C 0 34.925781 10.074219 45 22.5 45 C 34.925781 45 45 34.925781 45 22.5 C 45 10.074219 34.925781 0 22.5 0 Z M 22.5 0 " clip-rule="nonzero"/></clipPath><clipPath id="89bb35c3a2"><path d="M 0 0 L 45 0 L 45 45 L 0 45 Z M 0 0 " clip-rule="nonzero"/></clipPath><clipPath id="c5ec3919be"><path d="M 22.5 0 C 10.074219 0 0 10.074219 0 22.5 C 0 34.925781 10.074219 45 22.5 45 C 34.925781 45 45 34.925781 45 22.5 C 45 10.074219 34.925781 0 22.5 0 Z M 22.5 0 " clip-rule="nonzero"/></clipPath><clipPath id="a34549bf26"><rect x="0" width="45" y="0" height="45"/></clipPath><clipPath id="20b4094a69"><path d="M 7.882812 33 L 37.132812 33 L 37.132812 37.105469 L 7.882812 37.105469 Z M 7.882812 33 " clip-rule="nonzero"/></clipPath><clipPath id="947a0d3b85"><path d="M 7.882812 15 L 37.132812 15 L 37.132812 35 L 7.882812 35 Z M 7.882812 15 " clip-rule="nonzero"/></clipPath><clipPath id="bb3b7d5b62"><path d="M 17 7.855469 L 22 7.855469 L 22 11 L 17 11 Z M 17 7.855469 " clip-rule="nonzero"/></clipPath><clipPath id="4e167df194"><path d="M 10 7.855469 L 15 7.855469 L 15 11 L 10 11 Z M 10 7.855469 " clip-rule="nonzero"/></clipPath></defs><g clip-path="url(#575431af61)"><g transform="matrix(1, 0, 0, 1, 0, 0)"><g clip-path="url(#a34549bf26)"><g clip-path="url(#89bb35c3a2)"><g clip-path="url(#c5ec3919be)"><rect x="-9.9" width="64.8" fill="#ec2228" height="64.799999" y="-9.9" fill-opacity="1"/></g></g></g></g></g><g clip-path="url(#20b4094a69)"><path fill="#ffffff" d="M 36.527344 37.140625 L 8.464844 37.140625 C 8.148438 37.140625 7.894531 36.886719 7.894531 36.570312 L 7.894531 34.277344 C 7.894531 33.960938 8.148438 33.707031 8.464844 33.707031 L 36.527344 33.707031 C 36.84375 33.707031 37.097656 33.960938 37.097656 34.277344 L 37.097656 36.570312 C 37.097656 36.886719 36.84375 37.140625 36.527344 37.140625 Z M 9.039062 35.996094 L 35.953125 35.996094 L 35.953125 34.851562 L 9.039062 34.851562 Z M 9.039062 35.996094 " fill-opacity="1" fill-rule="nonzero"/></g><path fill="#ffffff" d="M 13.503906 23.398438 L 9.683594 23.398438 C 9.355469 23.398438 9.09375 23.125 9.113281 22.796875 L 9.613281 12.488281 C 9.628906 12.183594 9.878906 11.945312 10.183594 11.945312 C 10.191406 11.945312 13.054688 11.941406 13.046875 11.941406 C 13.355469 11.941406 13.605469 12.179688 13.621094 12.488281 L 14.074219 22.800781 C 14.082031 22.957031 14.023438 23.109375 13.917969 23.222656 C 13.808594 23.335938 13.660156 23.398438 13.503906 23.398438 Z M 10.285156 22.253906 L 12.90625 22.253906 L 12.5 13.085938 L 10.730469 13.089844 Z M 10.285156 22.253906 " fill-opacity="1" fill-rule="nonzero"/><path fill="#ffffff" d="M 13.148438 15.375 L 10.074219 15.375 C 9.757812 15.375 9.5 15.117188 9.5 14.800781 C 9.5 14.484375 9.757812 14.230469 10.074219 14.230469 L 13.148438 14.230469 C 13.464844 14.230469 13.722656 14.484375 13.722656 14.800781 C 13.722656 15.117188 13.464844 15.375 13.148438 15.375 Z M 13.148438 15.375 " fill-opacity="1" fill-rule="nonzero"/><path fill="#ffffff" d="M 13.273438 18.230469 L 9.933594 18.230469 C 9.617188 18.230469 9.363281 17.972656 9.363281 17.65625 C 9.363281 17.34375 9.617188 17.085938 9.933594 17.085938 L 13.273438 17.085938 C 13.589844 17.085938 13.847656 17.34375 13.847656 17.65625 C 13.847656 17.972656 13.589844 18.230469 13.273438 18.230469 Z M 13.273438 18.230469 " fill-opacity="1" fill-rule="nonzero"/><path fill="#ffffff" d="M 34.234375 34.851562 L 27.9375 34.851562 C 27.621094 34.851562 27.363281 34.59375 27.363281 34.277344 L 27.363281 24.542969 C 27.363281 24.226562 27.621094 23.972656 27.9375 23.972656 L 34.234375 23.972656 C 34.550781 23.972656 34.808594 24.226562 34.808594 24.542969 L 34.808594 34.277344 C 34.808594 34.59375 34.550781 34.851562 34.234375 34.851562 Z M 28.507812 33.707031 L 33.664062 33.707031 L 33.664062 25.117188 L 28.507812 25.117188 Z M 28.507812 33.707031 " fill-opacity="1" fill-rule="nonzero"/><path fill="#ffffff" d="M 14.191406 27.980469 L 10.757812 27.980469 C 10.441406 27.980469 10.183594 27.722656 10.183594 27.40625 L 10.183594 25.117188 C 10.183594 24.800781 10.441406 24.542969 10.757812 24.542969 L 14.191406 24.542969 C 14.507812 24.542969 14.765625 24.800781 14.765625 25.117188 L 14.765625 27.40625 C 14.765625 27.722656 14.507812 27.980469 14.191406 27.980469 Z M 11.328125 26.835938 L 13.621094 26.835938 L 13.621094 25.6875 L 11.328125 25.6875 Z M 11.328125 26.835938 " fill-opacity="1" fill-rule="nonzero"/><path fill="#ffffff" d="M 19.917969 27.980469 L 16.484375 27.980469 C 16.167969 27.980469 15.910156 27.722656 15.910156 27.40625 L 15.910156 25.117188 C 15.910156 24.800781 16.167969 24.542969 16.484375 24.542969 L 19.917969 24.542969 C 20.234375 24.542969 20.492188 24.800781 20.492188 25.117188 L 20.492188 27.40625 C 20.492188 27.722656 20.234375 27.980469 19.917969 27.980469 Z M 17.054688 26.835938 L 19.347656 26.835938 L 19.347656 25.6875 L 17.054688 25.6875 Z M 17.054688 26.835938 " fill-opacity="1" fill-rule="nonzero"/><path fill="#ffffff" d="M 25.644531 27.980469 L 22.210938 27.980469 C 21.894531 27.980469 21.636719 27.722656 21.636719 27.40625 L 21.636719 25.117188 C 21.636719 24.800781 21.894531 24.542969 22.210938 24.542969 L 25.644531 24.542969 C 25.960938 24.542969 26.21875 24.800781 26.21875 25.117188 L 26.21875 27.40625 C 26.21875 27.722656 25.960938 27.980469 25.644531 27.980469 Z M 22.78125 26.835938 L 25.074219 26.835938 L 25.074219 25.6875 L 22.78125 25.6875 Z M 22.78125 26.835938 " fill-opacity="1" fill-rule="nonzero"/><path fill="#ffffff" d="M 14.191406 32.558594 L 10.757812 32.558594 C 10.441406 32.558594 10.183594 32.304688 10.183594 31.988281 L 10.183594 29.699219 C 10.183594 29.382812 10.441406 29.125 10.757812 29.125 L 14.191406 29.125 C 14.507812 29.125 14.765625 29.382812 14.765625 29.699219 L 14.765625 31.988281 C 14.765625 32.304688 14.507812 32.558594 14.191406 32.558594 Z M 11.328125 31.414062 L 13.621094 31.414062 L 13.621094 30.269531 L 11.328125 30.269531 Z M 11.328125 31.414062 " fill-opacity="1" fill-rule="nonzero"/><path fill="#ffffff" d="M 19.917969 32.558594 L 16.484375 32.558594 C 16.167969 32.558594 15.910156 32.304688 15.910156 31.988281 L 15.910156 29.699219 C 15.910156 29.382812 16.167969 29.125 16.484375 29.125 L 19.917969 29.125 C 20.234375 29.125 20.492188 29.382812 20.492188 29.699219 L 20.492188 31.988281 C 20.492188 32.304688 20.234375 32.558594 19.917969 32.558594 Z M 17.054688 31.414062 L 19.347656 31.414062 L 19.347656 30.269531 L 17.054688 30.269531 Z M 17.054688 31.414062 " fill-opacity="1" fill-rule="nonzero"/><path fill="#ffffff" d="M 25.644531 32.558594 L 22.210938 32.558594 C 21.894531 32.558594 21.636719 32.304688 21.636719 31.988281 L 21.636719 29.699219 C 21.636719 29.382812 21.894531 29.125 22.210938 29.125 L 25.644531 29.125 C 25.960938 29.125 26.21875 29.382812 26.21875 29.699219 L 26.21875 31.988281 C 26.21875 32.304688 25.960938 32.558594 25.644531 32.558594 Z M 22.78125 31.414062 L 25.074219 31.414062 L 25.074219 30.269531 L 22.78125 30.269531 Z M 22.78125 31.414062 " fill-opacity="1" fill-rule="nonzero"/><path fill="#ffffff" d="M 20.375 23.398438 L 16.554688 23.398438 C 16.230469 23.398438 15.96875 23.125 15.984375 22.796875 L 16.484375 12.488281 C 16.5 12.183594 16.75 11.945312 17.054688 11.945312 C 17.0625 11.945312 19.925781 11.941406 19.917969 11.941406 C 20.226562 11.941406 20.476562 12.179688 20.492188 12.488281 L 20.945312 22.800781 C 20.960938 23.125 20.699219 23.398438 20.375 23.398438 Z M 17.15625 22.253906 L 19.777344 22.253906 L 19.371094 13.085938 L 17.601562 13.089844 Z M 17.15625 22.253906 " fill-opacity="1" fill-rule="nonzero"/><path fill="#ffffff" d="M 20.019531 15.375 L 16.945312 15.375 C 16.628906 15.375 16.371094 15.117188 16.371094 14.800781 C 16.371094 14.484375 16.628906 14.230469 16.945312 14.230469 L 20.019531 14.230469 C 20.335938 14.230469 20.59375 14.484375 20.59375 14.800781 C 20.59375 15.117188 20.335938 15.375 20.019531 15.375 Z M 20.019531 15.375 " fill-opacity="1" fill-rule="nonzero"/><path fill="#ffffff" d="M 20.148438 18.230469 L 16.804688 18.230469 C 16.488281 18.230469 16.234375 17.972656 16.234375 17.65625 C 16.234375 17.34375 16.488281 17.085938 16.804688 17.085938 L 20.148438 17.085938 C 20.464844 17.085938 20.71875 17.34375 20.71875 17.65625 C 20.71875 17.972656 20.460938 18.230469 20.148438 18.230469 Z M 20.148438 18.230469 " fill-opacity="1" fill-rule="nonzero"/><g clip-path="url(#947a0d3b85)"><path fill="#ffffff" d="M 36.527344 34.851562 L 8.464844 34.851562 C 8.148438 34.851562 7.894531 34.59375 7.894531 34.277344 L 7.894531 22.824219 C 7.894531 22.507812 8.148438 22.253906 8.464844 22.253906 L 25.644531 22.253906 L 25.644531 20.535156 C 25.644531 20.296875 25.789062 20.085938 26.011719 20 L 36.320312 15.992188 C 36.695312 15.847656 37.097656 16.125 37.097656 16.527344 L 37.097656 34.277344 C 37.097656 34.59375 36.84375 34.851562 36.527344 34.851562 Z M 9.039062 33.707031 L 35.953125 33.707031 L 35.953125 17.363281 L 26.792969 20.925781 L 26.792969 22.824219 C 26.792969 23.140625 26.535156 23.398438 26.21875 23.398438 L 9.039062 23.398438 Z M 9.039062 33.707031 " fill-opacity="1" fill-rule="nonzero"/></g><path fill="#ffffff" d="M 26.21875 23.398438 L 22.78125 23.398438 C 22.464844 23.398438 22.210938 23.140625 22.210938 22.824219 L 22.210938 18.816406 C 22.210938 18.578125 22.359375 18.363281 22.585938 18.28125 L 33.464844 14.269531 C 33.640625 14.207031 33.835938 14.230469 33.992188 14.339844 C 34.144531 14.445312 34.234375 14.621094 34.234375 14.808594 L 34.234375 17.632812 C 34.234375 17.949219 33.980469 18.207031 33.664062 18.207031 C 33.347656 18.207031 33.089844 17.949219 33.089844 17.632812 L 33.089844 15.628906 L 23.355469 19.214844 L 23.355469 22.253906 L 26.21875 22.253906 C 26.535156 22.253906 26.792969 22.507812 26.792969 22.824219 C 26.792969 23.140625 26.535156 23.398438 26.21875 23.398438 Z M 26.21875 23.398438 " fill-opacity="1" fill-rule="nonzero"/><g clip-path="url(#bb3b7d5b62)"><path fill="#ffffff" d="M 17.636719 10.277344 C 17.472656 10.003906 17.5625 9.652344 17.832031 9.492188 C 18.191406 9.277344 18.460938 9.257812 18.640625 9.246094 C 18.769531 9.238281 18.816406 9.234375 18.933594 9.164062 C 19.054688 9.09375 19.078125 9.050781 19.144531 8.945312 C 19.242188 8.789062 19.382812 8.558594 19.742188 8.34375 C 20.097656 8.132812 20.371094 8.113281 20.550781 8.101562 C 20.675781 8.09375 20.722656 8.089844 20.84375 8.019531 C 21.113281 7.855469 21.464844 7.945312 21.628906 8.214844 C 21.792969 8.484375 21.703125 8.835938 21.433594 9 C 21.074219 9.214844 20.804688 9.234375 20.625 9.246094 C 20.5 9.253906 20.449219 9.253906 20.332031 9.328125 C 20.210938 9.398438 20.1875 9.441406 20.121094 9.546875 C 20.023438 9.699219 19.882812 9.929688 19.523438 10.144531 C 19.167969 10.359375 18.894531 10.378906 18.714844 10.390625 C 18.589844 10.398438 18.542969 10.402344 18.421875 10.472656 C 18.148438 10.636719 17.800781 10.546875 17.636719 10.277344 Z M 17.636719 10.277344 " fill-opacity="1" fill-rule="nonzero"/></g><g clip-path="url(#4e167df194)"><path fill="#ffffff" d="M 10.691406 10.277344 C 10.527344 10.003906 10.617188 9.652344 10.886719 9.492188 C 11.246094 9.277344 11.515625 9.257812 11.695312 9.246094 C 11.824219 9.238281 11.871094 9.234375 11.988281 9.164062 C 12.109375 9.09375 12.132812 9.050781 12.199219 8.945312 C 12.296875 8.789062 12.4375 8.558594 12.796875 8.34375 C 13.152344 8.132812 13.425781 8.113281 13.605469 8.101562 C 13.730469 8.09375 13.777344 8.089844 13.898438 8.019531 C 14.167969 7.855469 14.519531 7.945312 14.683594 8.214844 C 14.847656 8.484375 14.757812 8.835938 14.488281 9 C 14.128906 9.214844 13.859375 9.234375 13.679688 9.246094 C 13.554688 9.253906 13.503906 9.253906 13.386719 9.328125 C 13.265625 9.398438 13.242188 9.441406 13.175781 9.546875 C 13.078125 9.699219 12.9375 9.929688 12.578125 10.144531 C 12.222656 10.359375 11.949219 10.378906 11.769531 10.390625 C 11.644531 10.398438 11.597656 10.402344 11.476562 10.472656 C 11.203125 10.636719 10.855469 10.546875 10.691406 10.277344 Z M 10.691406 10.277344 " fill-opacity="1" fill-rule="nonzero"/></g></svg>