<svg xmlns="http://www.w3.org/2000/svg" xmlns:xlink="http://www.w3.org/1999/xlink" width="45" zoomAndPan="magnify" viewBox="0 0 33.75 33.749998" height="45" preserveAspectRatio="xMidYMid meet" version="1.0"><defs><clipPath id="bfeb4082a5"><path d="M 0 0 L 33.5 0 L 33.5 33.5 L 0 33.5 Z M 0 0 " clip-rule="nonzero"/></clipPath><clipPath id="222c9ab0ae"><path d="M 0 0 L 33.5 0 L 33.5 33.5 L 0 33.5 Z M 0 0 " clip-rule="nonzero"/></clipPath><clipPath id="1016f15cbe"><path d="M 16.75 0 C 7.5 0 0 7.5 0 16.75 C 0 26 7.5 33.5 16.75 33.5 C 26 33.5 33.5 26 33.5 16.75 C 33.5 7.5 26 0 16.75 0 Z M 16.75 0 " clip-rule="nonzero"/></clipPath><clipPath id="41c36203d4"><path d="M 16.75 0 C 7.5 0 0 7.5 0 16.75 C 0 26 7.5 33.5 16.75 33.5 C 26 33.5 33.5 26 33.5 16.75 C 33.5 7.5 26 0 16.75 0 Z M 16.75 0 " clip-rule="nonzero"/></clipPath><clipPath id="360175839c"><path d="M 10 19 L 22 19 L 22 30.191406 L 10 30.191406 Z M 10 19 " clip-rule="nonzero"/></clipPath><clipPath id="0509db4cd8"><path d="M 5.800781 3.390625 L 27.578125 3.390625 L 27.578125 23.824219 L 5.800781 23.824219 Z M 5.800781 3.390625 " clip-rule="nonzero"/></clipPath></defs><g clip-path="url(#bfeb4082a5)"><rect x="-3.375" width="40.5" fill="#ffffff" y="-3.375" height="40.499998" fill-opacity="1"/><rect x="-3.375" width="40.5" fill="#ffffff" y="-3.375" height="40.499998" fill-opacity="1"/></g><g clip-path="url(#222c9ab0ae)"><g clip-path="url(#1016f15cbe)"><g clip-path="url(#41c36203d4)"><rect x="-3.375" width="40.5" fill="#ec2228" y="-3.375" height="40.499998" fill-opacity="1"/></g></g></g><g clip-path="url(#360175839c)"><path fill="#ffffff" d="M 21.964844 21.351562 C 21.960938 21.308594 21.960938 21.265625 21.953125 21.21875 C 21.953125 21.214844 21.953125 21.210938 21.953125 21.207031 C 21.949219 21.160156 21.9375 21.113281 21.929688 21.066406 C 21.925781 21.042969 21.917969 21.023438 21.902344 21.003906 C 21.867188 20.960938 21.804688 20.9375 21.75 20.957031 C 21.738281 20.960938 21.730469 20.960938 21.722656 20.96875 C 21.71875 20.96875 21.714844 20.96875 21.710938 20.972656 C 21.707031 20.976562 21.699219 20.980469 21.695312 20.984375 L 20.320312 22.191406 C 20.160156 22.332031 19.917969 22.3125 19.777344 22.152344 L 19.035156 21.308594 C 18.898438 21.148438 18.910156 20.90625 19.070312 20.765625 L 20.445312 19.558594 C 20.453125 19.558594 20.457031 19.550781 20.460938 19.546875 C 20.472656 19.535156 20.480469 19.519531 20.488281 19.503906 C 20.488281 19.5 20.492188 19.492188 20.492188 19.488281 C 20.492188 19.480469 20.492188 19.476562 20.496094 19.46875 C 20.496094 19.46875 20.496094 19.464844 20.496094 19.460938 C 20.496094 19.453125 20.496094 19.441406 20.496094 19.433594 C 20.492188 19.40625 20.480469 19.378906 20.460938 19.359375 C 20.457031 19.355469 20.453125 19.351562 20.449219 19.34375 C 20.445312 19.34375 20.445312 19.34375 20.441406 19.339844 C 20.429688 19.332031 20.414062 19.320312 20.398438 19.316406 C 20.355469 19.300781 20.308594 19.289062 20.265625 19.277344 C 20.261719 19.273438 20.253906 19.273438 20.253906 19.273438 C 20.207031 19.261719 20.164062 19.25 20.117188 19.242188 C 20.117188 19.242188 20.113281 19.242188 20.109375 19.242188 C 20.054688 19.230469 19.996094 19.222656 19.9375 19.21875 C 19.933594 19.21875 19.933594 19.21875 19.933594 19.21875 C 19.910156 19.214844 19.890625 19.210938 19.863281 19.210938 C 19.851562 19.207031 19.839844 19.207031 19.828125 19.207031 C 19.753906 19.203125 19.683594 19.203125 19.609375 19.207031 C 19.582031 19.207031 19.558594 19.207031 19.535156 19.207031 C 19.488281 19.210938 19.441406 19.214844 19.390625 19.222656 C 19.371094 19.226562 19.347656 19.230469 19.328125 19.230469 C 19.296875 19.234375 19.269531 19.242188 19.242188 19.246094 C 19.183594 19.257812 19.125 19.273438 19.070312 19.285156 C 19.058594 19.289062 19.046875 19.292969 19.035156 19.296875 C 19.015625 19.300781 19 19.308594 18.984375 19.3125 C 18.96875 19.320312 18.945312 19.324219 18.929688 19.332031 C 18.882812 19.347656 18.835938 19.367188 18.789062 19.386719 C 18.710938 19.417969 18.632812 19.457031 18.554688 19.503906 C 18.523438 19.519531 18.488281 19.539062 18.457031 19.558594 C 18.4375 19.574219 18.414062 19.589844 18.394531 19.605469 C 18.320312 19.652344 18.25 19.707031 18.183594 19.769531 C 18.171875 19.777344 18.160156 19.785156 18.148438 19.796875 C 18.148438 19.796875 18.144531 19.800781 18.140625 19.804688 C 18.132812 19.8125 18.125 19.820312 18.121094 19.824219 C 18.113281 19.828125 18.113281 19.832031 18.109375 19.835938 C 18.101562 19.84375 18.09375 19.847656 18.089844 19.855469 C 18.085938 19.855469 18.082031 19.859375 18.078125 19.867188 C 18.070312 19.871094 18.066406 19.878906 18.058594 19.882812 C 18.058594 19.886719 18.054688 19.890625 18.046875 19.894531 C 18.042969 19.902344 18.035156 19.90625 18.03125 19.910156 C 18.027344 19.914062 18.023438 19.921875 18.019531 19.921875 C 18.011719 19.929688 18.011719 19.933594 18.003906 19.941406 C 18 19.945312 17.996094 19.949219 17.992188 19.953125 C 17.988281 19.960938 17.980469 19.96875 17.976562 19.972656 C 17.972656 19.976562 17.96875 19.980469 17.964844 19.984375 C 17.957031 19.992188 17.953125 20 17.945312 20.007812 C 17.941406 20.011719 17.941406 20.011719 17.9375 20.015625 C 17.929688 20.027344 17.921875 20.035156 17.914062 20.046875 C 17.910156 20.046875 17.910156 20.050781 17.90625 20.054688 C 17.898438 20.058594 17.894531 20.070312 17.886719 20.078125 C 17.886719 20.082031 17.882812 20.082031 17.878906 20.089844 C 17.875 20.09375 17.867188 20.101562 17.863281 20.109375 C 17.859375 20.113281 17.855469 20.117188 17.851562 20.121094 C 17.851562 20.128906 17.84375 20.132812 17.839844 20.140625 C 17.835938 20.144531 17.832031 20.152344 17.828125 20.152344 C 17.824219 20.164062 17.820312 20.167969 17.816406 20.171875 C 17.8125 20.175781 17.808594 20.183594 17.804688 20.1875 C 17.800781 20.195312 17.796875 20.199219 17.792969 20.207031 C 17.789062 20.210938 17.785156 20.214844 17.785156 20.21875 C 17.78125 20.226562 17.773438 20.234375 17.773438 20.242188 C 17.769531 20.242188 17.765625 20.25 17.761719 20.253906 C 17.757812 20.261719 17.753906 20.269531 17.75 20.277344 C 17.746094 20.277344 17.742188 20.285156 17.742188 20.289062 C 17.734375 20.300781 17.726562 20.308594 17.722656 20.320312 C 17.71875 20.320312 17.71875 20.320312 17.71875 20.320312 C 17.714844 20.332031 17.707031 20.34375 17.703125 20.355469 C 17.699219 20.355469 17.695312 20.363281 17.695312 20.367188 C 17.691406 20.375 17.6875 20.378906 17.679688 20.390625 C 17.679688 20.390625 17.675781 20.398438 17.675781 20.402344 C 17.667969 20.410156 17.667969 20.414062 17.664062 20.425781 C 17.660156 20.429688 17.660156 20.433594 17.65625 20.4375 C 17.652344 20.445312 17.648438 20.453125 17.648438 20.457031 C 17.644531 20.464844 17.640625 20.46875 17.636719 20.472656 C 17.636719 20.480469 17.632812 20.488281 17.628906 20.492188 C 17.625 20.5 17.625 20.503906 17.621094 20.507812 C 17.617188 20.515625 17.613281 20.523438 17.613281 20.527344 C 17.609375 20.535156 17.605469 20.539062 17.605469 20.542969 C 17.601562 20.550781 17.597656 20.5625 17.59375 20.566406 C 17.589844 20.570312 17.589844 20.574219 17.589844 20.582031 C 17.585938 20.589844 17.578125 20.597656 17.578125 20.605469 C 17.578125 20.609375 17.574219 20.613281 17.574219 20.617188 C 17.566406 20.628906 17.5625 20.640625 17.558594 20.652344 C 17.554688 20.652344 17.554688 20.65625 17.554688 20.660156 C 17.550781 20.671875 17.546875 20.679688 17.542969 20.6875 C 17.542969 20.691406 17.542969 20.699219 17.539062 20.699219 C 17.535156 20.707031 17.535156 20.71875 17.535156 20.722656 C 17.53125 20.730469 17.527344 20.734375 17.527344 20.742188 C 17.523438 20.746094 17.523438 20.753906 17.519531 20.761719 C 17.519531 20.765625 17.515625 20.773438 17.515625 20.777344 C 17.511719 20.785156 17.511719 20.789062 17.507812 20.800781 C 17.507812 20.804688 17.503906 20.808594 17.5 20.8125 C 17.5 20.824219 17.5 20.828125 17.496094 20.835938 C 17.496094 20.839844 17.492188 20.84375 17.492188 20.851562 C 17.488281 20.859375 17.488281 20.867188 17.484375 20.875 C 17.484375 20.878906 17.484375 20.882812 17.480469 20.890625 C 17.476562 20.898438 17.476562 20.90625 17.476562 20.914062 C 17.472656 20.917969 17.472656 20.921875 17.472656 20.925781 C 17.46875 20.9375 17.464844 20.949219 17.464844 20.964844 C 17.464844 20.964844 17.464844 20.964844 17.460938 20.964844 C 17.457031 20.976562 17.457031 20.988281 17.453125 21.003906 C 17.453125 21.003906 17.453125 21.007812 17.453125 21.015625 C 17.449219 21.023438 17.449219 21.03125 17.445312 21.039062 C 17.445312 21.042969 17.441406 21.050781 17.441406 21.054688 C 17.441406 21.0625 17.441406 21.070312 17.4375 21.078125 C 17.4375 21.082031 17.4375 21.085938 17.433594 21.09375 C 17.433594 21.101562 17.433594 21.105469 17.429688 21.117188 C 17.429688 21.121094 17.429688 21.125 17.429688 21.128906 C 17.429688 21.140625 17.425781 21.144531 17.425781 21.152344 C 17.425781 21.160156 17.425781 21.164062 17.421875 21.167969 C 17.421875 21.175781 17.421875 21.1875 17.417969 21.191406 C 17.417969 21.199219 17.417969 21.203125 17.417969 21.210938 C 17.417969 21.214844 17.417969 21.222656 17.417969 21.230469 C 17.414062 21.234375 17.414062 21.242188 17.414062 21.246094 C 17.414062 21.253906 17.410156 21.265625 17.410156 21.277344 C 17.410156 21.277344 17.410156 21.28125 17.410156 21.285156 C 17.40625 21.296875 17.40625 21.3125 17.40625 21.324219 C 17.40625 21.324219 17.40625 21.328125 17.40625 21.332031 C 17.40625 21.34375 17.40625 21.351562 17.40625 21.359375 C 17.40625 21.367188 17.40625 21.371094 17.40625 21.375 C 17.40625 21.382812 17.402344 21.390625 17.402344 21.402344 C 17.402344 21.402344 17.402344 21.410156 17.402344 21.414062 C 17.402344 21.425781 17.402344 21.429688 17.402344 21.4375 C 17.402344 21.445312 17.402344 21.449219 17.402344 21.453125 C 17.402344 21.460938 17.402344 21.472656 17.402344 21.476562 C 17.402344 21.484375 17.402344 21.488281 17.402344 21.492188 C 17.402344 21.5 17.402344 21.507812 17.402344 21.515625 C 17.402344 21.519531 17.402344 21.527344 17.402344 21.53125 C 17.402344 21.539062 17.402344 21.546875 17.402344 21.554688 C 17.402344 21.5625 17.402344 21.566406 17.402344 21.570312 C 17.402344 21.578125 17.402344 21.585938 17.40625 21.597656 C 17.40625 21.601562 17.40625 21.605469 17.40625 21.609375 C 17.40625 21.621094 17.40625 21.632812 17.40625 21.648438 C 17.40625 21.664062 17.40625 21.675781 17.410156 21.6875 C 17.410156 21.6875 17.410156 21.695312 17.410156 21.699219 C 17.410156 21.707031 17.414062 21.714844 17.414062 21.722656 C 17.414062 21.730469 17.414062 21.734375 17.414062 21.738281 C 17.417969 21.746094 17.417969 21.753906 17.417969 21.761719 C 17.417969 21.765625 17.417969 21.773438 17.417969 21.777344 C 17.417969 21.785156 17.421875 21.792969 17.421875 21.800781 C 17.421875 21.804688 17.425781 21.8125 17.425781 21.816406 C 17.425781 21.824219 17.429688 21.832031 17.429688 21.839844 C 17.429688 21.847656 17.429688 21.851562 17.429688 21.855469 C 17.429688 21.863281 17.433594 21.871094 17.433594 21.878906 C 17.433594 21.882812 17.4375 21.890625 17.4375 21.894531 C 17.4375 21.894531 17.4375 21.898438 17.4375 21.898438 C 17.46875 22.074219 17.40625 22.25 17.273438 22.371094 L 16.691406 22.878906 L 14.5625 20.449219 L 13.925781 19.71875 C 13.378906 19.09375 12.421875 19.027344 11.796875 19.578125 L 11.746094 19.617188 C 11.121094 20.167969 11.058594 21.121094 11.605469 21.75 L 12.246094 22.480469 L 14.375 24.910156 L 13.789062 25.421875 C 13.660156 25.535156 13.472656 25.574219 13.304688 25.519531 C 13.304688 25.519531 13.300781 25.519531 13.300781 25.519531 C 13.296875 25.515625 13.289062 25.511719 13.285156 25.511719 C 13.277344 25.511719 13.269531 25.507812 13.265625 25.507812 C 13.257812 25.503906 13.253906 25.5 13.246094 25.5 C 13.242188 25.5 13.230469 25.5 13.226562 25.496094 C 13.21875 25.492188 13.214844 25.492188 13.210938 25.488281 C 13.203125 25.488281 13.195312 25.488281 13.1875 25.484375 C 13.183594 25.484375 13.175781 25.480469 13.175781 25.480469 C 13.164062 25.476562 13.15625 25.476562 13.152344 25.476562 C 13.144531 25.472656 13.140625 25.472656 13.136719 25.472656 C 13.128906 25.46875 13.117188 25.464844 13.109375 25.464844 C 13.105469 25.464844 13.101562 25.464844 13.097656 25.464844 C 13.085938 25.460938 13.074219 25.457031 13.058594 25.453125 C 13.050781 25.453125 13.035156 25.449219 13.023438 25.445312 C 13.015625 25.445312 13.015625 25.445312 13.011719 25.445312 C 13.003906 25.445312 12.992188 25.441406 12.984375 25.441406 C 12.980469 25.441406 12.972656 25.4375 12.96875 25.4375 C 12.960938 25.4375 12.953125 25.433594 12.945312 25.433594 C 12.941406 25.433594 12.933594 25.433594 12.929688 25.433594 C 12.921875 25.433594 12.914062 25.429688 12.90625 25.429688 C 12.902344 25.429688 12.898438 25.429688 12.890625 25.425781 C 12.882812 25.425781 12.878906 25.425781 12.867188 25.421875 C 12.863281 25.421875 12.859375 25.421875 12.855469 25.421875 C 12.84375 25.421875 12.835938 25.421875 12.832031 25.421875 C 12.824219 25.421875 12.820312 25.417969 12.816406 25.417969 C 12.808594 25.417969 12.796875 25.417969 12.789062 25.417969 C 12.789062 25.414062 12.78125 25.414062 12.777344 25.414062 C 12.765625 25.414062 12.757812 25.414062 12.75 25.410156 C 12.742188 25.410156 12.742188 25.410156 12.738281 25.410156 C 12.726562 25.410156 12.710938 25.410156 12.699219 25.410156 C 12.695312 25.410156 12.695312 25.410156 12.691406 25.410156 C 12.679688 25.410156 12.671875 25.410156 12.660156 25.410156 C 12.65625 25.410156 12.652344 25.410156 12.648438 25.410156 C 12.640625 25.410156 12.628906 25.410156 12.621094 25.410156 C 12.617188 25.410156 12.613281 25.410156 12.605469 25.410156 C 12.597656 25.410156 12.59375 25.410156 12.582031 25.410156 C 12.578125 25.410156 12.570312 25.410156 12.570312 25.410156 C 12.558594 25.410156 12.550781 25.410156 12.546875 25.410156 C 12.539062 25.410156 12.535156 25.410156 12.527344 25.410156 C 12.523438 25.410156 12.515625 25.410156 12.503906 25.410156 C 12.503906 25.410156 12.496094 25.410156 12.492188 25.410156 C 12.480469 25.410156 12.476562 25.410156 12.46875 25.410156 C 12.460938 25.410156 12.457031 25.410156 12.453125 25.410156 C 12.445312 25.414062 12.433594 25.414062 12.425781 25.414062 C 12.421875 25.414062 12.417969 25.414062 12.410156 25.414062 C 12.398438 25.417969 12.390625 25.417969 12.378906 25.421875 C 12.378906 25.421875 12.375 25.421875 12.375 25.421875 C 12.363281 25.421875 12.347656 25.421875 12.335938 25.421875 C 12.332031 25.421875 12.328125 25.421875 12.324219 25.425781 C 12.316406 25.425781 12.308594 25.425781 12.296875 25.429688 C 12.292969 25.429688 12.285156 25.429688 12.285156 25.429688 C 12.273438 25.433594 12.265625 25.433594 12.261719 25.433594 C 12.253906 25.433594 12.25 25.433594 12.242188 25.433594 C 12.238281 25.4375 12.230469 25.4375 12.222656 25.441406 C 12.21875 25.441406 12.210938 25.441406 12.207031 25.445312 C 12.195312 25.445312 12.191406 25.445312 12.183594 25.445312 C 12.175781 25.445312 12.171875 25.449219 12.167969 25.449219 C 12.160156 25.453125 12.152344 25.453125 12.144531 25.453125 C 12.136719 25.453125 12.132812 25.453125 12.128906 25.457031 C 12.121094 25.457031 12.113281 25.460938 12.105469 25.460938 C 12.101562 25.464844 12.09375 25.464844 12.09375 25.464844 C 12.082031 25.464844 12.070312 25.46875 12.0625 25.472656 C 12.058594 25.472656 12.058594 25.472656 12.054688 25.476562 C 12.039062 25.476562 12.027344 25.480469 12.015625 25.484375 C 12.011719 25.484375 12.011719 25.484375 12.007812 25.488281 C 11.996094 25.488281 11.988281 25.488281 11.980469 25.492188 C 11.972656 25.496094 11.96875 25.496094 11.964844 25.5 C 11.957031 25.5 11.949219 25.5 11.941406 25.503906 C 11.933594 25.507812 11.929688 25.507812 11.925781 25.511719 C 11.917969 25.511719 11.910156 25.511719 11.902344 25.515625 C 11.898438 25.519531 11.890625 25.519531 11.886719 25.523438 C 11.878906 25.523438 11.875 25.527344 11.863281 25.527344 C 11.859375 25.53125 11.855469 25.535156 11.851562 25.535156 C 11.84375 25.535156 11.835938 25.539062 11.828125 25.542969 C 11.824219 25.546875 11.820312 25.546875 11.8125 25.546875 C 11.808594 25.550781 11.796875 25.554688 11.789062 25.558594 C 11.785156 25.558594 11.78125 25.558594 11.773438 25.5625 C 11.769531 25.566406 11.761719 25.570312 11.75 25.570312 C 11.75 25.570312 11.742188 25.574219 11.738281 25.578125 C 11.730469 25.578125 11.71875 25.585938 11.707031 25.589844 C 11.707031 25.589844 11.703125 25.589844 11.703125 25.589844 C 11.691406 25.597656 11.679688 25.601562 11.667969 25.605469 C 11.664062 25.609375 11.660156 25.609375 11.65625 25.613281 C 11.648438 25.613281 11.636719 25.621094 11.632812 25.625 C 11.625 25.625 11.621094 25.625 11.617188 25.628906 C 11.609375 25.632812 11.601562 25.636719 11.59375 25.640625 C 11.59375 25.644531 11.585938 25.644531 11.582031 25.648438 C 11.574219 25.648438 11.566406 25.65625 11.558594 25.660156 C 11.554688 25.660156 11.550781 25.664062 11.546875 25.667969 C 11.539062 25.671875 11.53125 25.671875 11.523438 25.675781 C 11.519531 25.679688 11.511719 25.683594 11.511719 25.683594 C 11.5 25.6875 11.496094 25.695312 11.488281 25.695312 C 11.484375 25.699219 11.476562 25.703125 11.476562 25.707031 C 11.46875 25.707031 11.460938 25.714844 11.453125 25.714844 C 11.449219 25.71875 11.445312 25.722656 11.441406 25.726562 C 11.433594 25.726562 11.421875 25.734375 11.414062 25.738281 C 11.410156 25.742188 11.410156 25.742188 11.40625 25.746094 C 11.394531 25.75 11.382812 25.761719 11.371094 25.765625 C 11.367188 25.769531 11.363281 25.769531 11.363281 25.773438 C 11.351562 25.777344 11.34375 25.785156 11.339844 25.789062 C 11.332031 25.792969 11.332031 25.796875 11.324219 25.796875 C 11.320312 25.800781 11.308594 25.808594 11.304688 25.8125 C 11.296875 25.816406 11.296875 25.820312 11.289062 25.820312 C 11.285156 25.824219 11.277344 25.832031 11.273438 25.835938 C 11.265625 25.839844 11.261719 25.839844 11.257812 25.84375 C 11.25 25.851562 11.242188 25.851562 11.238281 25.859375 C 11.234375 25.863281 11.226562 25.863281 11.222656 25.871094 C 11.214844 25.875 11.210938 25.878906 11.207031 25.886719 C 11.199219 25.886719 11.195312 25.890625 11.191406 25.894531 C 11.183594 25.898438 11.179688 25.90625 11.171875 25.910156 C 11.167969 25.914062 11.164062 25.917969 11.160156 25.921875 C 11.152344 25.925781 11.144531 25.933594 11.136719 25.9375 C 11.136719 25.941406 11.128906 25.945312 11.125 25.945312 C 11.117188 25.957031 11.105469 25.964844 11.09375 25.972656 C 11.046875 26.015625 11 26.0625 10.953125 26.105469 C 10.9375 26.125 10.921875 26.144531 10.902344 26.164062 C 10.890625 26.175781 10.882812 26.1875 10.871094 26.199219 C 10.84375 26.230469 10.820312 26.261719 10.796875 26.292969 C 10.773438 26.320312 10.75 26.351562 10.726562 26.382812 C 10.71875 26.394531 10.710938 26.40625 10.703125 26.421875 C 10.695312 26.429688 10.691406 26.4375 10.683594 26.445312 C 10.679688 26.457031 10.671875 26.46875 10.664062 26.480469 C 10.648438 26.5 10.636719 26.523438 10.625 26.542969 C 10.605469 26.578125 10.585938 26.613281 10.566406 26.648438 C 10.546875 26.6875 10.53125 26.726562 10.511719 26.765625 C 10.503906 26.78125 10.5 26.796875 10.492188 26.8125 C 10.449219 26.914062 10.414062 27.019531 10.386719 27.125 C 10.386719 27.132812 10.386719 27.140625 10.382812 27.152344 C 10.375 27.179688 10.367188 27.207031 10.363281 27.230469 C 10.363281 27.238281 10.363281 27.246094 10.359375 27.253906 C 10.351562 27.308594 10.339844 27.363281 10.332031 27.414062 C 10.328125 27.457031 10.324219 27.492188 10.320312 27.53125 C 10.316406 27.582031 10.316406 27.632812 10.316406 27.683594 C 10.316406 27.726562 10.316406 27.765625 10.316406 27.808594 C 10.320312 27.820312 10.320312 27.832031 10.320312 27.839844 C 10.324219 27.886719 10.328125 27.929688 10.332031 27.972656 C 10.335938 27.992188 10.339844 28.015625 10.339844 28.035156 C 10.347656 28.0625 10.351562 28.085938 10.355469 28.109375 C 10.359375 28.132812 10.367188 28.152344 10.382812 28.171875 C 10.386719 28.175781 10.386719 28.175781 10.386719 28.179688 C 10.390625 28.183594 10.394531 28.1875 10.398438 28.1875 C 10.398438 28.191406 10.402344 28.195312 10.40625 28.199219 C 10.410156 28.199219 10.410156 28.199219 10.414062 28.203125 C 10.4375 28.21875 10.464844 28.230469 10.496094 28.230469 C 10.503906 28.230469 10.511719 28.230469 10.523438 28.226562 C 10.523438 28.226562 10.527344 28.226562 10.53125 28.222656 C 10.546875 28.21875 10.5625 28.214844 10.574219 28.207031 C 10.578125 28.203125 10.585938 28.199219 10.589844 28.195312 L 11.96875 26.988281 C 12.128906 26.847656 12.367188 26.867188 12.507812 27.023438 L 13.253906 27.871094 C 13.390625 28.03125 13.375 28.273438 13.214844 28.414062 L 11.839844 29.617188 C 11.753906 29.691406 11.785156 29.828125 11.886719 29.863281 C 12.628906 30.105469 13.476562 29.960938 14.105469 29.410156 C 14.117188 29.402344 14.128906 29.394531 14.136719 29.382812 C 14.140625 29.378906 14.140625 29.375 14.148438 29.371094 C 14.152344 29.367188 14.160156 29.359375 14.167969 29.355469 C 14.171875 29.351562 14.175781 29.347656 14.179688 29.34375 C 14.1875 29.335938 14.191406 29.332031 14.199219 29.324219 C 14.199219 29.324219 14.207031 29.316406 14.210938 29.3125 C 14.214844 29.308594 14.222656 29.300781 14.226562 29.296875 C 14.230469 29.292969 14.234375 29.289062 14.238281 29.285156 C 14.242188 29.277344 14.25 29.273438 14.253906 29.265625 C 14.257812 29.265625 14.261719 29.257812 14.265625 29.257812 C 14.273438 29.25 14.277344 29.246094 14.28125 29.238281 C 14.289062 29.234375 14.289062 29.230469 14.292969 29.222656 C 14.300781 29.21875 14.304688 29.210938 14.3125 29.207031 C 14.3125 29.203125 14.316406 29.199219 14.324219 29.195312 C 14.328125 29.1875 14.335938 29.179688 14.339844 29.171875 C 14.34375 29.167969 14.347656 29.164062 14.347656 29.164062 C 14.359375 29.152344 14.367188 29.140625 14.371094 29.132812 C 14.375 29.132812 14.378906 29.128906 14.378906 29.125 C 14.386719 29.117188 14.390625 29.109375 14.398438 29.101562 C 14.402344 29.097656 14.402344 29.09375 14.40625 29.089844 C 14.414062 29.085938 14.417969 29.074219 14.425781 29.070312 C 14.425781 29.066406 14.429688 29.0625 14.433594 29.058594 C 14.4375 29.050781 14.441406 29.042969 14.449219 29.039062 C 14.449219 29.035156 14.453125 29.027344 14.457031 29.023438 C 14.460938 29.015625 14.464844 29.011719 14.472656 29.003906 C 14.472656 29 14.476562 28.996094 14.480469 28.992188 C 14.484375 28.984375 14.488281 28.980469 14.496094 28.972656 C 14.496094 28.96875 14.5 28.960938 14.503906 28.960938 C 14.503906 28.949219 14.511719 28.945312 14.515625 28.9375 C 14.515625 28.933594 14.519531 28.929688 14.523438 28.925781 C 14.527344 28.917969 14.535156 28.910156 14.539062 28.902344 C 14.539062 28.898438 14.542969 28.894531 14.546875 28.890625 C 14.550781 28.878906 14.558594 28.871094 14.566406 28.859375 C 14.574219 28.847656 14.578125 28.835938 14.585938 28.824219 C 14.585938 28.820312 14.589844 28.816406 14.59375 28.8125 C 14.597656 28.804688 14.601562 28.796875 14.605469 28.789062 C 14.609375 28.785156 14.609375 28.78125 14.609375 28.777344 C 14.617188 28.769531 14.621094 28.761719 14.621094 28.753906 C 14.625 28.75 14.628906 28.746094 14.632812 28.742188 C 14.632812 28.734375 14.636719 28.726562 14.640625 28.722656 C 14.640625 28.714844 14.644531 28.710938 14.648438 28.707031 C 14.652344 28.699219 14.652344 28.691406 14.660156 28.6875 C 14.660156 28.679688 14.664062 28.675781 14.664062 28.671875 C 14.667969 28.664062 14.671875 28.65625 14.675781 28.648438 C 14.675781 28.644531 14.679688 28.640625 14.683594 28.632812 C 14.6875 28.628906 14.6875 28.617188 14.691406 28.613281 C 14.695312 28.609375 14.695312 28.605469 14.699219 28.597656 C 14.699219 28.589844 14.707031 28.582031 14.710938 28.574219 C 14.710938 28.570312 14.710938 28.566406 14.710938 28.5625 C 14.71875 28.550781 14.722656 28.539062 14.726562 28.527344 C 14.730469 28.523438 14.730469 28.519531 14.730469 28.515625 C 14.734375 28.507812 14.738281 28.5 14.742188 28.492188 C 14.746094 28.484375 14.746094 28.480469 14.746094 28.476562 C 14.75 28.472656 14.753906 28.460938 14.757812 28.453125 C 14.757812 28.449219 14.757812 28.445312 14.757812 28.4375 C 14.761719 28.433594 14.765625 28.425781 14.765625 28.417969 C 14.765625 28.414062 14.769531 28.40625 14.773438 28.402344 C 14.773438 28.394531 14.777344 28.386719 14.777344 28.378906 C 14.78125 28.375 14.78125 28.367188 14.785156 28.367188 C 14.785156 28.355469 14.789062 28.347656 14.789062 28.34375 C 14.789062 28.335938 14.792969 28.332031 14.792969 28.328125 C 14.796875 28.320312 14.800781 28.3125 14.800781 28.304688 C 14.800781 28.300781 14.804688 28.296875 14.804688 28.289062 C 14.808594 28.28125 14.8125 28.273438 14.8125 28.265625 C 14.8125 28.261719 14.8125 28.253906 14.8125 28.253906 C 14.816406 28.242188 14.824219 28.226562 14.824219 28.214844 C 14.828125 28.199219 14.832031 28.1875 14.832031 28.175781 C 14.835938 28.175781 14.835938 28.167969 14.835938 28.164062 C 14.835938 28.15625 14.839844 28.148438 14.839844 28.140625 C 14.84375 28.132812 14.84375 28.128906 14.84375 28.125 C 14.847656 28.117188 14.847656 28.109375 14.847656 28.101562 C 14.847656 28.09375 14.847656 28.089844 14.851562 28.085938 C 14.851562 28.078125 14.851562 28.074219 14.855469 28.0625 C 14.855469 28.058594 14.859375 28.050781 14.859375 28.046875 C 14.859375 28.039062 14.859375 28.03125 14.859375 28.027344 C 14.859375 28.019531 14.863281 28.015625 14.863281 28.007812 C 14.863281 28.003906 14.863281 27.992188 14.867188 27.984375 C 14.867188 27.980469 14.867188 27.976562 14.867188 27.96875 C 14.871094 27.960938 14.871094 27.957031 14.871094 27.949219 C 14.871094 27.941406 14.871094 27.9375 14.871094 27.933594 C 14.871094 27.925781 14.875 27.914062 14.875 27.902344 C 14.875 27.902344 14.875 27.898438 14.875 27.894531 C 14.878906 27.878906 14.878906 27.867188 14.878906 27.855469 C 14.878906 27.851562 14.878906 27.847656 14.882812 27.84375 C 14.882812 27.835938 14.882812 27.828125 14.882812 27.816406 C 14.882812 27.8125 14.882812 27.808594 14.882812 27.800781 C 14.882812 27.796875 14.882812 27.789062 14.882812 27.777344 C 14.882812 27.773438 14.882812 27.769531 14.882812 27.765625 C 14.882812 27.753906 14.882812 27.75 14.882812 27.742188 C 14.882812 27.734375 14.882812 27.730469 14.882812 27.722656 C 14.882812 27.71875 14.882812 27.707031 14.882812 27.703125 C 14.882812 27.695312 14.882812 27.691406 14.882812 27.683594 C 14.882812 27.675781 14.882812 27.671875 14.882812 27.664062 C 14.882812 27.65625 14.882812 27.652344 14.882812 27.648438 C 14.882812 27.640625 14.882812 27.628906 14.882812 27.625 C 14.882812 27.617188 14.882812 27.613281 14.882812 27.605469 C 14.882812 27.597656 14.882812 27.589844 14.882812 27.582031 C 14.882812 27.578125 14.882812 27.574219 14.882812 27.570312 C 14.882812 27.558594 14.882812 27.542969 14.882812 27.53125 C 14.878906 27.53125 14.878906 27.527344 14.878906 27.527344 C 14.878906 27.515625 14.878906 27.503906 14.875 27.492188 C 14.875 27.488281 14.875 27.484375 14.875 27.480469 C 14.875 27.46875 14.875 27.460938 14.871094 27.453125 C 14.871094 27.449219 14.871094 27.445312 14.871094 27.4375 C 14.871094 27.433594 14.871094 27.421875 14.871094 27.414062 C 14.867188 27.410156 14.867188 27.40625 14.867188 27.402344 C 14.867188 27.390625 14.863281 27.386719 14.863281 27.378906 C 14.863281 27.371094 14.859375 27.367188 14.859375 27.359375 C 14.859375 27.355469 14.859375 27.34375 14.859375 27.339844 C 14.859375 27.332031 14.855469 27.328125 14.855469 27.320312 C 14.855469 27.316406 14.851562 27.308594 14.851562 27.296875 C 14.851562 27.296875 14.847656 27.289062 14.847656 27.285156 C 14.847656 27.28125 14.847656 27.28125 14.847656 27.277344 C 14.816406 27.105469 14.878906 26.925781 15.011719 26.808594 L 15.59375 26.300781 L 17.953125 28.992188 C 17.953125 28.996094 17.953125 28.996094 17.953125 28.996094 C 17.957031 28.996094 17.957031 29 17.960938 29.003906 C 17.964844 29.003906 17.964844 29.007812 17.96875 29.011719 C 17.972656 29.015625 17.972656 29.015625 17.976562 29.015625 C 17.976562 29.019531 17.984375 29.023438 17.988281 29.027344 C 18 29.039062 18.011719 29.046875 18.023438 29.054688 C 18.03125 29.058594 18.035156 29.0625 18.042969 29.0625 C 18.042969 29.0625 18.042969 29.066406 18.042969 29.066406 C 18.046875 29.070312 18.054688 29.074219 18.0625 29.074219 C 18.070312 29.078125 18.078125 29.082031 18.085938 29.085938 L 20.511719 30.03125 C 20.550781 30.046875 20.59375 30.054688 20.632812 30.054688 C 20.714844 30.054688 20.792969 30.023438 20.855469 29.96875 C 20.949219 29.886719 20.992188 29.757812 20.960938 29.636719 L 20.34375 27.105469 C 20.34375 27.101562 20.34375 27.101562 20.34375 27.101562 C 20.34375 27.09375 20.339844 27.089844 20.339844 27.085938 C 20.339844 27.082031 20.335938 27.082031 20.335938 27.082031 C 20.335938 27.074219 20.332031 27.070312 20.332031 27.066406 C 20.332031 27.0625 20.332031 27.0625 20.332031 27.058594 C 20.328125 27.054688 20.324219 27.046875 20.320312 27.042969 C 20.320312 27.039062 20.320312 27.039062 20.320312 27.035156 C 20.320312 27.035156 20.316406 27.027344 20.3125 27.027344 C 20.3125 27.023438 20.3125 27.023438 20.308594 27.019531 C 20.308594 27.015625 20.308594 27.011719 20.304688 27.007812 C 20.300781 27.003906 20.300781 27.003906 20.300781 27.003906 C 20.296875 26.996094 20.292969 26.992188 20.289062 26.988281 C 20.289062 26.984375 20.289062 26.984375 20.289062 26.984375 C 20.285156 26.980469 20.28125 26.976562 20.277344 26.96875 C 20.277344 26.96875 20.277344 26.96875 20.273438 26.96875 C 20.273438 26.964844 20.273438 26.960938 20.269531 26.960938 L 17.910156 24.269531 L 18.496094 23.757812 C 18.625 23.644531 18.8125 23.605469 18.980469 23.660156 C 18.980469 23.660156 18.984375 23.660156 18.988281 23.660156 C 18.988281 23.664062 18.996094 23.664062 19 23.667969 C 19.007812 23.667969 19.015625 23.667969 19.023438 23.671875 C 19.027344 23.675781 19.035156 23.675781 19.039062 23.679688 C 19.046875 23.679688 19.054688 23.679688 19.058594 23.683594 C 19.066406 23.683594 19.070312 23.6875 19.074219 23.6875 C 19.082031 23.691406 19.09375 23.691406 19.097656 23.691406 C 19.105469 23.695312 19.109375 23.695312 19.113281 23.699219 C 19.121094 23.703125 19.128906 23.703125 19.136719 23.703125 C 19.140625 23.703125 19.148438 23.707031 19.148438 23.707031 C 19.160156 23.710938 19.167969 23.710938 19.175781 23.714844 C 19.179688 23.714844 19.183594 23.714844 19.1875 23.714844 C 19.199219 23.71875 19.210938 23.722656 19.226562 23.726562 C 19.242188 23.726562 19.25 23.730469 19.261719 23.730469 C 19.269531 23.734375 19.273438 23.734375 19.273438 23.734375 C 19.285156 23.734375 19.292969 23.734375 19.300781 23.738281 C 19.308594 23.738281 19.3125 23.738281 19.316406 23.742188 C 19.324219 23.742188 19.332031 23.742188 19.339844 23.746094 C 19.34375 23.746094 19.351562 23.746094 19.355469 23.746094 C 19.363281 23.746094 19.371094 23.746094 19.378906 23.75 C 19.382812 23.75 19.386719 23.75 19.394531 23.75 C 19.402344 23.753906 19.410156 23.753906 19.417969 23.753906 C 19.421875 23.757812 19.425781 23.757812 19.433594 23.757812 C 19.441406 23.757812 19.449219 23.757812 19.457031 23.757812 C 19.460938 23.757812 19.46875 23.757812 19.472656 23.757812 C 19.480469 23.761719 19.488281 23.761719 19.496094 23.761719 C 19.5 23.761719 19.503906 23.761719 19.511719 23.765625 C 19.519531 23.765625 19.527344 23.765625 19.539062 23.765625 C 19.542969 23.765625 19.546875 23.765625 19.546875 23.765625 C 19.558594 23.769531 19.574219 23.769531 19.585938 23.769531 C 19.589844 23.769531 19.59375 23.769531 19.59375 23.769531 C 19.605469 23.769531 19.617188 23.769531 19.625 23.769531 C 19.628906 23.769531 19.636719 23.769531 19.640625 23.769531 C 19.648438 23.769531 19.65625 23.769531 19.664062 23.769531 C 19.667969 23.769531 19.671875 23.769531 19.679688 23.769531 C 19.6875 23.769531 19.695312 23.769531 19.703125 23.769531 C 19.707031 23.769531 19.714844 23.769531 19.71875 23.769531 C 19.726562 23.769531 19.734375 23.769531 19.742188 23.769531 C 19.746094 23.769531 19.753906 23.769531 19.757812 23.769531 C 19.765625 23.769531 19.773438 23.769531 19.78125 23.769531 C 19.785156 23.769531 19.789062 23.769531 19.796875 23.769531 C 19.804688 23.769531 19.8125 23.769531 19.820312 23.769531 C 19.824219 23.765625 19.832031 23.765625 19.832031 23.765625 C 19.84375 23.765625 19.851562 23.765625 19.859375 23.765625 C 19.867188 23.765625 19.867188 23.761719 19.875 23.761719 C 19.886719 23.761719 19.898438 23.761719 19.910156 23.757812 C 19.921875 23.757812 19.9375 23.757812 19.949219 23.757812 C 19.953125 23.757812 19.957031 23.753906 19.960938 23.753906 C 19.96875 23.753906 19.980469 23.75 19.988281 23.75 C 19.992188 23.75 20 23.75 20.003906 23.746094 C 20.011719 23.746094 20.019531 23.746094 20.027344 23.746094 C 20.03125 23.746094 20.039062 23.746094 20.042969 23.742188 C 20.046875 23.742188 20.058594 23.742188 20.066406 23.738281 C 20.070312 23.738281 20.074219 23.734375 20.082031 23.734375 C 20.089844 23.734375 20.09375 23.734375 20.105469 23.734375 C 20.109375 23.730469 20.113281 23.730469 20.117188 23.730469 C 20.128906 23.726562 20.136719 23.726562 20.140625 23.726562 C 20.148438 23.726562 20.152344 23.722656 20.15625 23.722656 C 20.164062 23.722656 20.171875 23.71875 20.183594 23.714844 C 20.183594 23.714844 20.191406 23.714844 20.195312 23.714844 C 20.207031 23.710938 20.214844 23.710938 20.222656 23.707031 C 20.226562 23.707031 20.230469 23.703125 20.230469 23.703125 C 20.246094 23.703125 20.257812 23.699219 20.269531 23.695312 C 20.273438 23.695312 20.277344 23.691406 20.277344 23.691406 C 20.289062 23.691406 20.300781 23.6875 20.308594 23.683594 C 20.3125 23.683594 20.316406 23.679688 20.320312 23.679688 C 20.332031 23.679688 20.335938 23.675781 20.34375 23.675781 C 20.351562 23.671875 20.355469 23.671875 20.359375 23.667969 C 20.367188 23.667969 20.378906 23.664062 20.382812 23.664062 C 20.390625 23.660156 20.394531 23.65625 20.398438 23.65625 C 20.40625 23.65625 20.414062 23.652344 20.421875 23.648438 C 20.425781 23.648438 20.433594 23.644531 20.433594 23.644531 C 20.445312 23.644531 20.449219 23.640625 20.457031 23.636719 C 20.464844 23.632812 20.46875 23.632812 20.472656 23.632812 C 20.480469 23.628906 20.488281 23.625 20.496094 23.621094 C 20.5 23.621094 20.503906 23.621094 20.511719 23.617188 C 20.519531 23.613281 20.527344 23.609375 20.535156 23.609375 C 20.539062 23.605469 20.542969 23.605469 20.546875 23.601562 C 20.558594 23.597656 20.570312 23.59375 20.582031 23.589844 C 20.59375 23.582031 20.605469 23.578125 20.617188 23.574219 C 20.625 23.570312 20.628906 23.566406 20.628906 23.566406 C 20.640625 23.5625 20.648438 23.558594 20.65625 23.554688 C 20.660156 23.554688 20.664062 23.550781 20.667969 23.550781 C 20.675781 23.542969 20.683594 23.542969 20.691406 23.539062 C 20.699219 23.535156 20.699219 23.53125 20.707031 23.53125 C 20.710938 23.527344 20.71875 23.523438 20.726562 23.519531 C 20.730469 23.519531 20.734375 23.515625 20.742188 23.511719 C 20.75 23.507812 20.753906 23.507812 20.761719 23.5 C 20.765625 23.5 20.773438 23.496094 20.777344 23.496094 C 20.785156 23.488281 20.789062 23.484375 20.800781 23.484375 C 20.800781 23.480469 20.808594 23.476562 20.8125 23.472656 C 20.820312 23.472656 20.824219 23.464844 20.832031 23.464844 C 20.835938 23.460938 20.84375 23.457031 20.84375 23.453125 C 20.855469 23.449219 20.863281 23.445312 20.871094 23.441406 C 20.875 23.4375 20.878906 23.4375 20.878906 23.433594 C 20.890625 23.429688 20.902344 23.417969 20.914062 23.414062 C 20.917969 23.410156 20.921875 23.40625 20.925781 23.40625 C 20.933594 23.402344 20.941406 23.394531 20.949219 23.390625 C 20.953125 23.386719 20.957031 23.382812 20.960938 23.382812 C 20.96875 23.375 20.976562 23.371094 20.980469 23.367188 C 20.988281 23.363281 20.992188 23.359375 20.996094 23.359375 C 21.003906 23.351562 21.007812 23.347656 21.015625 23.34375 C 21.019531 23.339844 21.027344 23.335938 21.027344 23.335938 C 21.035156 23.328125 21.042969 23.324219 21.050781 23.320312 C 21.050781 23.316406 21.058594 23.3125 21.0625 23.308594 C 21.070312 23.304688 21.074219 23.300781 21.082031 23.292969 C 21.085938 23.292969 21.089844 23.289062 21.09375 23.285156 C 21.101562 23.28125 21.105469 23.273438 21.117188 23.269531 C 21.117188 23.265625 21.121094 23.261719 21.128906 23.257812 C 21.132812 23.253906 21.140625 23.246094 21.148438 23.242188 C 21.152344 23.238281 21.15625 23.234375 21.160156 23.234375 C 21.167969 23.222656 21.179688 23.210938 21.191406 23.203125 C 21.257812 23.144531 21.324219 23.082031 21.382812 23.015625 C 21.402344 22.996094 21.417969 22.976562 21.433594 22.957031 C 21.449219 22.9375 21.464844 22.917969 21.484375 22.898438 C 21.492188 22.882812 21.503906 22.871094 21.515625 22.859375 C 21.5625 22.792969 21.609375 22.722656 21.652344 22.652344 C 21.664062 22.632812 21.675781 22.609375 21.6875 22.585938 C 21.699219 22.5625 21.710938 22.542969 21.722656 22.519531 C 21.734375 22.5 21.746094 22.476562 21.753906 22.457031 C 21.765625 22.433594 21.777344 22.410156 21.785156 22.386719 C 21.808594 22.332031 21.832031 22.273438 21.847656 22.21875 C 21.859375 22.195312 21.867188 22.171875 21.871094 22.148438 C 21.878906 22.125 21.882812 22.105469 21.890625 22.085938 C 21.929688 21.941406 21.953125 21.792969 21.964844 21.648438 C 21.964844 21.632812 21.964844 21.621094 21.964844 21.609375 C 21.96875 21.585938 21.96875 21.5625 21.96875 21.539062 C 21.972656 21.476562 21.96875 21.417969 21.964844 21.359375 C 21.964844 21.355469 21.964844 21.355469 21.964844 21.351562 Z M 12.191406 20.128906 L 12.242188 20.085938 C 12.398438 19.945312 12.59375 19.878906 12.789062 19.878906 C 13.023438 19.878906 13.253906 19.976562 13.417969 20.164062 L 13.835938 20.640625 L 12.53125 21.78125 L 12.117188 21.304688 C 11.8125 20.960938 11.847656 20.429688 12.191406 20.128906 Z M 13.34375 21.972656 L 18.648438 27.9375 L 18.238281 28.292969 L 12.976562 22.289062 Z M 18.84375 28.65625 L 19.820312 27.804688 L 20.152344 29.164062 Z M 19.152344 27.492188 L 13.851562 21.523438 L 14.277344 21.148438 L 19.539062 27.152344 Z M 19.152344 27.492188 " fill-opacity="1" fill-rule="nonzero"/></g><g clip-path="url(#0509db4cd8)"><path fill="#ffffff" d="M 27.355469 12.566406 L 24.785156 11.984375 L 24.089844 10.316406 L 25.5 8.085938 C 25.605469 7.914062 25.582031 7.691406 25.4375 7.550781 L 23.53125 5.644531 C 23.390625 5.503906 23.167969 5.476562 22.996094 5.582031 L 20.765625 6.992188 L 19.097656 6.300781 L 18.515625 3.726562 C 18.472656 3.53125 18.296875 3.390625 18.09375 3.390625 L 15.398438 3.390625 C 15.199219 3.390625 15.019531 3.53125 14.976562 3.726562 L 14.394531 6.300781 L 12.726562 6.992188 L 10.5 5.582031 C 10.328125 5.476562 10.101562 5.503906 9.960938 5.644531 L 8.054688 7.550781 C 7.910156 7.691406 7.886719 7.914062 7.996094 8.085938 L 9.402344 10.316406 L 8.710938 11.984375 L 6.140625 12.566406 C 5.941406 12.609375 5.800781 12.789062 5.800781 12.988281 L 5.800781 15.683594 C 5.800781 15.886719 5.941406 16.0625 6.140625 16.105469 L 8.710938 16.6875 L 9.402344 18.355469 L 7.996094 20.582031 C 7.886719 20.753906 7.910156 20.980469 8.054688 21.121094 L 9.960938 23.03125 C 10.101562 23.171875 10.328125 23.195312 10.5 23.085938 L 11.300781 22.582031 C 11.503906 22.453125 11.566406 22.1875 11.4375 21.984375 C 11.308594 21.78125 11.042969 21.722656 10.839844 21.847656 L 10.328125 22.171875 L 8.914062 20.753906 L 10.253906 18.628906 C 10.328125 18.511719 10.339844 18.363281 10.289062 18.234375 L 9.425781 16.148438 C 9.371094 16.019531 9.257812 15.921875 9.121094 15.890625 L 6.667969 15.335938 L 6.667969 13.335938 L 9.121094 12.78125 C 9.257812 12.75 9.371094 12.65625 9.425781 12.523438 L 10.289062 10.441406 C 10.339844 10.308594 10.328125 10.160156 10.253906 10.042969 L 8.914062 7.917969 L 10.328125 6.503906 L 12.453125 7.84375 C 12.570312 7.917969 12.71875 7.929688 12.851562 7.878906 L 14.9375 7.015625 C 15.0625 6.960938 15.160156 6.847656 15.191406 6.710938 L 15.746094 4.257812 L 17.75 4.257812 L 18.300781 6.710938 C 18.332031 6.847656 18.429688 6.960938 18.558594 7.015625 L 20.640625 7.878906 C 20.773438 7.929688 20.921875 7.917969 21.039062 7.84375 L 23.167969 6.503906 L 24.578125 7.917969 L 23.238281 10.042969 C 23.164062 10.160156 23.152344 10.308594 23.203125 10.441406 L 24.066406 12.523438 C 24.125 12.65625 24.238281 12.75 24.375 12.78125 L 26.824219 13.335938 L 26.824219 15.335938 L 24.375 15.890625 C 24.238281 15.921875 24.125 16.019531 24.066406 16.148438 L 23.203125 18.234375 C 23.152344 18.363281 23.164062 18.511719 23.238281 18.628906 L 24.578125 20.753906 L 23.167969 22.171875 L 22.875 21.988281 C 22.671875 21.859375 22.40625 21.921875 22.277344 22.121094 C 22.152344 22.324219 22.210938 22.59375 22.414062 22.722656 L 22.996094 23.085938 C 23.066406 23.132812 23.144531 23.15625 23.226562 23.15625 C 23.335938 23.15625 23.449219 23.109375 23.53125 23.03125 L 25.4375 21.121094 C 25.582031 20.980469 25.605469 20.753906 25.5 20.582031 L 24.089844 18.355469 L 24.785156 16.6875 L 27.355469 16.105469 C 27.550781 16.0625 27.691406 15.886719 27.691406 15.683594 L 27.691406 12.988281 C 27.691406 12.789062 27.550781 12.609375 27.355469 12.566406 Z M 27.355469 12.566406 " fill-opacity="1" fill-rule="nonzero"/></g><path fill="#ffffff" d="M 14.835938 18.863281 C 15.4375 19.121094 16.082031 19.25 16.746094 19.25 C 17.410156 19.25 18.054688 19.121094 18.660156 18.863281 C 19.246094 18.617188 19.769531 18.261719 20.21875 17.8125 C 20.675781 17.359375 21.027344 16.835938 21.277344 16.25 C 21.53125 15.644531 21.660156 15 21.660156 14.335938 C 21.660156 13.675781 21.53125 13.027344 21.277344 12.421875 C 21.027344 11.839844 20.675781 11.3125 20.21875 10.863281 C 19.769531 10.410156 19.246094 10.054688 18.660156 9.808594 C 18.054688 9.554688 17.410156 9.421875 16.746094 9.421875 C 16.082031 9.421875 15.4375 9.554688 14.835938 9.808594 C 14.246094 10.054688 13.722656 10.410156 13.273438 10.863281 C 12.820312 11.3125 12.46875 11.839844 12.21875 12.421875 C 11.960938 13.027344 11.832031 13.675781 11.832031 14.335938 C 11.832031 15 11.960938 15.644531 12.21875 16.25 C 12.46875 16.835938 12.820312 17.359375 13.273438 17.8125 C 13.722656 18.261719 14.246094 18.617188 14.835938 18.863281 Z M 13.882812 11.476562 C 14.648438 10.710938 15.667969 10.289062 16.746094 10.289062 C 17.828125 10.289062 18.84375 10.710938 19.609375 11.476562 C 20.375 12.238281 20.792969 13.253906 20.792969 14.335938 C 20.792969 15.417969 20.375 16.433594 19.609375 17.199219 C 18.84375 17.964844 17.828125 18.386719 16.746094 18.386719 C 15.667969 18.386719 14.648438 17.964844 13.882812 17.199219 C 13.121094 16.433594 12.699219 15.417969 12.699219 14.335938 C 12.699219 13.253906 13.121094 12.238281 13.882812 11.476562 Z M 13.882812 11.476562 " fill-opacity="1" fill-rule="nonzero"/></svg>