<svg xmlns="http://www.w3.org/2000/svg" xmlns:xlink="http://www.w3.org/1999/xlink" width="60" zoomAndPan="magnify" viewBox="0 0 45 44.999999" height="60" preserveAspectRatio="xMidYMid meet" version="1.0"><defs><clipPath id="af22ee0303"><path d="M 22.5 0 C 10.074219 0 0 10.074219 0 22.5 C 0 34.925781 10.074219 45 22.5 45 C 34.925781 45 45 34.925781 45 22.5 C 45 10.074219 34.925781 0 22.5 0 Z M 22.5 0 " clip-rule="nonzero"/></clipPath><clipPath id="e8b2af6ca8"><path d="M 0 0 L 45 0 L 45 45 L 0 45 Z M 0 0 " clip-rule="nonzero"/></clipPath><clipPath id="d2fd719baf"><path d="M 22.5 0 C 10.074219 0 0 10.074219 0 22.5 C 0 34.925781 10.074219 45 22.5 45 C 34.925781 45 45 34.925781 45 22.5 C 45 10.074219 34.925781 0 22.5 0 Z M 22.5 0 " clip-rule="nonzero"/></clipPath><clipPath id="8f8e6a9430"><rect x="0" width="45" y="0" height="45"/></clipPath><clipPath id="51fe3facf2"><path d="M 13 25 L 30 25 L 30 40.554688 L 13 40.554688 Z M 13 25 " clip-rule="nonzero"/></clipPath><clipPath id="fe1686f062"><path d="M 7.792969 4.554688 L 37.042969 4.554688 L 37.042969 32 L 7.792969 32 Z M 7.792969 4.554688 " clip-rule="nonzero"/></clipPath></defs><g clip-path="url(#af22ee0303)"><g transform="matrix(1, 0, 0, 1, 0, 0)"><g clip-path="url(#8f8e6a9430)"><g clip-path="url(#e8b2af6ca8)"><g clip-path="url(#d2fd719baf)"><rect x="-9.9" width="64.8" fill="#ec2228" height="64.799999" y="-9.9" fill-opacity="1"/></g></g></g></g></g><g clip-path="url(#51fe3facf2)"><path fill="#ffffff" d="M 29.503906 28.679688 C 29.5 28.621094 29.496094 28.5625 29.488281 28.5 C 29.488281 28.496094 29.488281 28.488281 29.488281 28.484375 C 29.480469 28.421875 29.46875 28.359375 29.457031 28.296875 C 29.453125 28.265625 29.441406 28.238281 29.421875 28.214844 C 29.371094 28.152344 29.289062 28.125 29.214844 28.148438 C 29.199219 28.152344 29.1875 28.15625 29.175781 28.164062 C 29.171875 28.167969 29.167969 28.167969 29.164062 28.171875 C 29.15625 28.175781 29.148438 28.183594 29.140625 28.1875 L 27.292969 29.808594 C 27.078125 29.996094 26.753906 29.972656 26.566406 29.757812 L 25.570312 28.621094 C 25.382812 28.40625 25.402344 28.082031 25.617188 27.894531 L 27.464844 26.273438 C 27.472656 26.269531 27.480469 26.261719 27.484375 26.253906 C 27.5 26.238281 27.511719 26.21875 27.519531 26.199219 C 27.519531 26.191406 27.523438 26.183594 27.527344 26.175781 C 27.527344 26.167969 27.527344 26.160156 27.53125 26.152344 C 27.53125 26.148438 27.53125 26.144531 27.53125 26.140625 C 27.53125 26.128906 27.53125 26.113281 27.53125 26.101562 C 27.523438 26.066406 27.507812 26.03125 27.484375 26.003906 C 27.480469 25.996094 27.472656 25.992188 27.46875 25.984375 C 27.464844 25.980469 27.460938 25.980469 27.457031 25.976562 C 27.441406 25.964844 27.421875 25.953125 27.398438 25.945312 C 27.339844 25.925781 27.28125 25.910156 27.21875 25.894531 C 27.214844 25.890625 27.207031 25.890625 27.203125 25.890625 C 27.144531 25.875 27.085938 25.859375 27.023438 25.847656 C 27.019531 25.847656 27.015625 25.847656 27.011719 25.847656 C 26.9375 25.832031 26.859375 25.820312 26.78125 25.8125 C 26.777344 25.8125 26.777344 25.8125 26.777344 25.8125 C 26.746094 25.808594 26.714844 25.804688 26.679688 25.804688 C 26.664062 25.800781 26.648438 25.800781 26.632812 25.800781 C 26.535156 25.792969 26.4375 25.792969 26.339844 25.796875 C 26.304688 25.796875 26.273438 25.796875 26.242188 25.800781 C 26.175781 25.804688 26.113281 25.808594 26.046875 25.820312 C 26.019531 25.824219 25.988281 25.828125 25.960938 25.832031 C 25.921875 25.835938 25.882812 25.84375 25.84375 25.851562 C 25.765625 25.867188 25.6875 25.886719 25.613281 25.90625 C 25.597656 25.910156 25.582031 25.914062 25.566406 25.921875 C 25.542969 25.925781 25.523438 25.933594 25.5 25.941406 C 25.476562 25.949219 25.449219 25.957031 25.425781 25.964844 C 25.363281 25.988281 25.300781 26.011719 25.238281 26.039062 C 25.132812 26.082031 25.027344 26.136719 24.921875 26.195312 C 24.878906 26.21875 24.835938 26.246094 24.792969 26.273438 C 24.765625 26.292969 24.734375 26.3125 24.707031 26.332031 C 24.609375 26.398438 24.511719 26.472656 24.421875 26.554688 C 24.40625 26.566406 24.394531 26.578125 24.378906 26.589844 C 24.375 26.59375 24.371094 26.597656 24.367188 26.601562 C 24.355469 26.613281 24.347656 26.621094 24.339844 26.628906 C 24.332031 26.632812 24.328125 26.636719 24.324219 26.644531 C 24.3125 26.652344 24.304688 26.660156 24.296875 26.667969 C 24.292969 26.671875 24.289062 26.675781 24.28125 26.683594 C 24.273438 26.691406 24.265625 26.699219 24.257812 26.707031 C 24.253906 26.710938 24.25 26.714844 24.242188 26.722656 C 24.234375 26.730469 24.226562 26.738281 24.21875 26.746094 C 24.214844 26.75 24.210938 26.757812 24.203125 26.761719 C 24.195312 26.769531 24.191406 26.777344 24.183594 26.785156 C 24.175781 26.792969 24.171875 26.796875 24.167969 26.800781 C 24.160156 26.8125 24.152344 26.820312 24.144531 26.828125 C 24.140625 26.832031 24.136719 26.839844 24.132812 26.84375 C 24.121094 26.851562 24.113281 26.863281 24.105469 26.875 C 24.101562 26.878906 24.097656 26.878906 24.09375 26.882812 C 24.085938 26.898438 24.074219 26.910156 24.0625 26.925781 C 24.058594 26.929688 24.054688 26.933594 24.050781 26.9375 C 24.042969 26.945312 24.035156 26.957031 24.027344 26.96875 C 24.023438 26.972656 24.019531 26.976562 24.015625 26.984375 C 24.007812 26.992188 24 27 23.996094 27.011719 C 23.988281 27.015625 23.984375 27.023438 23.980469 27.027344 C 23.976562 27.035156 23.96875 27.042969 23.960938 27.054688 C 23.957031 27.058594 23.953125 27.066406 23.949219 27.070312 C 23.941406 27.082031 23.9375 27.089844 23.929688 27.097656 C 23.925781 27.101562 23.921875 27.109375 23.917969 27.117188 C 23.910156 27.125 23.90625 27.132812 23.898438 27.140625 C 23.894531 27.148438 23.890625 27.152344 23.886719 27.160156 C 23.882812 27.167969 23.875 27.179688 23.871094 27.1875 C 23.867188 27.191406 23.863281 27.199219 23.859375 27.203125 C 23.851562 27.214844 23.847656 27.226562 23.839844 27.234375 C 23.835938 27.238281 23.832031 27.246094 23.832031 27.25 C 23.820312 27.265625 23.8125 27.28125 23.804688 27.292969 C 23.800781 27.296875 23.800781 27.296875 23.800781 27.296875 C 23.792969 27.308594 23.785156 27.324219 23.777344 27.339844 C 23.773438 27.34375 23.769531 27.351562 23.769531 27.355469 C 23.761719 27.367188 23.757812 27.375 23.75 27.386719 C 23.746094 27.390625 23.742188 27.398438 23.742188 27.40625 C 23.734375 27.414062 23.730469 27.421875 23.726562 27.433594 C 23.722656 27.441406 23.71875 27.445312 23.714844 27.453125 C 23.710938 27.460938 23.707031 27.472656 23.703125 27.480469 C 23.699219 27.488281 23.695312 27.492188 23.691406 27.5 C 23.6875 27.507812 23.683594 27.519531 23.679688 27.527344 C 23.675781 27.535156 23.671875 27.539062 23.667969 27.546875 C 23.664062 27.558594 23.660156 27.566406 23.65625 27.574219 C 23.652344 27.582031 23.648438 27.589844 23.648438 27.59375 C 23.640625 27.605469 23.636719 27.617188 23.632812 27.625 C 23.628906 27.632812 23.628906 27.636719 23.625 27.644531 C 23.621094 27.65625 23.613281 27.667969 23.609375 27.679688 C 23.609375 27.683594 23.605469 27.6875 23.605469 27.691406 C 23.597656 27.707031 23.589844 27.722656 23.585938 27.738281 C 23.582031 27.742188 23.582031 27.746094 23.582031 27.75 C 23.574219 27.765625 23.570312 27.777344 23.566406 27.789062 C 23.566406 27.792969 23.5625 27.800781 23.558594 27.804688 C 23.554688 27.816406 23.554688 27.828125 23.550781 27.835938 C 23.546875 27.84375 23.542969 27.851562 23.542969 27.859375 C 23.539062 27.867188 23.535156 27.878906 23.53125 27.886719 C 23.53125 27.894531 23.527344 27.902344 23.527344 27.90625 C 23.523438 27.917969 23.519531 27.925781 23.515625 27.9375 C 23.515625 27.945312 23.511719 27.949219 23.507812 27.957031 C 23.507812 27.96875 23.503906 27.976562 23.5 27.988281 C 23.5 27.992188 23.496094 28 23.496094 28.007812 C 23.492188 28.019531 23.488281 28.027344 23.484375 28.039062 C 23.484375 28.042969 23.484375 28.050781 23.480469 28.058594 C 23.476562 28.070312 23.476562 28.082031 23.472656 28.09375 C 23.46875 28.097656 23.46875 28.101562 23.46875 28.109375 C 23.464844 28.125 23.460938 28.140625 23.457031 28.160156 C 23.457031 28.160156 23.457031 28.160156 23.453125 28.160156 C 23.449219 28.175781 23.449219 28.191406 23.445312 28.210938 C 23.441406 28.214844 23.441406 28.21875 23.441406 28.226562 C 23.4375 28.238281 23.4375 28.25 23.433594 28.261719 C 23.433594 28.265625 23.429688 28.273438 23.429688 28.28125 C 23.425781 28.289062 23.425781 28.300781 23.421875 28.3125 C 23.421875 28.316406 23.421875 28.324219 23.417969 28.332031 C 23.417969 28.34375 23.417969 28.351562 23.414062 28.363281 C 23.414062 28.371094 23.414062 28.375 23.410156 28.382812 C 23.410156 28.394531 23.40625 28.402344 23.40625 28.414062 C 23.40625 28.421875 23.40625 28.429688 23.402344 28.433594 C 23.402344 28.445312 23.402344 28.457031 23.398438 28.464844 C 23.398438 28.472656 23.398438 28.480469 23.398438 28.488281 C 23.394531 28.496094 23.394531 28.507812 23.394531 28.519531 C 23.390625 28.523438 23.390625 28.53125 23.390625 28.539062 C 23.390625 28.550781 23.386719 28.5625 23.386719 28.578125 C 23.386719 28.582031 23.386719 28.585938 23.386719 28.589844 C 23.382812 28.605469 23.382812 28.625 23.382812 28.640625 C 23.382812 28.644531 23.382812 28.648438 23.382812 28.652344 C 23.378906 28.667969 23.378906 28.679688 23.378906 28.691406 C 23.378906 28.699219 23.378906 28.707031 23.378906 28.710938 C 23.378906 28.722656 23.375 28.734375 23.375 28.746094 C 23.375 28.75 23.375 28.757812 23.375 28.765625 C 23.375 28.777344 23.375 28.785156 23.375 28.796875 C 23.375 28.804688 23.375 28.8125 23.375 28.816406 C 23.375 28.828125 23.375 28.839844 23.375 28.847656 C 23.375 28.855469 23.375 28.863281 23.375 28.871094 C 23.375 28.878906 23.375 28.890625 23.375 28.902344 C 23.375 28.90625 23.375 28.914062 23.375 28.921875 C 23.375 28.933594 23.375 28.941406 23.375 28.953125 C 23.375 28.960938 23.375 28.96875 23.375 28.972656 C 23.375 28.984375 23.375 28.996094 23.378906 29.007812 C 23.378906 29.015625 23.378906 29.019531 23.378906 29.027344 C 23.378906 29.042969 23.378906 29.058594 23.382812 29.078125 C 23.382812 29.097656 23.382812 29.113281 23.386719 29.128906 C 23.386719 29.132812 23.386719 29.140625 23.386719 29.144531 C 23.386719 29.15625 23.390625 29.167969 23.390625 29.179688 C 23.390625 29.1875 23.390625 29.195312 23.390625 29.199219 C 23.394531 29.210938 23.394531 29.222656 23.394531 29.230469 C 23.398438 29.238281 23.398438 29.246094 23.398438 29.253906 C 23.398438 29.261719 23.402344 29.273438 23.402344 29.285156 C 23.402344 29.289062 23.40625 29.296875 23.40625 29.304688 C 23.40625 29.316406 23.410156 29.324219 23.410156 29.335938 C 23.410156 29.34375 23.414062 29.351562 23.414062 29.355469 C 23.414062 29.367188 23.417969 29.378906 23.417969 29.386719 C 23.417969 29.394531 23.421875 29.402344 23.421875 29.410156 C 23.421875 29.410156 23.421875 29.414062 23.421875 29.414062 C 23.464844 29.648438 23.382812 29.886719 23.203125 30.046875 L 22.421875 30.730469 L 19.5625 27.46875 L 18.703125 26.484375 C 17.96875 25.644531 16.683594 25.558594 15.84375 26.296875 L 15.777344 26.351562 C 14.9375 27.089844 14.851562 28.371094 15.589844 29.214844 L 16.449219 30.195312 L 19.308594 33.457031 L 18.523438 34.144531 C 18.347656 34.300781 18.097656 34.351562 17.871094 34.277344 C 17.871094 34.277344 17.867188 34.277344 17.867188 34.277344 C 17.859375 34.273438 17.851562 34.269531 17.84375 34.269531 C 17.835938 34.265625 17.824219 34.261719 17.816406 34.261719 C 17.808594 34.257812 17.800781 34.253906 17.792969 34.253906 C 17.785156 34.25 17.773438 34.25 17.765625 34.246094 C 17.757812 34.242188 17.75 34.242188 17.746094 34.238281 C 17.734375 34.238281 17.726562 34.234375 17.714844 34.230469 C 17.707031 34.230469 17.699219 34.226562 17.695312 34.226562 C 17.683594 34.222656 17.671875 34.222656 17.664062 34.21875 C 17.65625 34.214844 17.648438 34.214844 17.644531 34.214844 C 17.632812 34.210938 17.621094 34.207031 17.609375 34.207031 C 17.605469 34.203125 17.597656 34.203125 17.59375 34.203125 C 17.578125 34.199219 17.5625 34.195312 17.542969 34.191406 C 17.527344 34.1875 17.507812 34.183594 17.492188 34.179688 C 17.484375 34.179688 17.480469 34.179688 17.476562 34.179688 C 17.464844 34.175781 17.453125 34.171875 17.441406 34.171875 C 17.433594 34.171875 17.425781 34.167969 17.421875 34.167969 C 17.410156 34.167969 17.398438 34.164062 17.390625 34.164062 C 17.382812 34.164062 17.375 34.160156 17.367188 34.160156 C 17.359375 34.160156 17.347656 34.15625 17.335938 34.15625 C 17.332031 34.15625 17.324219 34.15625 17.316406 34.152344 C 17.304688 34.152344 17.296875 34.152344 17.285156 34.148438 C 17.277344 34.148438 17.273438 34.148438 17.265625 34.148438 C 17.253906 34.144531 17.242188 34.144531 17.234375 34.144531 C 17.226562 34.144531 17.21875 34.140625 17.214844 34.140625 C 17.203125 34.140625 17.191406 34.140625 17.179688 34.140625 C 17.175781 34.136719 17.167969 34.136719 17.160156 34.136719 C 17.148438 34.136719 17.136719 34.136719 17.125 34.132812 C 17.117188 34.132812 17.113281 34.132812 17.109375 34.132812 C 17.09375 34.132812 17.074219 34.132812 17.058594 34.132812 C 17.054688 34.132812 17.050781 34.128906 17.046875 34.128906 C 17.03125 34.128906 17.019531 34.128906 17.007812 34.128906 C 17 34.128906 16.992188 34.128906 16.988281 34.128906 C 16.976562 34.128906 16.964844 34.128906 16.953125 34.128906 C 16.949219 34.128906 16.941406 34.128906 16.933594 34.128906 C 16.921875 34.128906 16.914062 34.128906 16.902344 34.128906 C 16.894531 34.128906 16.886719 34.128906 16.882812 34.128906 C 16.871094 34.128906 16.859375 34.128906 16.851562 34.128906 C 16.84375 34.128906 16.835938 34.128906 16.828125 34.128906 C 16.820312 34.128906 16.808594 34.128906 16.796875 34.128906 C 16.792969 34.132812 16.785156 34.132812 16.777344 34.132812 C 16.765625 34.132812 16.757812 34.132812 16.746094 34.132812 C 16.738281 34.132812 16.730469 34.132812 16.726562 34.132812 C 16.714844 34.136719 16.703125 34.136719 16.691406 34.136719 C 16.683594 34.136719 16.679688 34.136719 16.671875 34.136719 C 16.65625 34.140625 16.640625 34.140625 16.625 34.144531 C 16.625 34.144531 16.621094 34.144531 16.621094 34.144531 C 16.605469 34.144531 16.585938 34.148438 16.570312 34.148438 C 16.566406 34.148438 16.558594 34.148438 16.554688 34.152344 C 16.542969 34.152344 16.53125 34.152344 16.519531 34.15625 C 16.511719 34.15625 16.503906 34.15625 16.5 34.15625 C 16.488281 34.160156 16.476562 34.160156 16.46875 34.164062 C 16.460938 34.164062 16.453125 34.164062 16.445312 34.164062 C 16.4375 34.167969 16.425781 34.167969 16.417969 34.171875 C 16.410156 34.171875 16.402344 34.171875 16.394531 34.175781 C 16.382812 34.175781 16.375 34.179688 16.363281 34.179688 C 16.355469 34.179688 16.351562 34.183594 16.34375 34.183594 C 16.332031 34.1875 16.324219 34.1875 16.3125 34.191406 C 16.304688 34.191406 16.296875 34.191406 16.292969 34.195312 C 16.28125 34.195312 16.269531 34.199219 16.257812 34.199219 C 16.253906 34.203125 16.246094 34.203125 16.242188 34.203125 C 16.226562 34.207031 16.214844 34.210938 16.203125 34.214844 C 16.199219 34.214844 16.195312 34.214844 16.191406 34.21875 C 16.171875 34.222656 16.15625 34.226562 16.140625 34.230469 C 16.136719 34.230469 16.132812 34.230469 16.128906 34.234375 C 16.113281 34.238281 16.101562 34.238281 16.089844 34.242188 C 16.082031 34.246094 16.078125 34.246094 16.070312 34.25 C 16.058594 34.253906 16.050781 34.253906 16.039062 34.257812 C 16.03125 34.261719 16.023438 34.261719 16.019531 34.265625 C 16.007812 34.269531 16 34.269531 15.988281 34.273438 C 15.980469 34.277344 15.972656 34.277344 15.96875 34.28125 C 15.957031 34.285156 15.949219 34.289062 15.9375 34.289062 C 15.929688 34.292969 15.925781 34.296875 15.917969 34.296875 C 15.90625 34.300781 15.898438 34.304688 15.886719 34.308594 C 15.882812 34.3125 15.875 34.3125 15.867188 34.316406 C 15.859375 34.320312 15.847656 34.324219 15.835938 34.328125 C 15.832031 34.328125 15.824219 34.332031 15.816406 34.335938 C 15.808594 34.339844 15.796875 34.34375 15.785156 34.347656 C 15.78125 34.347656 15.773438 34.351562 15.769531 34.355469 C 15.753906 34.359375 15.738281 34.367188 15.722656 34.375 C 15.722656 34.375 15.71875 34.375 15.71875 34.375 C 15.703125 34.382812 15.6875 34.386719 15.671875 34.394531 C 15.667969 34.398438 15.660156 34.398438 15.65625 34.402344 C 15.644531 34.40625 15.632812 34.414062 15.625 34.417969 C 15.617188 34.421875 15.609375 34.421875 15.605469 34.425781 C 15.59375 34.429688 15.585938 34.4375 15.574219 34.441406 C 15.570312 34.445312 15.5625 34.445312 15.554688 34.449219 C 15.546875 34.453125 15.535156 34.460938 15.527344 34.464844 C 15.519531 34.46875 15.515625 34.472656 15.507812 34.476562 C 15.5 34.480469 15.488281 34.484375 15.480469 34.488281 C 15.472656 34.492188 15.464844 34.496094 15.460938 34.5 C 15.449219 34.503906 15.441406 34.511719 15.433594 34.515625 C 15.425781 34.519531 15.417969 34.523438 15.414062 34.527344 C 15.402344 34.53125 15.394531 34.539062 15.382812 34.542969 C 15.378906 34.546875 15.371094 34.550781 15.367188 34.554688 C 15.355469 34.558594 15.34375 34.566406 15.332031 34.574219 C 15.328125 34.578125 15.324219 34.578125 15.320312 34.582031 C 15.304688 34.589844 15.289062 34.601562 15.273438 34.609375 C 15.269531 34.613281 15.265625 34.613281 15.261719 34.617188 C 15.25 34.625 15.238281 34.632812 15.230469 34.640625 C 15.222656 34.644531 15.21875 34.648438 15.210938 34.652344 C 15.203125 34.65625 15.191406 34.664062 15.183594 34.671875 C 15.175781 34.675781 15.171875 34.679688 15.164062 34.683594 C 15.15625 34.6875 15.148438 34.695312 15.140625 34.703125 C 15.132812 34.707031 15.125 34.710938 15.121094 34.714844 C 15.113281 34.722656 15.101562 34.726562 15.09375 34.734375 C 15.089844 34.738281 15.082031 34.742188 15.074219 34.75 C 15.066406 34.753906 15.058594 34.761719 15.050781 34.769531 C 15.042969 34.773438 15.039062 34.777344 15.03125 34.78125 C 15.023438 34.789062 15.015625 34.796875 15.003906 34.804688 C 15 34.808594 14.996094 34.8125 14.988281 34.816406 C 14.980469 34.824219 14.96875 34.832031 14.960938 34.839844 C 14.957031 34.84375 14.949219 34.847656 14.945312 34.851562 C 14.933594 34.863281 14.917969 34.875 14.902344 34.886719 C 14.839844 34.945312 14.773438 35.007812 14.714844 35.066406 C 14.691406 35.09375 14.667969 35.117188 14.644531 35.144531 C 14.628906 35.160156 14.617188 35.175781 14.601562 35.191406 C 14.566406 35.230469 14.535156 35.273438 14.5 35.316406 C 14.46875 35.355469 14.441406 35.394531 14.410156 35.4375 C 14.398438 35.453125 14.386719 35.46875 14.375 35.488281 C 14.367188 35.5 14.359375 35.511719 14.351562 35.523438 C 14.34375 35.539062 14.332031 35.554688 14.324219 35.570312 C 14.304688 35.597656 14.289062 35.625 14.273438 35.652344 C 14.246094 35.699219 14.21875 35.746094 14.195312 35.796875 C 14.167969 35.847656 14.144531 35.898438 14.121094 35.953125 C 14.109375 35.972656 14.101562 35.996094 14.09375 36.015625 C 14.035156 36.152344 13.988281 36.292969 13.953125 36.433594 C 13.949219 36.445312 13.949219 36.457031 13.945312 36.46875 C 13.9375 36.507812 13.925781 36.542969 13.921875 36.578125 C 13.917969 36.585938 13.917969 36.597656 13.914062 36.605469 C 13.902344 36.679688 13.890625 36.753906 13.878906 36.824219 C 13.875 36.878906 13.867188 36.929688 13.863281 36.980469 C 13.859375 37.046875 13.859375 37.117188 13.859375 37.183594 C 13.855469 37.242188 13.859375 37.296875 13.859375 37.351562 C 13.863281 37.367188 13.863281 37.382812 13.863281 37.394531 C 13.867188 37.457031 13.875 37.515625 13.878906 37.574219 C 13.882812 37.601562 13.886719 37.628906 13.890625 37.65625 C 13.898438 37.691406 13.902344 37.726562 13.910156 37.757812 C 13.914062 37.789062 13.925781 37.816406 13.945312 37.839844 C 13.949219 37.84375 13.949219 37.847656 13.953125 37.851562 C 13.957031 37.855469 13.960938 37.859375 13.964844 37.863281 C 13.96875 37.867188 13.972656 37.871094 13.976562 37.875 C 13.980469 37.875 13.984375 37.878906 13.988281 37.882812 C 14.019531 37.902344 14.058594 37.917969 14.097656 37.917969 C 14.109375 37.917969 14.121094 37.917969 14.132812 37.914062 C 14.136719 37.914062 14.140625 37.914062 14.144531 37.910156 C 14.164062 37.90625 14.1875 37.898438 14.203125 37.886719 C 14.210938 37.882812 14.21875 37.875 14.226562 37.871094 L 16.074219 36.25 C 16.289062 36.0625 16.613281 36.085938 16.800781 36.296875 L 17.800781 37.4375 C 17.984375 37.652344 17.964844 37.976562 17.75 38.164062 L 15.902344 39.78125 C 15.789062 39.882812 15.828125 40.066406 15.96875 40.113281 C 16.964844 40.4375 18.101562 40.246094 18.949219 39.503906 C 18.960938 39.492188 18.976562 39.480469 18.988281 39.46875 C 18.992188 39.460938 18.996094 39.457031 19.003906 39.453125 C 19.011719 39.445312 19.019531 39.4375 19.03125 39.429688 C 19.035156 39.425781 19.039062 39.417969 19.046875 39.414062 C 19.054688 39.40625 19.0625 39.398438 19.070312 39.390625 C 19.074219 39.386719 19.082031 39.378906 19.085938 39.375 C 19.09375 39.367188 19.101562 39.359375 19.109375 39.351562 C 19.113281 39.347656 19.121094 39.339844 19.125 39.335938 C 19.132812 39.328125 19.140625 39.320312 19.148438 39.3125 C 19.152344 39.308594 19.15625 39.300781 19.164062 39.296875 C 19.171875 39.289062 19.179688 39.28125 19.183594 39.273438 C 19.191406 39.265625 19.195312 39.261719 19.199219 39.253906 C 19.207031 39.246094 19.214844 39.238281 19.222656 39.230469 C 19.226562 39.226562 19.230469 39.21875 19.238281 39.214844 C 19.246094 39.203125 19.253906 39.195312 19.261719 39.183594 C 19.265625 39.179688 19.269531 39.175781 19.273438 39.171875 C 19.285156 39.160156 19.296875 39.144531 19.304688 39.132812 C 19.308594 39.128906 19.3125 39.125 19.316406 39.121094 C 19.324219 39.109375 19.332031 39.101562 19.339844 39.089844 C 19.34375 39.085938 19.347656 39.078125 19.351562 39.074219 C 19.359375 39.066406 19.367188 39.054688 19.375 39.046875 C 19.378906 39.042969 19.382812 39.035156 19.386719 39.03125 C 19.390625 39.019531 19.398438 39.011719 19.40625 39.003906 C 19.410156 39 19.414062 38.992188 19.417969 38.984375 C 19.425781 38.976562 19.429688 38.96875 19.4375 38.960938 C 19.441406 38.953125 19.445312 38.949219 19.449219 38.941406 C 19.457031 38.933594 19.460938 38.925781 19.46875 38.914062 C 19.472656 38.910156 19.476562 38.902344 19.480469 38.898438 C 19.484375 38.886719 19.492188 38.878906 19.496094 38.871094 C 19.5 38.863281 19.503906 38.859375 19.507812 38.851562 C 19.515625 38.84375 19.523438 38.832031 19.527344 38.824219 C 19.53125 38.816406 19.535156 38.8125 19.539062 38.808594 C 19.546875 38.792969 19.554688 38.777344 19.566406 38.761719 C 19.574219 38.746094 19.582031 38.730469 19.589844 38.71875 C 19.59375 38.710938 19.597656 38.707031 19.601562 38.703125 C 19.605469 38.691406 19.613281 38.679688 19.617188 38.671875 C 19.621094 38.664062 19.625 38.660156 19.625 38.652344 C 19.632812 38.644531 19.636719 38.632812 19.640625 38.625 C 19.644531 38.617188 19.648438 38.613281 19.652344 38.605469 C 19.65625 38.597656 19.660156 38.585938 19.667969 38.578125 C 19.667969 38.570312 19.671875 38.5625 19.675781 38.558594 C 19.679688 38.546875 19.683594 38.539062 19.691406 38.53125 C 19.691406 38.523438 19.695312 38.515625 19.699219 38.511719 C 19.703125 38.5 19.707031 38.492188 19.710938 38.480469 C 19.714844 38.476562 19.71875 38.46875 19.722656 38.460938 C 19.726562 38.453125 19.730469 38.441406 19.734375 38.433594 C 19.738281 38.425781 19.738281 38.421875 19.742188 38.414062 C 19.746094 38.402344 19.753906 38.390625 19.757812 38.378906 C 19.757812 38.375 19.761719 38.371094 19.761719 38.367188 C 19.769531 38.351562 19.777344 38.332031 19.78125 38.316406 C 19.785156 38.3125 19.785156 38.308594 19.785156 38.304688 C 19.792969 38.292969 19.796875 38.28125 19.800781 38.269531 C 19.804688 38.261719 19.804688 38.257812 19.808594 38.25 C 19.8125 38.242188 19.816406 38.230469 19.820312 38.21875 C 19.820312 38.214844 19.824219 38.207031 19.824219 38.199219 C 19.828125 38.191406 19.832031 38.179688 19.835938 38.171875 C 19.835938 38.164062 19.839844 38.15625 19.84375 38.148438 C 19.84375 38.140625 19.847656 38.128906 19.851562 38.121094 C 19.855469 38.113281 19.855469 38.105469 19.859375 38.101562 C 19.859375 38.089844 19.863281 38.078125 19.867188 38.070312 C 19.867188 38.0625 19.871094 38.054688 19.871094 38.050781 C 19.875 38.039062 19.878906 38.027344 19.882812 38.019531 C 19.882812 38.011719 19.886719 38.007812 19.886719 38 C 19.890625 37.988281 19.894531 37.976562 19.894531 37.964844 C 19.898438 37.960938 19.898438 37.953125 19.898438 37.949219 C 19.902344 37.933594 19.910156 37.914062 19.914062 37.898438 C 19.917969 37.878906 19.921875 37.863281 19.921875 37.847656 C 19.925781 37.84375 19.925781 37.835938 19.925781 37.832031 C 19.929688 37.820312 19.933594 37.808594 19.933594 37.796875 C 19.9375 37.789062 19.9375 37.785156 19.9375 37.777344 C 19.941406 37.765625 19.941406 37.757812 19.945312 37.746094 C 19.945312 37.738281 19.945312 37.730469 19.949219 37.726562 C 19.949219 37.714844 19.949219 37.707031 19.953125 37.695312 C 19.953125 37.6875 19.957031 37.679688 19.957031 37.671875 C 19.957031 37.664062 19.960938 37.652344 19.960938 37.644531 C 19.960938 37.636719 19.964844 37.628906 19.964844 37.621094 C 19.964844 37.613281 19.964844 37.601562 19.96875 37.589844 C 19.96875 37.585938 19.96875 37.578125 19.96875 37.570312 C 19.972656 37.558594 19.972656 37.550781 19.972656 37.539062 C 19.976562 37.53125 19.976562 37.527344 19.976562 37.519531 C 19.976562 37.507812 19.980469 37.492188 19.980469 37.480469 C 19.980469 37.476562 19.980469 37.472656 19.980469 37.46875 C 19.984375 37.449219 19.984375 37.433594 19.984375 37.417969 C 19.984375 37.410156 19.984375 37.40625 19.988281 37.402344 C 19.988281 37.390625 19.988281 37.378906 19.988281 37.363281 C 19.988281 37.359375 19.988281 37.351562 19.988281 37.34375 C 19.992188 37.335938 19.992188 37.324219 19.992188 37.3125 C 19.992188 37.304688 19.992188 37.300781 19.992188 37.292969 C 19.992188 37.28125 19.992188 37.273438 19.992188 37.261719 C 19.992188 37.253906 19.992188 37.246094 19.992188 37.238281 C 19.992188 37.230469 19.992188 37.21875 19.992188 37.210938 C 19.992188 37.203125 19.992188 37.195312 19.992188 37.1875 C 19.992188 37.175781 19.992188 37.167969 19.992188 37.15625 C 19.992188 37.148438 19.992188 37.140625 19.992188 37.136719 C 19.992188 37.125 19.992188 37.113281 19.992188 37.105469 C 19.992188 37.097656 19.992188 37.089844 19.992188 37.082031 C 19.992188 37.070312 19.992188 37.058594 19.988281 37.046875 C 19.988281 37.042969 19.988281 37.039062 19.988281 37.03125 C 19.988281 37.015625 19.988281 36.996094 19.988281 36.980469 C 19.984375 36.980469 19.984375 36.976562 19.984375 36.976562 C 19.984375 36.960938 19.984375 36.945312 19.980469 36.929688 C 19.980469 36.921875 19.980469 36.917969 19.980469 36.910156 C 19.980469 36.898438 19.980469 36.886719 19.976562 36.875 C 19.976562 36.871094 19.976562 36.863281 19.976562 36.855469 C 19.972656 36.847656 19.972656 36.835938 19.972656 36.824219 C 19.96875 36.816406 19.96875 36.8125 19.96875 36.804688 C 19.96875 36.792969 19.964844 36.785156 19.964844 36.773438 C 19.964844 36.765625 19.960938 36.757812 19.960938 36.75 C 19.960938 36.742188 19.957031 36.730469 19.957031 36.722656 C 19.957031 36.714844 19.953125 36.707031 19.953125 36.699219 C 19.953125 36.691406 19.949219 36.679688 19.949219 36.667969 C 19.949219 36.664062 19.945312 36.65625 19.945312 36.648438 C 19.945312 36.644531 19.945312 36.644531 19.945312 36.640625 C 19.902344 36.40625 19.984375 36.167969 20.164062 36.011719 L 20.945312 35.328125 L 24.113281 38.941406 C 24.113281 38.945312 24.117188 38.945312 24.117188 38.949219 C 24.121094 38.949219 24.121094 38.953125 24.125 38.957031 C 24.128906 38.960938 24.132812 38.964844 24.136719 38.96875 C 24.140625 38.972656 24.140625 38.972656 24.144531 38.976562 C 24.148438 38.980469 24.15625 38.984375 24.160156 38.992188 C 24.160156 38.992188 24.164062 38.992188 24.164062 38.992188 C 24.179688 39.003906 24.195312 39.015625 24.210938 39.027344 C 24.21875 39.03125 24.226562 39.035156 24.234375 39.039062 C 24.234375 39.039062 24.234375 39.042969 24.234375 39.042969 C 24.242188 39.046875 24.25 39.050781 24.261719 39.054688 C 24.273438 39.058594 24.28125 39.0625 24.292969 39.066406 L 27.550781 40.335938 C 27.605469 40.359375 27.660156 40.367188 27.714844 40.367188 C 27.824219 40.367188 27.929688 40.328125 28.015625 40.253906 C 28.140625 40.144531 28.195312 39.972656 28.15625 39.808594 L 27.324219 36.40625 C 27.324219 36.402344 27.324219 36.402344 27.324219 36.402344 C 27.324219 36.394531 27.320312 36.386719 27.320312 36.382812 C 27.320312 36.378906 27.316406 36.375 27.316406 36.375 C 27.316406 36.367188 27.3125 36.359375 27.308594 36.355469 C 27.308594 36.351562 27.308594 36.351562 27.308594 36.347656 C 27.304688 36.339844 27.300781 36.332031 27.296875 36.324219 C 27.296875 36.320312 27.296875 36.320312 27.292969 36.316406 C 27.292969 36.3125 27.289062 36.304688 27.285156 36.300781 C 27.285156 36.296875 27.285156 36.296875 27.28125 36.292969 C 27.277344 36.285156 27.277344 36.28125 27.273438 36.277344 C 27.269531 36.273438 27.269531 36.273438 27.269531 36.269531 C 27.261719 36.261719 27.257812 36.253906 27.253906 36.25 C 27.253906 36.246094 27.25 36.246094 27.25 36.246094 C 27.246094 36.238281 27.242188 36.234375 27.238281 36.226562 C 27.234375 36.226562 27.234375 36.222656 27.230469 36.222656 C 27.230469 36.21875 27.230469 36.214844 27.226562 36.214844 L 24.058594 32.597656 L 24.84375 31.914062 C 25.019531 31.757812 25.269531 31.707031 25.496094 31.78125 C 25.496094 31.78125 25.5 31.78125 25.503906 31.78125 C 25.507812 31.785156 25.515625 31.785156 25.523438 31.789062 C 25.53125 31.792969 25.542969 31.792969 25.550781 31.796875 C 25.558594 31.800781 25.566406 31.800781 25.574219 31.804688 C 25.582031 31.804688 25.59375 31.808594 25.601562 31.8125 C 25.609375 31.8125 25.617188 31.816406 25.621094 31.816406 C 25.632812 31.820312 25.644531 31.824219 25.652344 31.824219 C 25.660156 31.828125 25.667969 31.828125 25.671875 31.832031 C 25.683594 31.835938 25.695312 31.835938 25.703125 31.839844 C 25.710938 31.839844 25.71875 31.84375 25.722656 31.84375 C 25.734375 31.847656 25.746094 31.847656 25.757812 31.851562 C 25.761719 31.851562 25.769531 31.855469 25.773438 31.855469 C 25.789062 31.859375 25.804688 31.863281 25.824219 31.867188 C 25.84375 31.871094 25.859375 31.875 25.875 31.875 C 25.882812 31.878906 25.886719 31.878906 25.890625 31.878906 C 25.902344 31.882812 25.914062 31.882812 25.925781 31.886719 C 25.933594 31.886719 25.941406 31.886719 25.945312 31.890625 C 25.957031 31.890625 25.96875 31.890625 25.976562 31.894531 C 25.984375 31.894531 25.992188 31.894531 26 31.898438 C 26.007812 31.898438 26.019531 31.898438 26.03125 31.902344 C 26.035156 31.902344 26.042969 31.902344 26.050781 31.902344 C 26.0625 31.90625 26.070312 31.90625 26.082031 31.90625 C 26.089844 31.910156 26.09375 31.910156 26.101562 31.910156 C 26.113281 31.910156 26.125 31.914062 26.132812 31.914062 C 26.140625 31.914062 26.148438 31.914062 26.15625 31.914062 C 26.164062 31.917969 26.175781 31.917969 26.1875 31.917969 C 26.191406 31.917969 26.199219 31.917969 26.207031 31.921875 C 26.21875 31.921875 26.230469 31.921875 26.246094 31.921875 C 26.25 31.921875 26.253906 31.921875 26.257812 31.921875 C 26.273438 31.925781 26.292969 31.925781 26.308594 31.925781 C 26.3125 31.925781 26.316406 31.925781 26.320312 31.925781 C 26.335938 31.925781 26.347656 31.929688 26.359375 31.929688 C 26.367188 31.929688 26.375 31.929688 26.378906 31.929688 C 26.390625 31.929688 26.402344 31.929688 26.414062 31.929688 C 26.417969 31.929688 26.425781 31.929688 26.433594 31.929688 C 26.445312 31.929688 26.453125 31.929688 26.464844 31.929688 C 26.472656 31.929688 26.480469 31.929688 26.484375 31.929688 C 26.496094 31.929688 26.507812 31.929688 26.515625 31.929688 C 26.523438 31.929688 26.53125 31.929688 26.539062 31.929688 C 26.546875 31.925781 26.558594 31.925781 26.570312 31.925781 C 26.574219 31.925781 26.582031 31.925781 26.589844 31.925781 C 26.601562 31.925781 26.613281 31.925781 26.621094 31.925781 C 26.628906 31.921875 26.636719 31.921875 26.640625 31.921875 C 26.652344 31.921875 26.664062 31.921875 26.675781 31.921875 C 26.683594 31.921875 26.6875 31.917969 26.695312 31.917969 C 26.710938 31.917969 26.726562 31.917969 26.742188 31.914062 C 26.746094 31.914062 26.746094 31.914062 26.746094 31.914062 C 26.761719 31.914062 26.78125 31.910156 26.796875 31.910156 C 26.800781 31.910156 26.808594 31.90625 26.8125 31.90625 C 26.824219 31.90625 26.835938 31.902344 26.847656 31.902344 C 26.855469 31.902344 26.863281 31.902344 26.867188 31.898438 C 26.878906 31.898438 26.890625 31.898438 26.898438 31.894531 C 26.90625 31.894531 26.914062 31.894531 26.921875 31.890625 C 26.929688 31.890625 26.941406 31.890625 26.953125 31.886719 C 26.957031 31.886719 26.964844 31.882812 26.972656 31.882812 C 26.984375 31.882812 26.992188 31.878906 27.003906 31.878906 C 27.011719 31.875 27.015625 31.875 27.023438 31.875 C 27.035156 31.871094 27.046875 31.871094 27.054688 31.867188 C 27.0625 31.867188 27.070312 31.863281 27.074219 31.863281 C 27.085938 31.863281 27.097656 31.859375 27.109375 31.855469 C 27.113281 31.855469 27.121094 31.855469 27.125 31.851562 C 27.140625 31.847656 27.152344 31.847656 27.164062 31.84375 C 27.167969 31.84375 27.171875 31.839844 27.175781 31.839844 C 27.195312 31.835938 27.210938 31.832031 27.226562 31.828125 C 27.230469 31.828125 27.234375 31.824219 27.238281 31.824219 C 27.253906 31.820312 27.265625 31.816406 27.277344 31.8125 C 27.285156 31.8125 27.289062 31.808594 27.296875 31.808594 C 27.308594 31.804688 27.316406 31.800781 27.328125 31.800781 C 27.335938 31.796875 27.34375 31.796875 27.347656 31.792969 C 27.359375 31.789062 27.371094 31.785156 27.378906 31.785156 C 27.386719 31.78125 27.394531 31.777344 27.398438 31.777344 C 27.410156 31.773438 27.417969 31.769531 27.429688 31.765625 C 27.4375 31.765625 27.445312 31.761719 27.449219 31.757812 C 27.460938 31.757812 27.46875 31.753906 27.480469 31.75 C 27.488281 31.746094 27.492188 31.746094 27.5 31.742188 C 27.511719 31.738281 27.519531 31.734375 27.53125 31.730469 C 27.535156 31.726562 27.542969 31.726562 27.550781 31.722656 C 27.5625 31.71875 27.570312 31.714844 27.582031 31.710938 C 27.585938 31.707031 27.59375 31.707031 27.597656 31.703125 C 27.613281 31.699219 27.628906 31.691406 27.648438 31.683594 C 27.664062 31.675781 27.679688 31.667969 27.695312 31.664062 C 27.703125 31.660156 27.707031 31.65625 27.710938 31.65625 C 27.722656 31.648438 27.734375 31.644531 27.746094 31.640625 C 27.75 31.636719 27.757812 31.632812 27.761719 31.632812 C 27.773438 31.625 27.78125 31.621094 27.792969 31.617188 C 27.800781 31.613281 27.804688 31.609375 27.8125 31.605469 C 27.820312 31.601562 27.832031 31.597656 27.839844 31.59375 C 27.847656 31.589844 27.851562 31.585938 27.859375 31.582031 C 27.871094 31.578125 27.878906 31.574219 27.886719 31.566406 C 27.894531 31.566406 27.902344 31.5625 27.90625 31.558594 C 27.917969 31.550781 27.925781 31.546875 27.9375 31.542969 C 27.941406 31.539062 27.949219 31.535156 27.953125 31.53125 C 27.964844 31.527344 27.972656 31.519531 27.984375 31.515625 C 27.988281 31.511719 27.996094 31.507812 28 31.503906 C 28.011719 31.496094 28.023438 31.492188 28.035156 31.484375 C 28.039062 31.480469 28.042969 31.480469 28.046875 31.476562 C 28.0625 31.46875 28.078125 31.457031 28.09375 31.449219 C 28.097656 31.445312 28.101562 31.441406 28.105469 31.441406 C 28.117188 31.433594 28.128906 31.425781 28.140625 31.417969 C 28.144531 31.414062 28.148438 31.410156 28.15625 31.40625 C 28.164062 31.398438 28.175781 31.394531 28.183594 31.386719 C 28.191406 31.382812 28.195312 31.378906 28.203125 31.375 C 28.210938 31.367188 28.21875 31.363281 28.230469 31.355469 C 28.234375 31.351562 28.242188 31.347656 28.246094 31.34375 C 28.253906 31.335938 28.265625 31.328125 28.273438 31.324219 C 28.277344 31.320312 28.285156 31.3125 28.292969 31.308594 C 28.300781 31.304688 28.308594 31.296875 28.316406 31.289062 C 28.324219 31.285156 28.328125 31.28125 28.335938 31.277344 C 28.34375 31.269531 28.351562 31.261719 28.363281 31.253906 C 28.367188 31.25 28.371094 31.246094 28.378906 31.242188 C 28.386719 31.234375 28.398438 31.226562 28.40625 31.21875 C 28.410156 31.214844 28.417969 31.210938 28.421875 31.207031 C 28.433594 31.195312 28.449219 31.179688 28.464844 31.167969 C 28.554688 31.089844 28.640625 31.003906 28.722656 30.914062 C 28.746094 30.886719 28.769531 30.863281 28.789062 30.835938 C 28.8125 30.8125 28.832031 30.785156 28.855469 30.757812 C 28.871094 30.738281 28.882812 30.71875 28.898438 30.703125 C 28.964844 30.613281 29.027344 30.519531 29.082031 30.425781 C 29.097656 30.398438 29.117188 30.367188 29.132812 30.339844 C 29.148438 30.308594 29.164062 30.28125 29.179688 30.25 C 29.191406 30.222656 29.207031 30.191406 29.222656 30.164062 C 29.234375 30.132812 29.25 30.101562 29.261719 30.070312 C 29.292969 29.996094 29.324219 29.917969 29.347656 29.84375 C 29.359375 29.8125 29.371094 29.78125 29.378906 29.75 C 29.386719 29.71875 29.394531 29.691406 29.402344 29.664062 C 29.457031 29.472656 29.488281 29.273438 29.503906 29.078125 C 29.503906 29.058594 29.503906 29.042969 29.503906 29.027344 C 29.507812 28.996094 29.507812 28.964844 29.507812 28.933594 C 29.507812 28.929688 29.507812 28.929688 29.507812 28.929688 C 29.511719 28.847656 29.507812 28.769531 29.503906 28.691406 C 29.503906 28.6875 29.503906 28.683594 29.503906 28.679688 Z M 16.375 27.035156 L 16.441406 26.980469 C 16.65625 26.792969 16.917969 26.703125 17.179688 26.703125 C 17.492188 26.703125 17.800781 26.832031 18.023438 27.082031 L 18.582031 27.722656 L 16.832031 29.257812 L 16.273438 28.617188 C 15.867188 28.152344 15.914062 27.441406 16.375 27.035156 Z M 17.921875 29.511719 L 25.046875 37.523438 L 24.496094 38.003906 L 17.429688 29.9375 Z M 25.3125 38.492188 L 26.621094 37.347656 L 27.070312 39.175781 Z M 25.726562 36.925781 L 18.605469 28.910156 L 19.179688 28.40625 L 26.246094 36.472656 Z M 25.726562 36.925781 " fill-opacity="1" fill-rule="nonzero"/></g><g clip-path="url(#fe1686f062)"><path fill="#ffffff" d="M 36.742188 16.878906 L 33.289062 16.097656 L 32.359375 13.855469 L 34.25 10.863281 C 34.394531 10.632812 34.363281 10.332031 34.167969 10.140625 L 31.609375 7.582031 C 31.417969 7.390625 31.117188 7.355469 30.886719 7.5 L 27.894531 9.390625 L 25.652344 8.460938 L 24.871094 5.007812 C 24.8125 4.742188 24.578125 4.554688 24.304688 4.554688 L 20.683594 4.554688 C 20.414062 4.554688 20.175781 4.742188 20.117188 5.007812 L 19.335938 8.460938 L 17.09375 9.390625 L 14.101562 7.5 C 13.871094 7.355469 13.570312 7.390625 13.378906 7.582031 L 10.820312 10.140625 C 10.625 10.332031 10.59375 10.632812 10.738281 10.863281 L 12.628906 13.855469 L 11.699219 16.097656 L 8.246094 16.878906 C 7.980469 16.9375 7.792969 17.175781 7.792969 17.445312 L 7.792969 21.066406 C 7.792969 21.339844 7.980469 21.574219 8.246094 21.632812 L 11.699219 22.414062 L 12.628906 24.65625 L 10.738281 27.648438 C 10.59375 27.878906 10.625 28.179688 10.820312 28.371094 L 13.378906 30.933594 C 13.570312 31.125 13.871094 31.15625 14.101562 31.011719 L 15.179688 30.332031 C 15.453125 30.160156 15.535156 29.800781 15.363281 29.527344 C 15.191406 29.257812 14.832031 29.175781 14.558594 29.347656 L 13.875 29.78125 L 11.972656 27.878906 L 13.773438 25.023438 C 13.875 24.863281 13.890625 24.664062 13.820312 24.492188 L 12.660156 21.691406 C 12.585938 21.515625 12.433594 21.386719 12.25 21.34375 L 8.957031 20.601562 L 8.957031 17.914062 L 12.25 17.167969 C 12.433594 17.125 12.585938 17 12.660156 16.824219 L 13.820312 14.023438 C 13.890625 13.847656 13.875 13.648438 13.773438 13.488281 L 11.972656 10.636719 L 13.875 8.734375 L 16.726562 10.535156 C 16.886719 10.636719 17.085938 10.652344 17.261719 10.582031 L 20.0625 9.421875 C 20.234375 9.347656 20.363281 9.195312 20.40625 9.011719 L 21.148438 5.71875 L 23.839844 5.71875 L 24.582031 9.011719 C 24.625 9.195312 24.753906 9.347656 24.925781 9.421875 L 27.726562 10.582031 C 27.902344 10.652344 28.101562 10.636719 28.261719 10.535156 L 31.117188 8.734375 L 33.015625 10.636719 L 31.214844 13.488281 C 31.113281 13.648438 31.097656 13.847656 31.167969 14.023438 L 32.328125 16.824219 C 32.402344 17 32.554688 17.125 32.738281 17.167969 L 36.03125 17.914062 L 36.03125 20.601562 L 32.738281 21.34375 C 32.554688 21.386719 32.402344 21.515625 32.328125 21.691406 L 31.167969 24.492188 C 31.097656 24.664062 31.113281 24.863281 31.214844 25.023438 L 33.015625 27.878906 L 31.117188 29.78125 L 30.726562 29.535156 C 30.453125 29.363281 30.09375 29.445312 29.921875 29.714844 C 29.753906 29.988281 29.832031 30.347656 30.105469 30.519531 L 30.886719 31.011719 C 30.984375 31.074219 31.089844 31.101562 31.199219 31.101562 C 31.347656 31.101562 31.496094 31.042969 31.609375 30.933594 L 34.167969 28.371094 C 34.363281 28.179688 34.394531 27.878906 34.25 27.648438 L 32.359375 24.65625 L 33.289062 22.414062 L 36.742188 21.632812 C 37.007812 21.574219 37.195312 21.339844 37.195312 21.066406 L 37.195312 17.445312 C 37.195312 17.175781 37.007812 16.9375 36.742188 16.878906 Z M 36.742188 16.878906 " fill-opacity="1" fill-rule="nonzero"/></g><path fill="#ffffff" d="M 19.925781 25.339844 C 20.738281 25.683594 21.601562 25.859375 22.496094 25.859375 C 23.386719 25.859375 24.25 25.683594 25.0625 25.339844 C 25.851562 25.007812 26.554688 24.53125 27.160156 23.925781 C 27.769531 23.316406 28.242188 22.613281 28.578125 21.828125 C 28.921875 21.011719 29.09375 20.148438 29.09375 19.257812 C 29.09375 18.367188 28.921875 17.5 28.578125 16.6875 C 28.242188 15.902344 27.769531 15.195312 27.160156 14.589844 C 26.554688 13.984375 25.851562 13.507812 25.0625 13.175781 C 24.25 12.832031 23.386719 12.65625 22.496094 12.65625 C 21.601562 12.65625 20.738281 12.832031 19.925781 13.175781 C 19.136719 13.507812 18.433594 13.984375 17.828125 14.589844 C 17.222656 15.195312 16.746094 15.902344 16.414062 16.6875 C 16.066406 17.5 15.894531 18.367188 15.894531 19.257812 C 15.894531 20.148438 16.066406 21.011719 16.414062 21.828125 C 16.746094 22.613281 17.222656 23.316406 17.828125 23.925781 C 18.433594 24.53125 19.136719 25.007812 19.925781 25.339844 Z M 18.648438 15.414062 C 19.675781 14.386719 21.042969 13.820312 22.496094 13.820312 C 23.945312 13.820312 25.3125 14.386719 26.339844 15.414062 C 27.367188 16.4375 27.929688 17.804688 27.929688 19.257812 C 27.929688 20.710938 27.367188 22.074219 26.339844 23.101562 C 25.3125 24.128906 23.945312 24.695312 22.496094 24.695312 C 21.042969 24.695312 19.675781 24.128906 18.648438 23.101562 C 17.625 22.074219 17.058594 20.710938 17.058594 19.257812 C 17.058594 17.804688 17.625 16.4375 18.648438 15.414062 Z M 18.648438 15.414062 " fill-opacity="1" fill-rule="nonzero"/></svg>