<svg xmlns="http://www.w3.org/2000/svg" xmlns:xlink="http://www.w3.org/1999/xlink" width="60" zoomAndPan="magnify" viewBox="0 0 45 44.999999" height="60" preserveAspectRatio="xMidYMid meet" version="1.0"><defs><clipPath id="5aeb54d89a"><path d="M 22.5 0 C 10.074219 0 0 10.074219 0 22.5 C 0 34.925781 10.074219 45 22.5 45 C 34.925781 45 45 34.925781 45 22.5 C 45 10.074219 34.925781 0 22.5 0 Z M 22.5 0 " clip-rule="nonzero"/></clipPath><clipPath id="982a067109"><path d="M 0 0 L 45 0 L 45 45 L 0 45 Z M 0 0 " clip-rule="nonzero"/></clipPath><clipPath id="617b60122b"><path d="M 22.5 0 C 10.074219 0 0 10.074219 0 22.5 C 0 34.925781 10.074219 45 22.5 45 C 34.925781 45 45 34.925781 45 22.5 C 45 10.074219 34.925781 0 22.5 0 Z M 22.5 0 " clip-rule="nonzero"/></clipPath><clipPath id="01b883cf60"><rect x="0" width="45" y="0" height="45"/></clipPath><clipPath id="16f32f9345"><path d="M 8.785156 5.800781 L 36.535156 5.800781 L 36.535156 39.550781 L 8.785156 39.550781 Z M 8.785156 5.800781 " clip-rule="nonzero"/></clipPath></defs><g clip-path="url(#5aeb54d89a)"><g transform="matrix(1, 0, 0, 1, 0, 0)"><g clip-path="url(#01b883cf60)"><g clip-path="url(#982a067109)"><g clip-path="url(#617b60122b)"><rect x="-9.9" width="64.8" fill="#ec2228" height="64.799999" y="-9.9" fill-opacity="1"/></g></g></g></g></g><g clip-path="url(#16f32f9345)"><path fill="#ffffff" d="M 36.175781 34.660156 L 31.078125 24.28125 C 31.085938 24.230469 31.09375 24.179688 31.101562 24.128906 C 31.144531 23.804688 31.191406 23.472656 31.320312 23.28125 C 31.445312 23.09375 31.734375 22.925781 32.011719 22.765625 C 32.425781 22.523438 32.890625 22.25 33.089844 21.773438 C 33.28125 21.308594 33.148438 20.789062 33.027344 20.332031 C 32.945312 20.015625 32.859375 19.6875 32.90625 19.457031 C 32.949219 19.242188 33.148438 18.980469 33.339844 18.726562 C 33.628906 18.34375 33.957031 17.90625 33.957031 17.386719 C 33.957031 16.867188 33.628906 16.433594 33.339844 16.050781 C 33.148438 15.796875 32.949219 15.535156 32.90625 15.316406 C 32.859375 15.085938 32.945312 14.757812 33.027344 14.441406 C 33.148438 13.984375 33.28125 13.464844 33.089844 13 C 32.890625 12.527344 32.425781 12.253906 32.011719 12.011719 C 31.734375 11.847656 31.445312 11.679688 31.320312 11.492188 C 31.191406 11.300781 31.144531 10.96875 31.101562 10.648438 C 31.035156 10.175781 30.960938 9.644531 30.601562 9.285156 C 30.242188 8.921875 29.707031 8.851562 29.238281 8.785156 C 28.917969 8.738281 28.585938 8.691406 28.394531 8.566406 C 28.203125 8.4375 28.035156 8.152344 27.875 7.871094 C 27.632812 7.460938 27.359375 6.992188 26.886719 6.796875 C 26.417969 6.605469 25.902344 6.738281 25.441406 6.855469 C 25.125 6.941406 24.796875 7.023438 24.566406 6.980469 C 24.351562 6.9375 24.089844 6.738281 23.835938 6.546875 C 23.453125 6.253906 23.015625 5.925781 22.496094 5.925781 C 21.976562 5.925781 21.542969 6.253906 21.160156 6.546875 C 20.90625 6.738281 20.644531 6.9375 20.425781 6.980469 C 20.195312 7.027344 19.867188 6.941406 19.550781 6.855469 C 19.09375 6.738281 18.574219 6.601562 18.109375 6.796875 C 17.636719 6.992188 17.363281 7.460938 17.121094 7.871094 C 16.957031 8.152344 16.789062 8.4375 16.601562 8.5625 C 16.410156 8.691406 16.078125 8.738281 15.757812 8.785156 C 15.285156 8.851562 14.753906 8.921875 14.394531 9.285156 C 14.035156 9.644531 13.960938 10.175781 13.894531 10.648438 C 13.847656 10.96875 13.800781 11.300781 13.675781 11.492188 C 13.550781 11.679688 13.261719 11.847656 12.984375 12.011719 C 12.570312 12.253906 12.101562 12.527344 11.90625 13 C 11.714844 13.464844 11.847656 13.984375 11.96875 14.441406 C 12.050781 14.757812 12.136719 15.085938 12.089844 15.316406 C 12.046875 15.535156 11.847656 15.796875 11.65625 16.050781 C 11.363281 16.433594 11.035156 16.867188 11.035156 17.386719 C 11.035156 17.90625 11.363281 18.34375 11.65625 18.726562 C 11.847656 18.980469 12.046875 19.242188 12.089844 19.457031 C 12.136719 19.6875 12.050781 20.015625 11.96875 20.332031 C 11.847656 20.789062 11.714844 21.308594 11.90625 21.773438 C 12.101562 22.25 12.570312 22.523438 12.984375 22.761719 C 13.261719 22.925781 13.546875 23.09375 13.675781 23.28125 C 13.800781 23.472656 13.847656 23.804688 13.894531 24.128906 C 13.902344 24.175781 13.90625 24.230469 13.914062 24.277344 L 12.550781 27.058594 C 12.457031 27.257812 12.535156 27.492188 12.734375 27.589844 C 12.789062 27.617188 12.847656 27.628906 12.90625 27.628906 C 13.054688 27.628906 13.195312 27.546875 13.265625 27.410156 L 14.273438 25.351562 C 14.308594 25.398438 14.347656 25.445312 14.394531 25.492188 C 14.660156 25.757812 15.023438 25.867188 15.382812 25.933594 L 11.28125 34.296875 L 9.832031 34.390625 L 11.691406 30.609375 C 11.789062 30.414062 11.707031 30.175781 11.511719 30.082031 C 11.3125 29.984375 11.074219 30.066406 10.980469 30.261719 L 8.820312 34.660156 C 8.757812 34.789062 8.769531 34.9375 8.847656 35.054688 C 8.925781 35.171875 9.058594 35.238281 9.203125 35.230469 L 14.035156 34.90625 L 16.742188 38.925781 C 16.816406 39.035156 16.9375 39.101562 17.070312 39.101562 C 17.078125 39.101562 17.085938 39.101562 17.097656 39.101562 C 17.238281 39.09375 17.363281 39.007812 17.425781 38.878906 L 22.351562 28.835938 C 22.402344 28.84375 22.449219 28.847656 22.5 28.847656 C 22.546875 28.847656 22.597656 28.84375 22.644531 28.835938 L 27.570312 38.878906 C 27.632812 39.007812 27.757812 39.09375 27.898438 39.101562 C 27.910156 39.101562 27.917969 39.101562 27.925781 39.101562 C 28.058594 39.101562 28.183594 39.035156 28.257812 38.925781 L 30.960938 34.90625 L 35.792969 35.230469 C 35.941406 35.242188 36.070312 35.171875 36.148438 35.054688 C 36.230469 34.9375 36.238281 34.789062 36.175781 34.660156 Z M 14.679688 24.019531 C 14.621094 23.609375 14.5625 23.183594 14.332031 22.84375 C 14.105469 22.503906 13.738281 22.289062 13.382812 22.078125 C 13.0625 21.894531 12.734375 21.699219 12.636719 21.472656 C 12.546875 21.253906 12.640625 20.886719 12.734375 20.53125 C 12.839844 20.128906 12.949219 19.714844 12.867188 19.304688 C 12.789062 18.910156 12.535156 18.574219 12.289062 18.246094 C 12.0625 17.949219 11.828125 17.640625 11.828125 17.386719 C 11.828125 17.132812 12.0625 16.828125 12.289062 16.527344 C 12.535156 16.203125 12.789062 15.867188 12.867188 15.472656 C 12.949219 15.0625 12.839844 14.644531 12.734375 14.242188 C 12.640625 13.890625 12.546875 13.523438 12.636719 13.304688 C 12.734375 13.078125 13.0625 12.882812 13.382812 12.695312 C 13.738281 12.488281 14.105469 12.273438 14.332031 11.933594 C 14.5625 11.589844 14.621094 11.167969 14.679688 10.757812 C 14.730469 10.390625 14.78125 10.015625 14.953125 9.84375 C 15.125 9.671875 15.5 9.621094 15.867188 9.570312 C 16.277344 9.511719 16.699219 9.453125 17.042969 9.222656 C 17.382812 8.996094 17.597656 8.628906 17.804688 8.273438 C 17.992188 7.953125 18.183594 7.625 18.414062 7.527344 C 18.632812 7.4375 19 7.53125 19.351562 7.625 C 19.753906 7.730469 20.171875 7.839844 20.582031 7.757812 C 20.976562 7.679688 21.3125 7.425781 21.636719 7.179688 C 21.933594 6.953125 22.242188 6.71875 22.496094 6.71875 C 22.75 6.71875 23.058594 6.953125 23.355469 7.179688 C 23.683594 7.425781 24.019531 7.679688 24.414062 7.757812 C 24.824219 7.839844 25.238281 7.730469 25.640625 7.625 C 25.996094 7.53125 26.359375 7.4375 26.582031 7.527344 C 26.808594 7.625 27.003906 7.953125 27.1875 8.273438 C 27.398438 8.628906 27.613281 8.996094 27.953125 9.222656 C 28.292969 9.453125 28.71875 9.511719 29.128906 9.570312 C 29.492188 9.621094 29.871094 9.671875 30.042969 9.84375 C 30.210938 10.015625 30.265625 10.394531 30.316406 10.757812 C 30.375 11.167969 30.433594 11.589844 30.660156 11.933594 C 30.886719 12.273438 31.257812 12.488281 31.613281 12.695312 C 31.929688 12.882812 32.261719 13.074219 32.355469 13.304688 C 32.445312 13.523438 32.351562 13.890625 32.261719 14.242188 C 32.15625 14.644531 32.046875 15.0625 32.128906 15.472656 C 32.207031 15.867188 32.460938 16.203125 32.707031 16.527344 C 32.933594 16.824219 33.164062 17.132812 33.164062 17.386719 C 33.164062 17.640625 32.933594 17.949219 32.707031 18.246094 C 32.460938 18.574219 32.207031 18.910156 32.128906 19.304688 C 32.046875 19.714844 32.15625 20.128906 32.261719 20.53125 C 32.351562 20.886719 32.445312 21.25 32.355469 21.472656 C 32.261719 21.699219 31.929688 21.894531 31.613281 22.078125 C 31.257812 22.289062 30.886719 22.503906 30.660156 22.84375 C 30.433594 23.183594 30.371094 23.609375 30.316406 24.019531 C 30.265625 24.382812 30.210938 24.761719 30.042969 24.933594 C 29.871094 25.105469 29.492188 25.15625 29.128906 25.207031 C 28.71875 25.265625 28.292969 25.324219 27.949219 25.550781 C 27.613281 25.78125 27.398438 26.148438 27.1875 26.503906 C 27.003906 26.820312 26.808594 27.152344 26.582031 27.246094 C 26.359375 27.339844 25.996094 27.242188 25.640625 27.152344 C 25.238281 27.046875 24.824219 26.9375 24.414062 27.019531 C 24.019531 27.097656 23.683594 27.351562 23.355469 27.597656 C 23.058594 27.824219 22.75 28.054688 22.496094 28.054688 C 22.242188 28.054688 21.933594 27.824219 21.636719 27.597656 C 21.3125 27.351562 20.976562 27.097656 20.582031 27.019531 C 20.480469 27 20.378906 26.992188 20.28125 26.992188 C 19.96875 26.992188 19.65625 27.070312 19.351562 27.152344 C 19 27.242188 18.632812 27.339844 18.414062 27.246094 C 18.183594 27.152344 17.992188 26.820312 17.804688 26.503906 C 17.597656 26.148438 17.382812 25.777344 17.042969 25.550781 C 16.699219 25.324219 16.277344 25.261719 15.867188 25.207031 C 15.5 25.15625 15.125 25.105469 14.953125 24.933594 C 14.78125 24.761719 14.730469 24.382812 14.679688 24.019531 Z M 14.207031 34.097656 L 12.195312 34.234375 L 16.203125 26.066406 C 16.359375 26.097656 16.5 26.144531 16.601562 26.210938 C 16.789062 26.335938 16.957031 26.625 17.121094 26.902344 C 17.363281 27.316406 17.636719 27.78125 18.109375 27.980469 C 18.574219 28.171875 19.09375 28.035156 19.550781 27.917969 C 19.585938 27.910156 19.617188 27.902344 19.652344 27.894531 L 15.695312 35.953125 L 14.566406 34.273438 C 14.484375 34.15625 14.355469 34.089844 14.210938 34.097656 Z M 17.015625 37.917969 L 16.203125 36.710938 L 20.558594 27.839844 C 20.746094 27.921875 20.953125 28.074219 21.160156 28.230469 C 21.300781 28.335938 21.453125 28.449219 21.609375 28.550781 Z M 27.980469 37.917969 L 23.386719 28.550781 C 23.542969 28.449219 23.691406 28.335938 23.835938 28.230469 C 24.039062 28.074219 24.25 27.917969 24.4375 27.839844 L 28.792969 36.710938 Z M 30.785156 34.097656 C 30.640625 34.085938 30.511719 34.15625 30.429688 34.273438 L 29.300781 35.953125 L 25.34375 27.890625 C 25.375 27.902344 25.410156 27.910156 25.441406 27.917969 C 25.902344 28.035156 26.417969 28.171875 26.882812 27.976562 C 27.359375 27.78125 27.632812 27.3125 27.875 26.902344 C 28.035156 26.625 28.203125 26.335938 28.390625 26.210938 C 28.492188 26.144531 28.632812 26.097656 28.789062 26.066406 L 32.800781 34.234375 Z M 33.710938 34.296875 L 29.609375 25.933594 C 29.972656 25.867188 30.335938 25.757812 30.601562 25.492188 C 30.644531 25.449219 30.6875 25.398438 30.722656 25.351562 L 35.160156 34.394531 Z M 11.605469 28.980469 L 11.921875 28.339844 C 12.019531 28.144531 12.257812 28.0625 12.453125 28.160156 C 12.648438 28.257812 12.730469 28.492188 12.632812 28.691406 L 12.316406 29.332031 C 12.246094 29.472656 12.105469 29.550781 11.960938 29.550781 C 11.902344 29.550781 11.84375 29.539062 11.785156 29.511719 C 11.589844 29.414062 11.507812 29.175781 11.605469 28.980469 Z M 22.496094 25.648438 C 27.050781 25.648438 30.757812 21.941406 30.757812 17.386719 C 30.757812 12.832031 27.050781 9.128906 22.496094 9.128906 C 17.945312 9.128906 14.238281 12.832031 14.238281 17.386719 C 14.238281 21.941406 17.945312 25.648438 22.496094 25.648438 Z M 22.496094 9.921875 C 26.613281 9.921875 29.964844 13.269531 29.964844 17.386719 C 29.964844 21.503906 26.613281 24.855469 22.496094 24.855469 C 18.378906 24.855469 15.03125 21.503906 15.03125 17.386719 C 15.03125 13.269531 18.378906 9.921875 22.496094 9.921875 Z M 22.496094 23.230469 C 25.71875 23.230469 28.339844 20.609375 28.339844 17.386719 C 28.339844 14.164062 25.71875 11.542969 22.496094 11.542969 C 19.277344 11.542969 16.652344 14.164062 16.652344 17.386719 C 16.652344 20.609375 19.277344 23.230469 22.496094 23.230469 Z M 22.496094 12.335938 C 25.28125 12.335938 27.546875 14.601562 27.546875 17.386719 C 27.546875 20.171875 25.28125 22.4375 22.496094 22.4375 C 19.710938 22.4375 17.445312 20.171875 17.445312 17.386719 C 17.445312 14.601562 19.710938 12.335938 22.496094 12.335938 Z M 20.179688 18.417969 L 19.984375 19.941406 C 19.945312 20.226562 20.070312 20.511719 20.304688 20.683594 C 20.441406 20.78125 20.605469 20.835938 20.769531 20.835938 C 20.886719 20.835938 21 20.808594 21.109375 20.757812 L 22.496094 20.101562 L 23.886719 20.757812 C 24.148438 20.882812 24.457031 20.851562 24.691406 20.683594 C 24.925781 20.511719 25.046875 20.226562 25.011719 19.941406 L 24.816406 18.417969 L 25.867188 17.300781 C 26.066406 17.089844 26.136719 16.785156 26.046875 16.511719 C 25.957031 16.234375 25.722656 16.03125 25.4375 15.976562 L 23.929688 15.691406 L 23.191406 14.34375 C 23.054688 14.089844 22.785156 13.933594 22.496094 13.933594 C 22.207031 13.933594 21.941406 14.089844 21.800781 14.34375 L 21.066406 15.691406 L 19.554688 15.976562 C 19.269531 16.03125 19.039062 16.234375 18.949219 16.511719 C 18.859375 16.785156 18.925781 17.089844 19.125 17.300781 Z M 21.394531 16.4375 C 21.511719 16.414062 21.613281 16.339844 21.671875 16.238281 L 22.496094 14.726562 L 23.324219 16.238281 C 23.382812 16.34375 23.484375 16.414062 23.597656 16.4375 L 25.292969 16.757812 L 24.109375 18.011719 C 24.027344 18.097656 23.992188 18.214844 24.003906 18.332031 L 24.226562 20.042969 L 22.667969 19.304688 C 22.558594 19.253906 22.4375 19.253906 22.328125 19.304688 L 20.769531 20.042969 L 20.988281 18.332031 C 21.003906 18.214844 20.964844 18.097656 20.886719 18.011719 L 19.703125 16.757812 Z M 21.394531 16.4375 " fill-opacity="1" fill-rule="nonzero"/></g></svg>