<svg xmlns="http://www.w3.org/2000/svg" xmlns:xlink="http://www.w3.org/1999/xlink" width="45" zoomAndPan="magnify" viewBox="0 0 33.75 33.749998" height="45" preserveAspectRatio="xMidYMid meet" version="1.0"><defs><clipPath id="ccdf8c8c42"><path d="M 0.371094 0.371094 L 33.128906 0.371094 L 33.128906 33.128906 L 0.371094 33.128906 Z M 0.371094 0.371094 " clip-rule="nonzero"/></clipPath><clipPath id="f1cedb4e91"><path d="M 0.371094 0.371094 L 33.128906 0.371094 L 33.128906 33.128906 L 0.371094 33.128906 Z M 0.371094 0.371094 " clip-rule="nonzero"/></clipPath><clipPath id="3b948b76cc"><path d="M 16.75 0.371094 C 7.707031 0.371094 0.371094 7.707031 0.371094 16.75 C 0.371094 25.796875 7.707031 33.128906 16.75 33.128906 C 25.796875 33.128906 33.128906 25.796875 33.128906 16.75 C 33.128906 7.707031 25.796875 0.371094 16.75 0.371094 Z M 16.75 0.371094 " clip-rule="nonzero"/></clipPath><clipPath id="d868f5ae95"><path d="M 16.75 0.371094 C 7.707031 0.371094 0.371094 7.707031 0.371094 16.75 C 0.371094 25.796875 7.707031 33.128906 16.75 33.128906 C 25.796875 33.128906 33.128906 25.796875 33.128906 16.75 C 33.128906 7.707031 25.796875 0.371094 16.75 0.371094 Z M 16.75 0.371094 " clip-rule="nonzero"/></clipPath><clipPath id="7ae1d21f3c"><path d="M 6.765625 4.59375 L 26.96875 4.59375 L 26.96875 29 L 6.765625 29 Z M 6.765625 4.59375 " clip-rule="nonzero"/></clipPath></defs><g clip-path="url(#ccdf8c8c42)"><rect x="-3.375" width="40.5" fill="#ffffff" y="-3.375" height="40.499998" fill-opacity="1"/><rect x="-3.375" width="40.5" fill="#ffffff" y="-3.375" height="40.499998" fill-opacity="1"/></g><g clip-path="url(#f1cedb4e91)"><g clip-path="url(#3b948b76cc)"><g clip-path="url(#d868f5ae95)"><rect x="-3.375" width="40.5" fill="#ec2228" y="-3.375" height="40.499998" fill-opacity="1"/></g></g></g><g clip-path="url(#7ae1d21f3c)"><path fill="#ffffff" d="M 26.707031 25.601562 L 22.996094 18.046875 C 23 18.011719 23.007812 17.972656 23.011719 17.9375 C 23.042969 17.699219 23.078125 17.457031 23.171875 17.320312 C 23.261719 17.183594 23.472656 17.0625 23.675781 16.945312 C 23.976562 16.769531 24.316406 16.570312 24.460938 16.222656 C 24.597656 15.882812 24.503906 15.503906 24.414062 15.171875 C 24.355469 14.941406 24.292969 14.703125 24.324219 14.535156 C 24.355469 14.378906 24.503906 14.1875 24.640625 14.003906 C 24.851562 13.726562 25.089844 13.40625 25.089844 13.027344 C 25.089844 12.652344 24.851562 12.335938 24.640625 12.054688 C 24.503906 11.871094 24.355469 11.679688 24.324219 11.523438 C 24.292969 11.355469 24.355469 11.113281 24.414062 10.882812 C 24.503906 10.550781 24.597656 10.175781 24.460938 9.835938 C 24.316406 9.492188 23.976562 9.292969 23.675781 9.117188 C 23.472656 8.996094 23.261719 8.875 23.171875 8.738281 C 23.078125 8.597656 23.042969 8.355469 23.011719 8.125 C 22.964844 7.78125 22.910156 7.394531 22.648438 7.132812 C 22.386719 6.867188 21.996094 6.816406 21.65625 6.765625 C 21.421875 6.734375 21.179688 6.699219 21.042969 6.609375 C 20.902344 6.515625 20.78125 6.308594 20.664062 6.101562 C 20.488281 5.804688 20.289062 5.460938 19.945312 5.320312 C 19.601562 5.179688 19.226562 5.277344 18.890625 5.363281 C 18.660156 5.425781 18.421875 5.484375 18.253906 5.453125 C 18.097656 5.421875 17.910156 5.277344 17.722656 5.136719 C 17.445312 4.925781 17.125 4.6875 16.75 4.6875 C 16.371094 4.6875 16.054688 4.925781 15.777344 5.136719 C 15.589844 5.277344 15.398438 5.421875 15.242188 5.453125 C 15.074219 5.488281 14.835938 5.425781 14.605469 5.363281 C 14.269531 5.277344 13.894531 5.179688 13.554688 5.320312 C 13.210938 5.460938 13.011719 5.804688 12.835938 6.101562 C 12.714844 6.308594 12.59375 6.515625 12.457031 6.605469 C 12.316406 6.699219 12.074219 6.734375 11.84375 6.765625 C 11.5 6.816406 11.113281 6.867188 10.851562 7.132812 C 10.589844 7.394531 10.535156 7.78125 10.488281 8.125 C 10.453125 8.355469 10.417969 8.597656 10.328125 8.738281 C 10.238281 8.875 10.027344 8.996094 9.824219 9.117188 C 9.523438 9.292969 9.179688 9.492188 9.039062 9.835938 C 8.898438 10.175781 8.996094 10.550781 9.085938 10.882812 C 9.144531 11.113281 9.207031 11.355469 9.171875 11.523438 C 9.140625 11.679688 8.996094 11.871094 8.855469 12.054688 C 8.644531 12.335938 8.40625 12.652344 8.40625 13.027344 C 8.40625 13.40625 8.644531 13.726562 8.855469 14.003906 C 8.996094 14.1875 9.140625 14.378906 9.171875 14.535156 C 9.207031 14.703125 9.144531 14.941406 9.085938 15.171875 C 8.996094 15.503906 8.898438 15.882812 9.039062 16.222656 C 9.179688 16.570312 9.523438 16.769531 9.824219 16.941406 C 10.027344 17.0625 10.234375 17.183594 10.328125 17.320312 C 10.417969 17.457031 10.453125 17.699219 10.488281 17.9375 C 10.492188 17.972656 10.496094 18.011719 10.5 18.042969 L 9.507812 20.070312 C 9.441406 20.214844 9.496094 20.386719 9.640625 20.457031 C 9.683594 20.476562 9.722656 20.484375 9.765625 20.484375 C 9.875 20.484375 9.976562 20.425781 10.027344 20.324219 L 10.761719 18.828125 C 10.789062 18.859375 10.816406 18.894531 10.851562 18.929688 C 11.042969 19.121094 11.308594 19.203125 11.570312 19.25 L 8.585938 25.339844 L 7.53125 25.40625 L 8.882812 22.652344 C 8.953125 22.511719 8.894531 22.339844 8.753906 22.269531 C 8.605469 22.199219 8.433594 22.257812 8.367188 22.402344 L 6.792969 25.601562 C 6.746094 25.695312 6.757812 25.804688 6.8125 25.890625 C 6.871094 25.976562 6.964844 26.023438 7.070312 26.019531 L 10.589844 25.78125 L 12.558594 28.707031 C 12.613281 28.789062 12.703125 28.835938 12.796875 28.835938 C 12.804688 28.835938 12.808594 28.835938 12.816406 28.835938 C 12.921875 28.832031 13.011719 28.769531 13.058594 28.671875 L 16.644531 21.363281 C 16.679688 21.367188 16.714844 21.371094 16.75 21.371094 C 16.785156 21.371094 16.820312 21.367188 16.855469 21.363281 L 20.441406 28.671875 C 20.488281 28.769531 20.578125 28.832031 20.679688 28.835938 C 20.6875 28.835938 20.695312 28.835938 20.699219 28.835938 C 20.796875 28.835938 20.886719 28.789062 20.941406 28.707031 L 22.910156 25.78125 L 26.425781 26.019531 C 26.535156 26.027344 26.628906 25.976562 26.6875 25.890625 C 26.746094 25.804688 26.75 25.695312 26.707031 25.601562 Z M 11.058594 17.855469 C 11.015625 17.558594 10.972656 17.25 10.804688 17 C 10.640625 16.753906 10.371094 16.597656 10.113281 16.445312 C 9.882812 16.308594 9.640625 16.167969 9.570312 16.003906 C 9.503906 15.84375 9.574219 15.578125 9.640625 15.316406 C 9.71875 15.023438 9.796875 14.722656 9.738281 14.425781 C 9.683594 14.136719 9.496094 13.894531 9.316406 13.65625 C 9.152344 13.4375 8.984375 13.214844 8.984375 13.027344 C 8.984375 12.84375 9.152344 12.621094 9.316406 12.402344 C 9.496094 12.167969 9.683594 11.921875 9.738281 11.636719 C 9.796875 11.335938 9.71875 11.03125 9.640625 10.738281 C 9.574219 10.484375 9.503906 10.214844 9.570312 10.058594 C 9.640625 9.890625 9.882812 9.75 10.113281 9.613281 C 10.371094 9.464844 10.640625 9.304688 10.804688 9.058594 C 10.972656 8.808594 11.015625 8.5 11.058594 8.203125 C 11.09375 7.9375 11.132812 7.664062 11.257812 7.539062 C 11.382812 7.414062 11.65625 7.375 11.921875 7.339844 C 12.222656 7.296875 12.527344 7.253906 12.777344 7.085938 C 13.027344 6.921875 13.183594 6.652344 13.332031 6.394531 C 13.46875 6.160156 13.609375 5.921875 13.777344 5.851562 C 13.9375 5.785156 14.203125 5.855469 14.460938 5.921875 C 14.75 6 15.054688 6.078125 15.355469 6.019531 C 15.640625 5.960938 15.886719 5.777344 16.121094 5.597656 C 16.339844 5.433594 16.5625 5.261719 16.75 5.261719 C 16.933594 5.261719 17.15625 5.433594 17.375 5.597656 C 17.613281 5.777344 17.855469 5.960938 18.144531 6.019531 C 18.441406 6.078125 18.746094 6 19.035156 5.921875 C 19.296875 5.855469 19.558594 5.785156 19.722656 5.851562 C 19.886719 5.921875 20.03125 6.160156 20.164062 6.394531 C 20.316406 6.652344 20.472656 6.921875 20.71875 7.085938 C 20.96875 7.253906 21.277344 7.296875 21.578125 7.339844 C 21.839844 7.375 22.117188 7.414062 22.242188 7.539062 C 22.363281 7.664062 22.402344 7.9375 22.441406 8.203125 C 22.484375 8.5 22.527344 8.808594 22.691406 9.058594 C 22.855469 9.304688 23.125 9.464844 23.386719 9.613281 C 23.613281 9.75 23.855469 9.890625 23.925781 10.058594 C 23.992188 10.214844 23.921875 10.484375 23.855469 10.738281 C 23.78125 11.03125 23.699219 11.335938 23.761719 11.636719 C 23.816406 11.921875 24 12.167969 24.179688 12.402344 C 24.347656 12.621094 24.515625 12.84375 24.515625 13.027344 C 24.515625 13.214844 24.347656 13.4375 24.179688 13.65625 C 24 13.894531 23.816406 14.136719 23.761719 14.425781 C 23.699219 14.722656 23.78125 15.023438 23.855469 15.316406 C 23.921875 15.578125 23.992188 15.839844 23.925781 16.003906 C 23.855469 16.167969 23.613281 16.308594 23.386719 16.445312 C 23.125 16.597656 22.855469 16.753906 22.691406 17 C 22.527344 17.25 22.480469 17.558594 22.441406 17.855469 C 22.402344 18.121094 22.363281 18.398438 22.242188 18.523438 C 22.117188 18.648438 21.839844 18.683594 21.578125 18.722656 C 21.277344 18.765625 20.96875 18.808594 20.71875 18.972656 C 20.472656 19.140625 20.316406 19.40625 20.164062 19.664062 C 20.03125 19.894531 19.886719 20.136719 19.722656 20.207031 C 19.558594 20.273438 19.296875 20.203125 19.035156 20.136719 C 18.746094 20.0625 18.441406 19.980469 18.144531 20.039062 C 17.855469 20.097656 17.613281 20.28125 17.375 20.460938 C 17.15625 20.625 16.933594 20.792969 16.75 20.792969 C 16.5625 20.792969 16.339844 20.625 16.121094 20.460938 C 15.886719 20.28125 15.640625 20.097656 15.355469 20.039062 C 15.28125 20.027344 15.207031 20.019531 15.136719 20.019531 C 14.910156 20.019531 14.679688 20.078125 14.460938 20.136719 C 14.203125 20.203125 13.9375 20.273438 13.777344 20.207031 C 13.609375 20.136719 13.46875 19.894531 13.332031 19.664062 C 13.183594 19.40625 13.027344 19.136719 12.777344 18.972656 C 12.527344 18.808594 12.222656 18.761719 11.921875 18.722656 C 11.65625 18.683594 11.382812 18.648438 11.257812 18.523438 C 11.132812 18.398438 11.09375 18.121094 11.058594 17.855469 Z M 10.714844 25.191406 L 9.25 25.292969 L 12.167969 19.347656 C 12.28125 19.371094 12.382812 19.402344 12.457031 19.453125 C 12.59375 19.542969 12.714844 19.753906 12.835938 19.957031 C 13.011719 20.257812 13.210938 20.59375 13.554688 20.742188 C 13.894531 20.878906 14.269531 20.78125 14.605469 20.695312 C 14.628906 20.6875 14.652344 20.683594 14.679688 20.679688 L 11.796875 26.542969 L 10.976562 25.320312 C 10.917969 25.234375 10.820312 25.1875 10.71875 25.191406 Z M 12.757812 27.972656 L 12.167969 27.09375 L 15.335938 20.636719 C 15.472656 20.699219 15.625 20.808594 15.777344 20.921875 C 15.878906 21 15.988281 21.082031 16.101562 21.15625 Z M 20.742188 27.972656 L 17.394531 21.15625 C 17.511719 21.082031 17.617188 21 17.722656 20.921875 C 17.871094 20.808594 18.023438 20.695312 18.160156 20.636719 L 21.332031 27.09375 Z M 22.78125 25.191406 C 22.675781 25.183594 22.582031 25.234375 22.523438 25.320312 L 21.703125 26.542969 L 18.820312 20.675781 C 18.84375 20.683594 18.871094 20.6875 18.890625 20.695312 C 19.226562 20.78125 19.601562 20.878906 19.941406 20.738281 C 20.289062 20.59375 20.488281 20.253906 20.664062 19.957031 C 20.78125 19.753906 20.902344 19.542969 21.039062 19.453125 C 21.113281 19.402344 21.214844 19.371094 21.328125 19.347656 L 24.25 25.292969 Z M 24.910156 25.339844 L 21.925781 19.25 C 22.191406 19.203125 22.453125 19.121094 22.648438 18.929688 C 22.679688 18.898438 22.710938 18.859375 22.738281 18.828125 L 25.964844 25.410156 Z M 8.820312 21.46875 L 9.050781 21.003906 C 9.121094 20.859375 9.296875 20.800781 9.4375 20.871094 C 9.578125 20.941406 9.640625 21.113281 9.566406 21.257812 L 9.335938 21.722656 C 9.285156 21.828125 9.183594 21.882812 9.078125 21.882812 C 9.035156 21.882812 8.992188 21.875 8.949219 21.855469 C 8.808594 21.785156 8.75 21.609375 8.820312 21.46875 Z M 16.75 19.042969 C 20.0625 19.042969 22.761719 16.34375 22.761719 13.027344 C 22.761719 9.714844 20.0625 7.015625 16.75 7.015625 C 13.433594 7.015625 10.738281 9.714844 10.738281 13.027344 C 10.738281 16.34375 13.433594 19.042969 16.75 19.042969 Z M 16.75 7.59375 C 19.746094 7.59375 22.183594 10.03125 22.183594 13.027344 C 22.183594 16.027344 19.746094 18.464844 16.75 18.464844 C 13.75 18.464844 11.3125 16.027344 11.3125 13.027344 C 11.3125 10.03125 13.75 7.59375 16.75 7.59375 Z M 16.75 17.28125 C 19.09375 17.28125 21.003906 15.375 21.003906 13.027344 C 21.003906 10.683594 19.09375 8.773438 16.75 8.773438 C 14.40625 8.773438 12.496094 10.683594 12.496094 13.027344 C 12.496094 15.375 14.40625 17.28125 16.75 17.28125 Z M 16.75 9.351562 C 18.777344 9.351562 20.425781 11 20.425781 13.027344 C 20.425781 15.054688 18.777344 16.707031 16.75 16.707031 C 14.71875 16.707031 13.070312 15.054688 13.070312 13.027344 C 13.070312 11 14.71875 9.351562 16.75 9.351562 Z M 15.0625 13.78125 L 14.917969 14.886719 C 14.890625 15.097656 14.980469 15.304688 15.152344 15.429688 C 15.253906 15.5 15.371094 15.539062 15.492188 15.539062 C 15.578125 15.539062 15.660156 15.519531 15.738281 15.484375 L 16.75 15.003906 L 17.761719 15.484375 C 17.949219 15.574219 18.175781 15.550781 18.347656 15.429688 C 18.515625 15.304688 18.605469 15.097656 18.578125 14.886719 L 18.4375 13.78125 L 19.203125 12.964844 C 19.347656 12.8125 19.398438 12.589844 19.332031 12.390625 C 19.265625 12.191406 19.097656 12.042969 18.890625 12.003906 L 17.792969 11.792969 L 17.253906 10.8125 C 17.15625 10.628906 16.957031 10.515625 16.75 10.515625 C 16.539062 10.515625 16.34375 10.628906 16.242188 10.8125 L 15.707031 11.792969 L 14.605469 12.003906 C 14.398438 12.042969 14.230469 12.191406 14.167969 12.390625 C 14.101562 12.589844 14.148438 12.8125 14.292969 12.964844 Z M 15.945312 12.335938 C 16.03125 12.320312 16.105469 12.265625 16.148438 12.191406 L 16.75 11.09375 L 17.351562 12.191406 C 17.394531 12.269531 17.46875 12.320312 17.550781 12.335938 L 18.785156 12.570312 L 17.921875 13.484375 C 17.863281 13.546875 17.835938 13.632812 17.84375 13.71875 L 18.007812 14.960938 L 16.875 14.425781 C 16.792969 14.386719 16.707031 14.386719 16.625 14.425781 L 15.492188 14.960938 L 15.652344 13.71875 C 15.660156 13.632812 15.632812 13.546875 15.578125 13.484375 L 14.714844 12.570312 Z M 15.945312 12.335938 " fill-opacity="1" fill-rule="nonzero"/></g></svg>